<?xml version="1.0" encoding="UTF-8"?>
<svg id="Balance" xmlns="http://www.w3.org/2000/svg" viewBox="0 0 601.64 948.95">
  <defs>
    <style>
      .cls-1 {
        fill: aqua;
      }
    </style>
  </defs>
  <g>
    <path class="cls-1" d="M184.79,425.13c-.14,0-.26-.04-.34-.13-.09-.09-.13-.2-.13-.34v-12.43c0-.14.04-.25.13-.34.09-.09.2-.13.34-.13h5.68c1.06,0,1.93.15,2.6.46.68.31,1.18.74,1.5,1.3s.49,1.22.49,1.97c0,.47-.09.89-.26,1.24-.17.36-.38.65-.63.88-.25.23-.49.4-.72.52.5.23.93.61,1.31,1.14.38.53.56,1.16.56,1.88,0,.8-.18,1.5-.54,2.1-.36.6-.89,1.06-1.59,1.4-.7.33-1.56.5-2.56.5h-5.85ZM187.36,417.15h2.75c.6,0,1.05-.15,1.35-.45.3-.3.45-.69.45-1.16s-.15-.85-.45-1.14c-.3-.29-.75-.43-1.35-.43h-2.75v3.17ZM187.36,422.89h2.93c.62,0,1.1-.17,1.42-.53.32-.35.48-.77.48-1.25s-.16-.92-.49-1.25-.79-.51-1.41-.51h-2.93v3.54Z"/>
    <path class="cls-1" d="M196.63,425.13c-.11,0-.21-.04-.29-.12s-.11-.18-.11-.28c0-.06,0-.12.02-.17l4.55-12.3c.04-.14.11-.26.23-.36.11-.1.27-.15.48-.15h2.45c.2,0,.36.05.48.15.11.1.19.22.23.36l4.55,12.3c.01.05.02.11.02.17,0,.1-.04.19-.12.28-.08.08-.17.12-.29.12h-1.99c-.19,0-.33-.04-.42-.13-.09-.09-.15-.17-.17-.25l-.82-2.14h-5.4l-.82,2.14c-.03.08-.08.16-.17.25-.09.09-.23.13-.42.13h-1.99ZM200.75,420.14h3.96l-1.97-5.51-1.99,5.51Z"/>
    <path class="cls-1" d="M211.36,425.13c-.14,0-.25-.04-.34-.13s-.13-.2-.13-.34v-12.43c0-.14.04-.25.13-.34s.2-.13.34-.13h2.12c.14,0,.25.04.34.13.09.09.13.2.13.34v10.35h5.93c.14,0,.25.04.34.13.09.09.13.2.13.34v1.61c0,.14-.04.26-.13.34s-.2.13-.34.13h-8.53Z"/>
    <path class="cls-1" d="M221.35,425.13c-.11,0-.21-.04-.29-.12s-.11-.18-.11-.28c0-.06,0-.12.02-.17l4.55-12.3c.04-.14.11-.26.23-.36.11-.1.27-.15.48-.15h2.45c.2,0,.36.05.48.15.11.1.19.22.23.36l4.55,12.3c.01.05.02.11.02.17,0,.1-.04.19-.12.28-.08.08-.17.12-.29.12h-1.99c-.19,0-.33-.04-.42-.13-.09-.09-.15-.17-.17-.25l-.82-2.14h-5.4l-.82,2.14c-.03.08-.08.16-.17.25-.09.09-.23.13-.42.13h-1.99ZM225.46,420.14h3.96l-1.97-5.51-1.99,5.51Z"/>
    <path class="cls-1" d="M236.08,425.13c-.14,0-.26-.04-.34-.13-.09-.09-.13-.2-.13-.34v-12.43c0-.14.04-.25.13-.34.09-.09.2-.13.34-.13h1.74c.19,0,.33.04.42.13.09.09.15.16.17.21l5.11,7.98v-7.84c0-.14.04-.25.13-.34.09-.09.2-.13.33-.13h1.95c.14,0,.25.04.34.13.09.09.13.2.13.34v12.43c0,.13-.04.24-.13.33-.09.1-.2.14-.34.14h-1.76c-.19,0-.33-.05-.41-.14s-.14-.16-.18-.2l-5.09-7.73v7.59c0,.14-.04.26-.13.34-.09.09-.2.13-.34.13h-1.93Z"/>
    <path class="cls-1" d="M254.56,425.32c-1.2,0-2.22-.2-3.05-.6-.84-.4-1.48-.99-1.94-1.76s-.71-1.71-.77-2.82c-.01-.52-.02-1.08-.02-1.68s0-1.17.02-1.72c.05-1.1.31-2.03.77-2.8.47-.77,1.12-1.36,1.96-1.77s1.85-.61,3.02-.61c.85,0,1.63.11,2.33.33.7.22,1.31.53,1.82.94.51.41.91.89,1.19,1.43.28.55.43,1.16.46,1.84,0,.12-.04.21-.12.29-.08.08-.18.12-.3.12h-2.18c-.15,0-.27-.04-.36-.12-.09-.08-.16-.2-.21-.38-.19-.75-.51-1.27-.96-1.55s-1-.42-1.66-.42c-.79,0-1.42.22-1.88.65s-.71,1.15-.75,2.16c-.04,1.05-.04,2.12,0,3.21.04,1.01.29,1.73.75,2.16s1.08.65,1.88.65c.66,0,1.22-.14,1.67-.43.45-.29.77-.8.95-1.54.05-.19.12-.32.21-.39.09-.07.21-.11.36-.11h2.18c.11,0,.21.04.3.11.08.08.12.17.12.29-.03.68-.18,1.29-.46,1.84-.28.55-.68,1.03-1.19,1.43-.51.41-1.12.72-1.82.94-.7.22-1.48.33-2.33.33Z"/>
    <path class="cls-1" d="M262.98,425.13c-.14,0-.25-.04-.34-.13s-.13-.2-.13-.34v-12.43c0-.14.04-.25.13-.34s.2-.13.34-.13h8.67c.14,0,.25.04.34.13s.13.2.13.34v1.53c0,.13-.04.24-.13.33-.09.09-.2.13-.34.13h-6.2v3h5.78c.14,0,.25.04.34.13.09.09.13.2.13.34v1.42c0,.13-.04.24-.13.33-.09.09-.2.13-.34.13h-5.78v3.1h6.35c.14,0,.25.04.34.13.09.09.13.2.13.34v1.51c0,.14-.04.26-.13.34-.09.09-.2.13-.34.13h-8.82Z"/>
  </g>
  <g id="g15">
    <g id="g17">
      <g id="g19">
        <g id="g25">
          <g id="path27">
            <path class="cls-1" d="M137.38,439.89c-1.65,0-2.99-1.34-2.99-2.99s1.34-2.99,2.99-2.99,2.99,1.34,2.99,2.99-1.34,2.99-2.99,2.99ZM137.38,435.89c-.55,0-1,.45-1,1s.45,1,1,1,1-.45,1-1-.45-1-1-1Z"/>
          </g>
        </g>
        <g id="g29">
          <g id="path31">
            <rect class="cls-1" x="122.34" y="435.89" width="13.04" height="2"/>
          </g>
        </g>
        <g id="g33">
          <g id="path35">
            <rect class="cls-1" x="139.37" y="435.89" width="13.04" height="2"/>
          </g>
        </g>
        <g id="g37">
          <g id="path39">
            <path class="cls-1" d="M142.37,458.91h-2c0-1.65-1.34-2.99-2.99-2.99s-2.99,1.34-2.99,2.99h-2c0-2.75,2.24-4.99,4.99-4.99s4.99,2.24,4.99,4.99Z"/>
          </g>
        </g>
        <g id="g41">
          <g id="path43">
            <path class="cls-1" d="M146.36,463.9h-17.96v-1c0-2.75,2.24-4.99,4.99-4.99h7.98c2.75,0,4.99,2.24,4.99,4.99v1ZM130.56,461.91h13.63c-.41-1.16-1.52-2-2.82-2h-7.98c-1.3,0-2.41.83-2.82,2Z"/>
          </g>
        </g>
        <g id="g45">
          <g id="path47">
            <rect class="cls-1" x="136.38" y="429.84" width="2" height="5.06"/>
          </g>
        </g>
        <g id="g49">
          <g id="path51">
            <rect class="cls-1" x="136.38" y="438.89" width="2" height="16.03"/>
          </g>
        </g>
        <g id="g53">
          <g id="path55">
            <path class="cls-1" d="M127.33,453.86h-2c-2.75,0-4.99-2.24-4.99-4.99v-.2l5.99-14.37,5.99,14.37v.2c0,2.75-2.24,4.99-4.99,4.99ZM122.35,449.05c.1,1.56,1.4,2.81,2.99,2.81h2c1.59,0,2.89-1.24,2.99-2.81l-3.99-9.57-3.99,9.57Z"/>
          </g>
        </g>
        <g id="g57">
          <g id="path59">
            <rect class="cls-1" x="121.34" y="447.87" width="9.98" height="2"/>
          </g>
        </g>
        <g id="g61">
          <g id="path63">
            <path class="cls-1" d="M149.42,453.86h-2c-2.75,0-4.99-2.24-4.99-4.99v-.2l5.99-14.37,5.99,14.37v.2c0,2.75-2.24,4.99-4.99,4.99ZM144.44,449.05c.1,1.56,1.4,2.81,2.99,2.81h2c1.59,0,2.89-1.24,2.99-2.81l-3.99-9.57-3.99,9.57Z"/>
          </g>
        </g>
        <g id="g65">
          <g id="path67">
            <rect class="cls-1" x="143.43" y="447.87" width="9.98" height="2"/>
          </g>
        </g>
      </g>
    </g>
  </g>
</svg>