<?xml version="1.0" encoding="UTF-8"?>
<svg id="Budget" xmlns="http://www.w3.org/2000/svg" viewBox="0 0 601.64 948.95">
  <defs>
    <style>
      .cls-1 {
        fill: #ff9100;
      }

      .cls-2 {
        fill: #fbb03b;
      }
    </style>
  </defs>
  <g>
    <path class="cls-1" d="M184.79,543.72c-.14,0-.26-.04-.34-.13-.09-.09-.13-.2-.13-.34v-12.43c0-.14.04-.25.13-.34.09-.09.2-.13.34-.13h5.68c1.06,0,1.93.15,2.6.46.68.31,1.18.74,1.5,1.3s.49,1.22.49,1.97c0,.47-.09.89-.26,1.24-.17.36-.38.65-.63.88-.25.23-.49.4-.72.52.5.23.93.61,1.31,1.14.38.53.56,1.16.56,1.88,0,.8-.18,1.5-.54,2.1-.36.6-.89,1.06-1.59,1.4-.7.33-1.56.5-2.56.5h-5.85ZM187.36,535.75h2.75c.6,0,1.05-.15,1.35-.45.3-.3.45-.69.45-1.16s-.15-.85-.45-1.14c-.3-.29-.75-.43-1.35-.43h-2.75v3.17ZM187.36,541.49h2.93c.62,0,1.1-.17,1.42-.53.32-.35.48-.77.48-1.25s-.16-.92-.49-1.25-.79-.51-1.41-.51h-2.93v3.54Z"/>
    <path class="cls-1" d="M203.08,543.92c-1.12,0-2.1-.19-2.95-.56s-1.49-.96-1.95-1.74c-.46-.78-.69-1.78-.69-2.99v-7.81c0-.14.04-.25.13-.34.09-.09.2-.13.34-.13h2.09c.14,0,.25.04.34.13.09.09.13.2.13.34v7.79c0,.94.22,1.65.67,2.1s1.07.69,1.88.69,1.41-.23,1.86-.69.67-1.16.67-2.1v-7.79c0-.14.05-.25.14-.34s.21-.13.33-.13h2.1c.13,0,.24.04.33.13s.13.2.13.34v7.81c0,1.21-.23,2.21-.69,2.99-.46.79-1.1,1.37-1.93,1.74-.83.38-1.81.56-2.95.56Z"/>
    <path class="cls-1" d="M211.84,543.72c-.14,0-.26-.04-.34-.13-.09-.09-.13-.2-.13-.34v-12.43c0-.14.04-.25.13-.34.09-.09.2-.13.34-.13h4.8c1.27,0,2.34.2,3.19.6.85.4,1.51.99,1.96,1.76.45.77.69,1.72.72,2.86.01.56.02,1.05.02,1.47s0,.91-.02,1.45c-.04,1.19-.27,2.17-.71,2.95-.43.78-1.07,1.36-1.91,1.73-.84.38-1.89.56-3.16.56h-4.9ZM214.4,541.26h2.24c.64,0,1.16-.1,1.57-.29.41-.19.71-.49.91-.91.2-.42.3-.95.32-1.62.01-.37.02-.7.03-.99,0-.29,0-.59,0-.88,0-.29-.02-.62-.03-.98-.03-.96-.27-1.66-.74-2.11-.47-.45-1.18-.68-2.15-.68h-2.14v8.46Z"/>
    <path class="cls-1" d="M230.3,543.92c-1.2,0-2.22-.2-3.07-.6-.85-.4-1.5-.99-1.97-1.76-.47-.77-.72-1.71-.76-2.8-.01-.55-.02-1.13-.02-1.76s0-1.22.02-1.78c.04-1.07.29-1.98.76-2.74.47-.75,1.13-1.33,1.99-1.73.86-.4,1.88-.6,3.05-.6.94,0,1.77.12,2.49.36.71.24,1.31.56,1.8.95.48.39.85.81,1.11,1.27s.39.9.4,1.32c0,.11-.04.21-.12.3-.08.08-.18.12-.31.12h-2.37c-.13,0-.23-.03-.3-.08-.07-.05-.13-.13-.18-.23-.09-.23-.23-.46-.43-.7-.2-.24-.46-.44-.79-.6-.33-.17-.76-.25-1.3-.25-.8,0-1.44.21-1.9.63-.47.42-.72,1.11-.76,2.07-.04,1.1-.04,2.21,0,3.35.04,1,.3,1.71.77,2.14s1.12.65,1.92.65c.52,0,.99-.09,1.41-.28.41-.18.74-.48.99-.87.24-.4.36-.9.36-1.51v-.48h-2.08c-.13,0-.24-.05-.33-.14-.09-.1-.13-.21-.13-.33v-1.22c0-.14.04-.25.13-.34.09-.09.2-.13.33-.13h4.69c.14,0,.25.04.34.13.09.09.13.2.13.34v2.08c0,1.1-.24,2.03-.72,2.81-.48.78-1.16,1.37-2.05,1.79-.89.42-1.92.62-3.11.62Z"/>
    <path class="cls-1" d="M238.99,543.72c-.14,0-.25-.04-.34-.13-.09-.09-.13-.2-.13-.34v-12.43c0-.14.04-.25.13-.34.09-.09.2-.13.34-.13h8.67c.14,0,.25.04.34.13.09.09.13.2.13.34v1.53c0,.13-.04.24-.13.33s-.2.13-.34.13h-6.2v3h5.78c.14,0,.25.04.34.13.09.09.13.2.13.34v1.42c0,.13-.04.24-.13.33s-.2.13-.34.13h-5.78v3.1h6.35c.14,0,.25.04.34.13.09.09.13.2.13.34v1.51c0,.14-.04.26-.13.34s-.2.13-.34.13h-8.82Z"/>
    <path class="cls-1" d="M253.98,543.72c-.14,0-.25-.04-.34-.13s-.13-.2-.13-.34v-10.25h-3.48c-.13,0-.24-.04-.33-.13-.09-.09-.13-.2-.13-.33v-1.72c0-.14.04-.25.13-.34.09-.09.2-.13.33-.13h10.02c.14,0,.25.04.34.13.09.09.13.2.13.34v1.72c0,.13-.04.24-.13.33-.09.09-.2.13-.34.13h-3.46v10.25c0,.14-.04.26-.13.34-.09.09-.2.13-.34.13h-2.12Z"/>
  </g>
  <g>
    <path class="cls-2" d="M155.47,556.22s0,0,0,0l-8.08-16.48c-.17-.35-.59-.5-.94-.32,0,0,0,0,0,0l-26.63,13.05c-.11.06-.2.14-.26.25-.22.14-.35.38-.33.64l1.41,18.31c.03.39.37.68.76.65l29.57-2.28c.39-.03.68-.37.65-.76l-.77-10,4.31-2.11c.35-.17.49-.6.32-.95ZM150.14,568.68l-28.16,2.17-1.3-16.9,28.16-2.17,1.3,16.9ZM130.91,551.74l11.43-5.6c1.14,1.02,2.64,1.54,4.17,1.43l1.4,2.87-17,1.31ZM150.72,557.76l-.52-6.8c-.03-.39-.37-.68-.76-.65h-.01s-1.78-3.63-1.78-3.63c-.02-.03-.04-.06-.06-.08-.1-.33-.43-.54-.78-.49-1.41.24-2.85-.25-3.81-1.31-.24-.25-.63-.29-.92-.09-.03,0-.07.02-.1.03l-13.95,6.84c-.17.08-.3.23-.36.41l-4.37.34,23.13-11.34,7.46,15.22-3.17,1.56Z"/>
    <path class="cls-2" d="M123.52,565.94c1.4.3,2.55,1.28,3.06,2.62.11.29.4.47.71.45.04,0,.07-.01.11-.02.03,0,.07.01.1.01l16.9-1.3s.06-.01.08-.02c.36.06.7-.18.75-.54,0,0,0,0,0,0,.3-1.4,1.29-2.55,2.62-3.06.32-.13.5-.47.42-.81,0-.03.01-.07.01-.11l-.43-5.63s-.02-.07-.03-.1c.03-.35-.2-.66-.54-.74-1.4-.3-2.55-1.29-3.06-2.62-.13-.33-.48-.51-.82-.42-.03,0-.07-.01-.1-.01l-16.9,1.3s-.07.02-.1.03c-.35-.03-.66.2-.74.54-.3,1.4-1.29,2.55-2.62,3.06-.32.13-.5.47-.42.81,0,.03-.01.07-.01.11l.43,5.63s.02.07.03.1c-.03.35.2.67.54.74ZM123.95,559.65c1.37-.68,2.4-1.88,2.86-3.34l16.33-1.26c.68,1.37,1.88,2.4,3.34,2.86l.39,5.06c-1.37.68-2.4,1.88-2.86,3.34l-16.33,1.26c-.68-1.37-1.88-2.4-3.34-2.86l-.39-5.06Z"/>
    <path class="cls-2" d="M135.74,565.53c2.33-.18,4.08-2.22,3.9-4.55-.18-2.33-2.22-4.08-4.55-3.9s-4.08,2.22-3.9,4.55c.18,2.33,2.22,4.08,4.55,3.9ZM135.19,558.49c1.56-.12,2.91,1.04,3.03,2.6s-1.04,2.91-2.6,3.03-2.91-1.04-3.03-2.6,1.04-2.91,2.6-3.03Z"/>
    <path class="cls-2" d="M127.75,562.96c.58-.04,1.02-.55.97-1.14s-.55-1.02-1.14-.97-1.02.55-.97,1.14.55,1.02,1.14.97ZM127.64,561.55c.19-.01.36.13.38.32s-.13.36-.32.38-.36-.13-.38-.32.13-.36.32-.38Z"/>
    <path class="cls-2" d="M143.24,561.77c.58-.04,1.02-.55.97-1.14s-.55-1.02-1.14-.97-1.02.55-.97,1.14.55,1.02,1.14.97ZM143.13,560.36c.19-.01.36.13.38.32s-.13.36-.32.38-.36-.13-.38-.32.13-.36.32-.38Z"/>
  </g>
</svg>