<?xml version="1.0" encoding="UTF-8"?>
<svg id="Strategic" xmlns="http://www.w3.org/2000/svg" viewBox="0 0 601.64 948.95">
  <defs>
    <style>
      .cls-1 {
        fill: #f0f;
      }
    </style>
  </defs>
  <g>
    <path class="cls-1" d="M189.13,650.45c-1.22,0-2.25-.18-3.07-.54-.82-.36-1.44-.82-1.87-1.4-.42-.57-.64-1.19-.67-1.84,0-.1.04-.19.11-.28s.17-.12.29-.12h2.05c.17,0,.29.04.38.11.09.07.17.16.25.26.09.22.23.43.43.63s.47.37.81.51c.34.13.77.2,1.28.2.83,0,1.45-.13,1.87-.4.41-.27.62-.63.62-1.09,0-.33-.11-.6-.33-.8-.22-.2-.57-.39-1.05-.55-.48-.17-1.11-.34-1.9-.54-.96-.2-1.77-.47-2.44-.79-.67-.33-1.17-.75-1.51-1.26-.34-.52-.51-1.16-.51-1.92s.21-1.44.63-2.04,1.01-1.06,1.78-1.4c.76-.34,1.68-.51,2.74-.51.85,0,1.61.11,2.27.34.66.23,1.21.53,1.65.9s.77.77,1,1.19c.23.42.35.83.36,1.22,0,.1-.04.2-.11.28-.08.08-.17.12-.29.12h-2.14c-.13,0-.24-.03-.34-.08-.1-.05-.19-.14-.25-.27-.08-.33-.3-.62-.68-.87-.38-.25-.86-.37-1.46-.37s-1.12.11-1.48.34-.55.58-.55,1.05c0,.31.09.56.28.77.19.21.5.4.94.55.44.16,1.02.33,1.75.53,1.12.23,2.03.5,2.74.82.7.32,1.22.73,1.55,1.23.33.5.5,1.14.5,1.9,0,.85-.24,1.59-.72,2.2-.48.61-1.14,1.08-1.97,1.41-.84.33-1.81.49-2.92.49Z"/>
    <path class="cls-1" d="M200.08,650.26c-.14,0-.26-.04-.34-.13-.09-.09-.13-.2-.13-.34v-10.25h-3.48c-.13,0-.24-.04-.33-.13-.09-.09-.13-.2-.13-.33v-1.72c0-.14.04-.25.13-.34s.2-.13.33-.13h10.02c.14,0,.26.04.34.13.09.09.13.2.13.34v1.72c0,.13-.04.24-.13.33-.09.09-.2.13-.34.13h-3.46v10.25c0,.14-.04.26-.13.34s-.2.13-.34.13h-2.12Z"/>
    <path class="cls-1" d="M208.93,650.26c-.14,0-.25-.04-.34-.13s-.13-.2-.13-.34v-12.43c0-.14.04-.25.13-.34s.2-.13.34-.13h5.07c1.59,0,2.85.37,3.77,1.1.92.73,1.38,1.79,1.38,3.17,0,.93-.22,1.71-.67,2.33s-1.05,1.09-1.8,1.4l2.7,4.78c.04.08.06.15.06.21,0,.1-.04.19-.11.28-.08.08-.17.12-.29.12h-2.12c-.23,0-.4-.06-.52-.18-.12-.12-.2-.23-.25-.33l-2.33-4.38h-2.31v4.42c0,.14-.04.26-.13.34-.09.09-.2.13-.34.13h-2.08ZM211.5,642.93h2.45c.7,0,1.22-.16,1.56-.48.34-.32.51-.77.51-1.34s-.17-1.03-.5-1.36-.85-.5-1.57-.5h-2.45v3.67Z"/>
    <path class="cls-1" d="M220.72,650.26c-.11,0-.21-.04-.29-.12-.08-.08-.11-.18-.11-.28,0-.06,0-.12.02-.17l4.55-12.3c.04-.14.12-.26.23-.36.11-.1.27-.15.48-.15h2.45c.2,0,.36.05.48.15.12.1.19.22.23.36l4.55,12.3c.01.05.02.11.02.17,0,.1-.04.19-.11.28-.08.08-.17.12-.29.12h-1.99c-.19,0-.33-.04-.42-.13s-.15-.17-.17-.25l-.82-2.14h-5.39l-.82,2.14c-.03.08-.08.16-.17.25-.09.09-.23.13-.42.13h-1.99ZM224.83,645.27h3.96l-1.97-5.51-1.99,5.51Z"/>
    <path class="cls-1" d="M237.02,650.26c-.14,0-.26-.04-.34-.13-.09-.09-.13-.2-.13-.34v-10.25h-3.48c-.13,0-.24-.04-.33-.13-.09-.09-.13-.2-.13-.33v-1.72c0-.14.04-.25.13-.34.09-.09.2-.13.33-.13h10.02c.14,0,.26.04.34.13s.13.2.13.34v1.72c0,.13-.04.24-.13.33-.09.09-.2.13-.34.13h-3.46v10.25c0,.14-.04.26-.13.34-.09.09-.2.13-.34.13h-2.12Z"/>
    <path class="cls-1" d="M245.87,650.26c-.14,0-.25-.04-.34-.13-.09-.09-.13-.2-.13-.34v-12.43c0-.14.04-.25.13-.34.09-.09.2-.13.34-.13h8.67c.14,0,.25.04.34.13.09.09.13.2.13.34v1.53c0,.13-.04.24-.13.33s-.2.13-.34.13h-6.2v3h5.78c.14,0,.25.04.34.13.09.09.13.2.13.34v1.42c0,.13-.04.24-.13.33s-.2.13-.34.13h-5.78v3.1h6.35c.14,0,.25.04.34.13.09.09.13.2.13.34v1.51c0,.14-.04.26-.13.34s-.2.13-.34.13h-8.82Z"/>
    <path class="cls-1" d="M262.71,650.45c-1.2,0-2.22-.2-3.07-.6-.85-.4-1.5-.99-1.97-1.76-.47-.77-.72-1.71-.76-2.8-.01-.55-.02-1.13-.02-1.76s0-1.22.02-1.78c.04-1.07.29-1.98.76-2.74.47-.75,1.13-1.33,1.99-1.73.86-.4,1.88-.6,3.05-.6.94,0,1.77.12,2.49.36.71.24,1.31.56,1.8.95.48.39.85.81,1.11,1.27.25.46.39.9.4,1.32,0,.11-.04.21-.11.3s-.18.12-.31.12h-2.37c-.13,0-.23-.03-.3-.08-.07-.05-.13-.13-.18-.23-.09-.23-.23-.46-.43-.7-.2-.24-.46-.44-.79-.6-.33-.17-.77-.25-1.3-.25-.8,0-1.44.21-1.9.63s-.72,1.11-.76,2.07c-.04,1.1-.04,2.21,0,3.35.04,1,.3,1.71.77,2.14.48.43,1.12.65,1.92.65.52,0,.99-.09,1.41-.28s.74-.48.99-.87c.24-.4.36-.9.36-1.51v-.48h-2.09c-.13,0-.24-.05-.33-.14s-.13-.21-.13-.33v-1.22c0-.14.04-.25.13-.34.09-.09.2-.13.33-.13h4.69c.14,0,.25.04.34.13.09.09.13.2.13.34v2.08c0,1.1-.24,2.03-.72,2.81-.48.78-1.16,1.37-2.05,1.79-.89.42-1.92.62-3.11.62Z"/>
    <path class="cls-1" d="M271.39,650.26c-.14,0-.25-.04-.34-.13s-.13-.2-.13-.34v-12.43c0-.14.04-.25.13-.34s.2-.13.34-.13h2.16c.14,0,.25.04.34.13.09.09.13.2.13.34v12.43c0,.14-.04.26-.13.34-.09.09-.2.13-.34.13h-2.16Z"/>
    <path class="cls-1" d="M282.18,650.45c-1.2,0-2.22-.2-3.05-.6-.84-.4-1.48-.99-1.94-1.76-.46-.77-.71-1.71-.76-2.82-.01-.52-.02-1.08-.02-1.68s0-1.17.02-1.72c.05-1.1.31-2.03.77-2.8s1.12-1.36,1.96-1.77,1.85-.61,3.02-.61c.85,0,1.63.11,2.33.33.7.22,1.31.53,1.82.94.51.41.91.89,1.19,1.43.28.55.43,1.16.46,1.84,0,.12-.04.21-.12.29-.08.08-.18.12-.3.12h-2.18c-.15,0-.27-.04-.36-.12-.09-.08-.16-.2-.21-.38-.19-.75-.51-1.27-.96-1.55s-1-.42-1.66-.42c-.79,0-1.42.22-1.87.65-.46.43-.71,1.15-.75,2.16-.04,1.05-.04,2.12,0,3.21.04,1.01.29,1.73.75,2.16.46.43,1.08.65,1.87.65.66,0,1.22-.14,1.67-.43s.77-.8.95-1.54c.05-.19.12-.32.21-.39.09-.07.21-.11.36-.11h2.18c.11,0,.21.04.3.11.08.08.12.17.12.29-.03.68-.18,1.29-.46,1.84-.28.55-.68,1.03-1.19,1.43-.51.41-1.12.72-1.82.94-.7.22-1.48.33-2.33.33Z"/>
  </g>
  <g>
    <path class="cls-1" d="M137.49,665.12c-.26,0-.52-.1-.71-.3-.39-.39-.39-1.03,0-1.42l2.14-2.14c-.46-.25-.98-.39-1.53-.39-1.78,0-3.24,1.45-3.24,3.23s1.45,3.23,3.24,3.23,3.24-1.45,3.24-3.23c0-.5-.11-.97-.31-1.39l-2.1,2.1c-.2.2-.45.29-.71.29h0Z"/>
    <path class="cls-1" d="M145.26,657.77c1.4,1.74,2.24,3.95,2.24,6.35,0,5.58-4.54,10.12-10.13,10.12s-10.13-4.54-10.13-10.12,4.54-10.12,10.13-10.12c2.46,0,4.71.88,6.47,2.34l1.18-1.18-.46-1.34c-2.04-1.43-4.52-2.27-7.19-2.27-6.93,0-12.57,5.64-12.57,12.57s5.64,12.57,12.57,12.57,12.57-5.64,12.57-12.57c0-2.65-.82-5.11-2.23-7.13l-1.27-.4-1.19,1.19Z"/>
    <path class="cls-1" d="M142.63,664.11c0,2.89-2.36,5.25-5.25,5.25s-5.25-2.35-5.25-5.25,2.36-5.25,5.25-5.25c1.11,0,2.14.35,2.99.94l2.04-2.04c-1.38-1.1-3.14-1.76-5.04-1.76-4.47,0-8.11,3.64-8.11,8.11s3.64,8.11,8.11,8.11,8.11-3.64,8.11-8.11c0-1.85-.62-3.55-1.66-4.91l-2.05,2.05c.54.82.85,1.81.85,2.86Z"/>
    <path class="cls-1" d="M150.3,657.33c1.09,2.07,1.67,4.38,1.67,6.78,0,3.89-1.52,7.56-4.27,10.31-2.75,2.75-6.42,4.27-10.31,4.27s-7.56-1.52-10.31-4.27c-2.76-2.75-4.27-6.42-4.27-10.31s1.52-7.56,4.27-10.31c2.75-2.75,6.42-4.27,10.31-4.27,2.4,0,4.72.58,6.78,1.67.02-.03.05-.06.08-.09l1.83-1.83c-2.55-1.5-5.52-2.36-8.69-2.36-9.49,0-17.18,7.7-17.18,17.19s7.69,17.19,17.18,17.19,17.18-7.7,17.18-17.19c0-3.17-.86-6.13-2.35-8.68l-1.82,1.82s-.06.05-.09.08h0Z"/>
    <path class="cls-1" d="M152.33,649.98c-.32-.09-.57-.34-.68-.66l-.4-1.27c-.12-.38-.61-.5-.89-.22l-4.04,4.04c-.13.13-.17.32-.11.5l.7,2.03c.05.14.16.26.31.3l1.91.61c.17.05.36,0,.48-.12l4.01-4c.29-.29.16-.78-.23-.89l-1.05-.31Z"/>
  </g>
</svg>