<?xml version="1.0" encoding="UTF-8"?>
<svg id="begining_texts" data-name="begining texts" xmlns="http://www.w3.org/2000/svg" viewBox="0 0 2817.33 1452.37">
  <defs>
    <style>
      .cls-1 {
        fill: #fff;
      }
    </style>
  </defs>
  <g>
    <path class="cls-1" d="M1108.23,1035.96c-.18,0-.34-.06-.46-.19-.13-.13-.19-.28-.19-.46v-17.78c0-.2.06-.36.19-.49.13-.13.28-.19.46-.19h12.51c.2,0,.36.06.48.19.12.13.18.29.18.49v1.91c0,.18-.06.34-.18.46-.12.13-.28.19-.48.19h-9.37v4.37h4.62c2.06,0,3.67.51,4.83,1.53,1.17,1.02,1.75,2.4,1.75,4.15,0,.75-.14,1.47-.42,2.17-.28.7-.7,1.33-1.24,1.87s-1.23.98-2.05,1.3-1.78.48-2.87.48h-7.76ZM1111.37,1033.06h4.23c.66,0,1.21-.14,1.67-.41.46-.27.8-.64,1.04-1.09.24-.46.36-.95.36-1.47,0-.8-.26-1.47-.76-1.99-.51-.53-1.27-.79-2.29-.79h-4.23v5.76Z"/>
    <path class="cls-1" d="M1124.1,1035.96c-.15,0-.28-.05-.4-.16-.12-.11-.18-.25-.18-.41,0-.07.02-.16.05-.25l6.58-17.62c.05-.18.16-.34.31-.48.15-.14.37-.21.64-.21h2.98c.27,0,.48.07.63.21.15.14.25.3.33.48l6.58,17.62c.02.09.03.17.03.25,0,.16-.05.3-.16.41-.11.11-.24.16-.38.16h-2.38c-.26,0-.44-.06-.56-.18-.12-.12-.2-.23-.23-.34l-1.28-3.33h-8.11l-1.28,3.33c-.04.11-.11.22-.23.34-.12.12-.3.18-.56.18h-2.38ZM1129.51,1028.96h6.2l-3.11-8.44-3.09,8.44Z"/>
    <path class="cls-1" d="M1151.58,1036.23c-1.69,0-3.13-.3-4.3-.89s-2.07-1.44-2.69-2.54c-.62-1.1-.97-2.43-1.04-3.97-.02-.75-.03-1.55-.03-2.4s0-1.67.03-2.46c.07-1.53.42-2.85,1.05-3.96.63-1.11,1.53-1.96,2.7-2.55s2.6-.89,4.27-.89c1.24,0,2.35.16,3.33.49.98.33,1.82.78,2.51,1.35.69.57,1.23,1.24,1.61,2.01s.58,1.59.6,2.49c.02.16-.03.3-.15.41-.12.11-.26.16-.42.16h-2.59c-.2,0-.36-.05-.49-.15-.13-.1-.22-.27-.27-.5-.29-1.2-.79-2.02-1.5-2.46-.71-.44-1.59-.66-2.65-.66-1.22,0-2.19.34-2.92,1.02-.73.68-1.12,1.81-1.17,3.37-.05,1.49-.05,3.02,0,4.59.05,1.57.45,2.69,1.17,3.37.73.68,1.7,1.02,2.92,1.02,1.06,0,1.94-.22,2.66-.67.72-.45,1.22-1.26,1.49-2.44.05-.25.15-.43.27-.52.13-.09.29-.14.49-.14h2.59c.16,0,.3.05.42.16.12.11.17.25.15.41-.02.89-.22,1.72-.6,2.49s-.92,1.43-1.61,2.01c-.69.57-1.53,1.02-2.51,1.35-.98.33-2.09.49-3.33.49Z"/>
    <path class="cls-1" d="M1167.74,1035.96c-.18,0-.34-.06-.46-.19-.13-.13-.19-.28-.19-.46v-15.1h-5.05c-.18,0-.34-.06-.46-.19-.13-.13-.19-.28-.19-.46v-2.02c0-.2.06-.36.19-.49.13-.13.28-.19.46-.19h13.93c.2,0,.36.06.49.19.13.13.19.29.19.49v2.02c0,.18-.06.34-.19.46-.13.13-.29.19-.49.19h-5.03v15.1c0,.18-.06.34-.19.46-.13.13-.29.19-.49.19h-2.51Z"/>
    <path class="cls-1" d="M1178.23,1035.96c-.15,0-.28-.05-.4-.16-.12-.11-.18-.25-.18-.41,0-.07.02-.16.05-.25l6.58-17.62c.05-.18.16-.34.31-.48.15-.14.37-.21.64-.21h2.98c.27,0,.48.07.63.21.15.14.25.3.33.48l6.58,17.62c.02.09.03.17.03.25,0,.16-.05.3-.16.41-.11.11-.24.16-.38.16h-2.38c-.26,0-.44-.06-.56-.18-.12-.12-.2-.23-.23-.34l-1.28-3.33h-8.11l-1.28,3.33c-.04.11-.11.22-.23.34-.12.12-.3.18-.56.18h-2.38ZM1183.64,1028.96h6.2l-3.11-8.44-3.09,8.44Z"/>
    <path class="cls-1" d="M1203.88,1031.18l-7.29-13.46c-.05-.11-.08-.2-.08-.27,0-.16.06-.3.19-.42.13-.12.26-.18.41-.18h2.68c.16,0,.3.04.42.12.12.08.21.21.29.4l5.38,10.05-1.99,3.77ZM1199.64,1035.96c-.18,0-.34-.06-.46-.19-.13-.13-.19-.28-.19-.46v-2.02c0-.2.06-.36.19-.49.13-.13.28-.19.46-.19h1.01c.53,0,.98-.11,1.37-.34.38-.23.74-.59,1.07-1.09s.66-1.14.98-1.93l5.22-11.88c.07-.18.17-.31.3-.4.13-.08.27-.12.44-.12h2.54c.15,0,.28.05.4.16.12.11.18.24.18.38,0,.09,0,.17-.03.25s-.05.15-.08.22l-5.49,12.54c-.46,1-.88,1.85-1.28,2.55-.4.7-.84,1.27-1.31,1.72-.47.45-1.03.77-1.68.98-.65.21-1.42.31-2.34.31h-1.28Z"/>
  </g>
  <g>
    <path class="cls-1" d="M1373.26,1035.96c-.18,0-.34-.06-.46-.18-.13-.12-.19-.28-.19-.48v-17.78c0-.2.06-.36.19-.49.13-.13.28-.19.46-.19h2.49c.2,0,.36.06.48.19.12.13.18.29.18.49v7.05h8.06v-7.05c0-.2.06-.36.19-.49.13-.13.28-.19.46-.19h2.46c.2,0,.36.06.49.19.13.13.19.29.19.49v17.78c0,.18-.06.34-.19.46-.13.13-.29.19-.49.19h-2.46c-.18,0-.34-.06-.46-.19-.13-.13-.19-.28-.19-.46v-7.32h-8.06v7.32c0,.18-.06.34-.18.46-.12.13-.28.19-.48.19h-2.49Z"/>
    <path class="cls-1" d="M1391.33,1035.96c-.15,0-.28-.05-.4-.16-.12-.11-.18-.25-.18-.41,0-.07.02-.16.05-.25l6.58-17.62c.05-.18.16-.34.31-.48.15-.14.37-.21.64-.21h2.98c.27,0,.48.07.63.21.15.14.25.3.33.48l6.58,17.62c.02.09.03.17.03.25,0,.16-.05.3-.16.41-.11.11-.24.16-.38.16h-2.38c-.26,0-.44-.06-.56-.18-.12-.12-.2-.23-.23-.34l-1.28-3.33h-8.11l-1.28,3.33c-.04.11-.11.22-.23.34-.12.12-.3.18-.56.18h-2.38ZM1396.74,1028.96h6.2l-3.11-8.44-3.09,8.44Z"/>
    <path class="cls-1" d="M1422.42,1035.96c-.2,0-.36-.06-.48-.19-.12-.13-.18-.28-.18-.46v-6.45c-.29.27-.68.5-1.16.68-.48.18-1.01.32-1.58.41-.57.09-1.13.14-1.68.14-2.24,0-3.91-.54-5-1.62-1.09-1.08-1.64-2.69-1.64-4.82v-6.15c0-.18.06-.34.19-.46.13-.13.28-.19.46-.19h2.46c.2,0,.36.06.49.19.13.13.19.28.19.46v5.95c0,1.07.27,1.87.82,2.38.55.51,1.47.76,2.76.76.36,0,.76-.03,1.17-.1.42-.06.82-.18,1.2-.35.38-.17.7-.41.94-.7s.37-.66.37-1.09v-6.86c0-.18.06-.34.18-.46.12-.13.28-.19.48-.19h2.46c.2,0,.36.06.49.19.13.13.19.28.19.46v17.81c0,.18-.06.34-.19.46-.13.13-.29.19-.49.19h-2.46Z"/>
    <path class="cls-1" d="M1428.72,1035.96c-.15,0-.28-.05-.4-.16-.12-.11-.18-.25-.18-.41,0-.07.02-.16.05-.25l6.58-17.62c.05-.18.16-.34.31-.48.15-.14.37-.21.64-.21h2.98c.27,0,.48.07.63.21.15.14.25.3.33.48l6.58,17.62c.02.09.03.17.03.25,0,.16-.05.3-.16.41-.11.11-.24.16-.38.16h-2.38c-.26,0-.44-.06-.56-.18-.12-.12-.2-.23-.23-.34l-1.28-3.33h-8.11l-1.28,3.33c-.04.11-.11.22-.23.34-.12.12-.3.18-.56.18h-2.38ZM1434.13,1028.96h6.2l-3.11-8.44-3.09,8.44Z"/>
    <path class="cls-1" d="M1453.69,1035.96c-.18,0-.34-.06-.46-.19-.13-.13-.19-.28-.19-.46v-15.1h-5.05c-.18,0-.34-.06-.46-.19-.13-.13-.19-.28-.19-.46v-2.02c0-.2.06-.36.19-.49.13-.13.28-.19.46-.19h13.93c.2,0,.36.06.49.19.13.13.19.29.19.49v2.02c0,.18-.06.34-.19.46-.13.13-.29.19-.49.19h-5.03v15.1c0,.18-.06.34-.19.46-.13.13-.29.19-.49.19h-2.51Z"/>
    <path class="cls-1" d="M1466.01,1035.96c-.18,0-.34-.06-.46-.19-.13-.13-.19-.28-.19-.46v-17.81c0-.18.06-.34.19-.46.13-.13.28-.19.46-.19h2.49c.2,0,.36.06.48.19.12.13.18.28.18.46v6.25h3.52c2.17,0,3.84.5,5.03,1.52,1.18,1.01,1.78,2.51,1.78,4.49,0,1.15-.26,2.19-.76,3.14-.51.95-1.27,1.69-2.27,2.24-1,.55-2.26.82-3.77.82h-6.66ZM1469.15,1032.92h3.36c.98,0,1.74-.3,2.27-.89.53-.59.79-1.36.79-2.31s-.26-1.72-.78-2.21c-.52-.49-1.28-.74-2.28-.74h-3.36v6.15Z"/>
  </g>
  <g>
    <path class="cls-1" d="M1635.99,1035.96c-.18,0-.34-.06-.46-.19-.13-.13-.19-.28-.19-.46v-17.78c0-.2.06-.36.19-.49.13-.13.28-.19.46-.19h12.02c.2,0,.36.06.49.19.13.13.19.29.19.49v1.8c0,.18-.06.34-.19.46-.13.13-.29.19-.49.19h-8.99v4.83h8.38c.2,0,.36.06.49.18.13.12.19.28.19.48v1.69c0,.2-.06.36-.19.48-.13.12-.29.18-.49.18h-8.38v5h9.2c.2,0,.36.06.49.19.13.13.19.29.19.49v1.8c0,.18-.06.34-.19.46-.13.13-.29.19-.49.19h-12.24Z"/>
    <path class="cls-1" d="M1652.98,1035.96c-.18,0-.34-.06-.46-.19-.13-.13-.19-.28-.19-.46v-17.78c0-.2.06-.36.19-.49.13-.13.28-.19.46-.19h2.1c.25,0,.44.06.56.18.12.12.2.2.23.26l7.87,12.24v-11.99c0-.2.06-.36.18-.49.12-.13.28-.19.48-.19h2.29c.2,0,.36.06.49.19.13.13.19.29.19.49v17.75c0,.2-.06.36-.19.49-.13.13-.28.19-.46.19h-2.13c-.26,0-.44-.06-.55-.19-.11-.13-.19-.21-.25-.25l-7.84-11.96v11.74c0,.18-.06.34-.19.46-.13.13-.29.19-.49.19h-2.29Z"/>
    <path class="cls-1" d="M1679.06,1036.23c-1.68,0-3.1-.29-4.27-.87-1.17-.58-2.09-1.42-2.73-2.53-.65-1.1-1-2.42-1.05-3.95-.02-.78-.03-1.62-.03-2.53s0-1.75.03-2.55c.05-1.51.41-2.8,1.05-3.88.65-1.07,1.57-1.9,2.76-2.49,1.19-.58,2.61-.87,4.25-.87,1.33,0,2.49.18,3.5.53,1,.35,1.83.81,2.5,1.37.66.56,1.17,1.15,1.5,1.79s.51,1.23.53,1.78c.02.16-.03.3-.14.41s-.25.16-.44.16h-2.81c-.18,0-.32-.04-.41-.11-.09-.07-.17-.18-.25-.33-.15-.38-.37-.76-.68-1.13-.31-.37-.73-.69-1.26-.94-.53-.25-1.21-.38-2.05-.38-1.24,0-2.23.33-2.96.98-.74.66-1.13,1.74-1.19,3.25-.05,1.58-.05,3.19,0,4.81.05,1.55.46,2.66,1.22,3.33.76.67,1.75,1.01,2.99,1.01.82,0,1.55-.15,2.2-.44.65-.29,1.16-.75,1.53-1.37s.56-1.41.56-2.38v-.85h-3.33c-.18,0-.34-.06-.46-.19-.13-.13-.19-.29-.19-.49v-1.45c0-.2.06-.36.19-.49.13-.13.28-.19.46-.19h6.53c.2,0,.36.06.48.19.12.13.18.29.18.49v2.87c0,1.53-.33,2.85-1,3.96s-1.61,1.97-2.84,2.57c-1.23.6-2.68.9-4.36.9Z"/>
    <path class="cls-1" d="M1691.41,1035.96c-.18,0-.34-.06-.46-.19-.13-.13-.19-.28-.19-.46v-17.81c0-.18.06-.34.19-.46.13-.13.28-.19.46-.19h2.54c.18,0,.34.06.46.19.13.13.19.28.19.46v15.21h8.66c.2,0,.36.06.49.19s.19.29.19.49v1.91c0,.18-.06.34-.19.46s-.29.19-.49.19h-11.85Z"/>
    <path class="cls-1" d="M1707.25,1035.96c-.18,0-.34-.06-.46-.19-.13-.13-.19-.28-.19-.46v-17.81c0-.18.06-.34.19-.46.13-.13.28-.19.46-.19h2.57c.2,0,.36.06.48.19.12.13.18.28.18.46v17.81c0,.18-.06.34-.18.46-.12.13-.28.19-.48.19h-2.57Z"/>
    <path class="cls-1" d="M1721.39,1036.23c-1.69,0-3.11-.25-4.25-.75-1.14-.5-2-1.16-2.59-1.97-.59-.81-.91-1.66-.94-2.55,0-.16.05-.3.16-.41.11-.11.25-.16.41-.16h2.43c.24,0,.41.05.53.15.12.1.22.22.31.37.11.35.32.69.63,1.02.31.34.73.61,1.27.83.54.22,1.22.33,2.03.33,1.31,0,2.29-.22,2.94-.66.65-.44.97-1.03.97-1.78,0-.53-.17-.95-.52-1.27-.35-.32-.88-.61-1.6-.87-.72-.26-1.67-.54-2.85-.83-1.37-.33-2.51-.72-3.43-1.19-.92-.46-1.61-1.05-2.08-1.76-.46-.71-.7-1.61-.7-2.7s.29-1.99.86-2.81c.57-.82,1.39-1.47,2.46-1.94,1.07-.47,2.34-.71,3.81-.71,1.18,0,2.23.16,3.14.48.91.32,1.67.74,2.27,1.26.6.52,1.06,1.07,1.38,1.67.32.59.49,1.17.51,1.73,0,.15-.05.28-.15.4s-.24.18-.42.18h-2.54c-.15,0-.29-.04-.44-.11-.15-.07-.26-.21-.35-.41-.11-.56-.46-1.05-1.06-1.45-.6-.4-1.38-.6-2.32-.6s-1.77.18-2.38.55-.9.93-.9,1.69c0,.51.15.93.45,1.27s.78.63,1.45.89c.66.26,1.54.53,2.64.82,1.55.35,2.81.75,3.8,1.2.98.46,1.7,1.03,2.16,1.73s.68,1.59.68,2.66c0,1.2-.32,2.23-.97,3.07-.65.85-1.55,1.5-2.72,1.95-1.17.46-2.52.68-4.07.68Z"/>
    <path class="cls-1" d="M1732.95,1035.96c-.18,0-.34-.06-.46-.18-.13-.12-.19-.28-.19-.48v-17.78c0-.2.06-.36.19-.49.13-.13.28-.19.46-.19h2.49c.2,0,.36.06.48.19.12.13.18.29.18.49v7.05h8.06v-7.05c0-.2.06-.36.19-.49.13-.13.28-.19.46-.19h2.46c.2,0,.36.06.49.19.13.13.19.29.19.49v17.78c0,.18-.06.34-.19.46-.13.13-.29.19-.49.19h-2.46c-.18,0-.34-.06-.46-.19-.13-.13-.19-.28-.19-.46v-7.32h-8.06v7.32c0,.18-.06.34-.18.46-.12.13-.28.19-.48.19h-2.49Z"/>
  </g>
</svg>