<?xml version="1.0" encoding="UTF-8"?>
<svg id="Begining_buttons" data-name="Begining buttons" xmlns="http://www.w3.org/2000/svg" viewBox="0 0 2817.33 1452.37">
  <defs>
    <style>
      .cls-1 {
        stroke: #ff9100;
      }

      .cls-1, .cls-2, .cls-3 {
        fill: #080823;
        stroke-miterlimit: 10;
      }

      .cls-2 {
        stroke: aqua;
      }

      .cls-3 {
        stroke: #f0f;
      }
    </style>
  </defs>
  <path class="cls-3" d="M1088.3,986.47h142.94c21.45,0,38.86,17.41,38.86,38.86v.96c0,21.45-17.41,38.86-38.86,38.86h-143.9c-21.45,0-38.86-17.41-38.86-38.86h0c0-21.98,17.84-39.82,39.82-39.82Z"/>
  <path class="cls-1" d="M1354.47,986.47h142.94c21.45,0,38.86,17.41,38.86,38.86v.96c0,21.45-17.41,38.86-38.86,38.86h-143.9c-21.45,0-38.86-17.41-38.86-38.86h0c0-21.98,17.84-39.82,39.82-39.82Z"/>
  <path class="cls-2" d="M1620.65,986.47h142.94c21.45,0,38.86,17.41,38.86,38.86v.96c0,21.45-17.41,38.86-38.86,38.86h-143.9c-21.45,0-38.86-17.41-38.86-38.86h0c0-21.98,17.84-39.82,39.82-39.82Z"/>
</svg>