<?xml version="1.0" encoding="UTF-8"?>
<svg id="begining_logo" data-name="begining logo" xmlns="http://www.w3.org/2000/svg" viewBox="0 0 2817.33 1452.37">
  <defs>
    <style>
      .cls-1 {
        fill: aqua;
      }

      .cls-2 {
        fill: #fff;
      }

      .cls-3 {
        fill: none;
        stroke: aqua;
        stroke-linecap: round;
        stroke-linejoin: round;
        stroke-width: 2px;
      }
    </style>
  </defs>
  <g>
    <path id="path3825" class="cls-3" d="M1300.74,635.74h249.45"/>
    <path id="path3833" class="cls-3" d="M1418.89,532.16v-12.92c0-.72.59-1.31,1.31-1.31h35.77c.72,0,1.31.59,1.31,1.31v37.47s0,7.98,0,7.98"/>
    <path id="path3837" class="cls-3" d="M1452.71,516.61v-7.71c0-.8-.65-1.45-1.45-1.45h-26.35c-.8,0-1.45.65-1.45,1.45v7.6"/>
    <path id="path3841" class="cls-3" d="M1430.25,506.27v-4.81c0-2.03,1.64-3.67,3.67-3.67h8.32c2.03,0,3.67,1.64,3.67,3.67v4.81"/>
    <path id="path3845" class="cls-3" d="M1388.65,558.28v-16.48c0-.96.66-1.8,1.59-2.02l34.22-8.32c1.31-.32,2.57.67,2.57,2.02v101.94"/>
    <path id="path3849" class="cls-3" d="M1484.31,635.43v-61.9c0-1.33-.91-2.49-2.2-2.8l-32.63-7.93c-1.81-.44-3.56.93-3.56,2.8v69.83"/>
    <path id="path3853" class="cls-3" d="M1389.33,552.01l36.95-9.24"/>
    <path id="path3857" class="cls-3" d="M1398.83,561.72l27.45-6.87"/>
    <path id="path3861" class="cls-3" d="M1399.48,573.64l26.8-6.71"/>
    <path id="path3865" class="cls-3" d="M1398.83,585.89l27.45-6.87"/>
    <path id="path3869" class="cls-3" d="M1398.83,597.98l27.45-6.87"/>
    <path id="path3873" class="cls-3" d="M1398.83,610.07l27.45-6.87"/>
    <path id="path3877" class="cls-3" d="M1399.48,621.55l26.8-6.84"/>
    <path id="path3881" class="cls-3" d="M1398.83,633.09l27.45-6.87"/>
    <path id="path3885" class="cls-3" d="M1438.09,497.17v-15.74"/>
    <path id="path3893" class="cls-3" d="M1360.45,635.43v-72.47c0-2.02,1.63-3.65,3.65-3.65h31.09c2.02,0,3.65,1.63,3.65,3.65v72.47"/>
    <path id="path3897" class="cls-3" d="M1370.04,568.55v4.09"/>
    <path id="path3901" class="cls-3" d="M1379.64,568.55v4.09"/>
    <path id="path3905" class="cls-3" d="M1389.24,568.55v4.09"/>
    <path id="path3909" class="cls-3" d="M1455.39,578.52v2.25"/>
    <path id="path3913" class="cls-3" d="M1464.99,578.52v2.25"/>
    <path id="path3917" class="cls-3" d="M1474.26,578.52v2.25"/>
    <path id="path3921" class="cls-3" d="M1455.39,589.72v2.25"/>
    <path id="path3925" class="cls-3" d="M1464.99,589.72v2.25"/>
    <path id="path3929" class="cls-3" d="M1474.26,589.72v2.25"/>
    <path id="path3933" class="cls-3" d="M1455.39,600.92v2.25"/>
    <path id="path3937" class="cls-3" d="M1464.99,600.92v2.25"/>
    <path id="path3941" class="cls-3" d="M1474.26,600.92v2.25"/>
    <path id="path3945" class="cls-3" d="M1455.39,612.12v2.25"/>
    <path id="path3949" class="cls-3" d="M1464.99,612.12v2.25"/>
    <path id="path3953" class="cls-3" d="M1474.26,612.12v2.25"/>
    <path id="path3957" class="cls-3" d="M1455.39,623.32v2.25"/>
    <path id="path3961" class="cls-3" d="M1464.99,623.32v2.25"/>
    <path id="path3965" class="cls-3" d="M1474.26,623.32v2.25"/>
    <path id="path3969" class="cls-3" d="M1370.04,582.11v4.09"/>
    <path id="path3973" class="cls-3" d="M1379.64,582.11v4.09"/>
    <path id="path3977" class="cls-3" d="M1389.24,582.11v4.09"/>
    <path id="path3981" class="cls-3" d="M1370.04,595.67v4.09"/>
    <path id="path3985" class="cls-3" d="M1379.64,595.67v4.09"/>
    <path id="path3989" class="cls-3" d="M1389.24,595.67v4.09"/>
    <path id="path3993" class="cls-3" d="M1370.04,609.23v4.09"/>
    <path id="path3997" class="cls-3" d="M1379.64,609.23v4.09"/>
    <path id="path4001" class="cls-3" d="M1389.24,609.23v4.09"/>
    <path id="path4005" class="cls-3" d="M1370.04,622.79v4.09"/>
    <path id="path4009" class="cls-3" d="M1379.64,622.79v4.09"/>
    <path id="path4013" class="cls-3" d="M1389.24,622.79v4.09"/>
    <path id="path4017" class="cls-3" d="M1445.92,564.98v-45.85"/>
    <path id="path4021" class="cls-3" d="M1436.48,635.43v-116.3"/>
    <path class="cls-3" d="M1471.74,540.55c34.69,17.62,58.45,53.64,58.45,95.21"/>
    <path class="cls-3" d="M1316.73,635.76c0-42.06,24.32-78.43,59.67-95.82"/>
  </g>
  <g>
    <path class="cls-2" d="M1014.24,774.6c-.84,0-1.49-.25-1.95-.74-.46-.5-.69-1.13-.69-1.89v-74.78c0-.84.23-1.51.69-2,.46-.5,1.11-.75,1.95-.75h26c7.86,0,14.2,1.18,19.01,3.55,4.81,2.37,8.32,5.86,10.54,10.48,2.21,4.62,3.36,10.29,3.44,17.01.08,3.44.11,6.45.11,9.05s-.04,5.57-.11,8.93c-.15,7.02-1.32,12.85-3.49,17.46-2.18,4.62-5.61,8.06-10.31,10.31-4.7,2.25-10.9,3.38-18.61,3.38h-26.57ZM1022.83,764.86h17.41c5.27,0,9.47-.72,12.6-2.18,3.13-1.45,5.4-3.78,6.81-6.99,1.41-3.21,2.16-7.44,2.23-12.71.15-2.29.23-4.29.23-6.01v-5.15c0-1.72-.08-3.68-.23-5.9-.15-7.4-1.91-12.88-5.27-16.43-3.36-3.55-9.01-5.33-16.95-5.33h-16.83v60.69Z"/>
    <path class="cls-2" d="M1090.74,703.94c-.76,0-1.39-.25-1.89-.74-.5-.5-.74-1.12-.74-1.89v-6.18c0-.76.25-1.41.74-1.95.5-.53,1.13-.8,1.89-.8h7.21c.76,0,1.41.27,1.95.8.53.54.8,1.18.8,1.95v6.18c0,.76-.27,1.39-.8,1.89-.53.5-1.18.74-1.95.74h-7.21ZM1091.66,774.6c-.76,0-1.39-.25-1.89-.74-.5-.5-.74-1.13-.74-1.89v-54.28c0-.76.25-1.39.74-1.89.5-.5,1.13-.74,1.89-.74h5.5c.76,0,1.39.25,1.89.74.5.5.74,1.13.74,1.89v54.28c0,.76-.25,1.39-.74,1.89-.5.5-1.13.74-1.89.74h-5.5Z"/>
    <path class="cls-2" d="M1141.13,799.79c-5.19,0-9.45-.69-12.77-2.06-3.32-1.38-5.92-3.04-7.79-4.98-1.87-1.95-3.21-3.89-4.01-5.84-.8-1.95-1.24-3.49-1.32-4.64-.08-.76.17-1.41.74-1.95.57-.54,1.2-.8,1.89-.8h5.5c.69,0,1.26.15,1.72.46.46.3.84.95,1.15,1.95.46,1.15,1.15,2.42,2.06,3.84.92,1.41,2.33,2.63,4.24,3.67,1.91,1.03,4.58,1.55,8.02,1.55s6.6-.5,9.05-1.49c2.44-.99,4.29-2.67,5.55-5.04,1.26-2.37,1.89-5.65,1.89-9.85v-7.79c-1.83,2.37-4.24,4.33-7.21,5.9-2.98,1.57-6.72,2.35-11.22,2.35s-7.94-.74-10.99-2.23c-3.05-1.49-5.55-3.51-7.5-6.07-1.95-2.56-3.4-5.48-4.35-8.76-.96-3.28-1.51-6.72-1.66-10.31-.08-2.14-.08-4.24,0-6.3.15-3.59.71-7.02,1.66-10.31.95-3.28,2.41-6.22,4.35-8.82,1.95-2.59,4.45-4.64,7.5-6.13,3.05-1.49,6.72-2.23,10.99-2.23,4.58,0,8.38.84,11.39,2.52,3.01,1.68,5.48,3.78,7.39,6.3v-4.92c0-.76.25-1.41.74-1.95.5-.53,1.13-.8,1.89-.8h5.27c.76,0,1.41.27,1.95.8.53.54.8,1.18.8,1.95v55.54c0,5.11-.86,9.66-2.58,13.63-1.72,3.97-4.54,7.1-8.47,9.39-3.93,2.29-9.22,3.44-15.86,3.44ZM1140.9,765.89c3.82,0,6.89-.88,9.22-2.63,2.33-1.76,4.05-3.97,5.15-6.64,1.11-2.67,1.7-5.38,1.77-8.13.08-1.07.11-2.39.11-3.95s-.04-2.88-.11-3.95c-.08-2.75-.67-5.46-1.77-8.13-1.11-2.67-2.83-4.88-5.15-6.64-2.33-1.75-5.4-2.63-9.22-2.63s-6.87.86-9.16,2.58c-2.29,1.72-3.93,3.97-4.92,6.76-.99,2.79-1.57,5.78-1.72,8.99-.08,1.99-.08,4.01,0,6.07.15,3.21.72,6.2,1.72,8.99.99,2.79,2.63,5.04,4.92,6.76,2.29,1.72,5.34,2.58,9.16,2.58Z"/>
    <path class="cls-2" d="M1186.82,703.94c-.76,0-1.39-.25-1.89-.74-.5-.5-.74-1.12-.74-1.89v-6.18c0-.76.25-1.41.74-1.95.5-.53,1.13-.8,1.89-.8h7.21c.76,0,1.41.27,1.95.8.53.54.8,1.18.8,1.95v6.18c0,.76-.27,1.39-.8,1.89-.53.5-1.18.74-1.95.74h-7.21ZM1187.73,774.6c-.76,0-1.39-.25-1.89-.74-.5-.5-.74-1.13-.74-1.89v-54.28c0-.76.25-1.39.74-1.89.5-.5,1.13-.74,1.89-.74h5.5c.76,0,1.39.25,1.89.74.5.5.74,1.13.74,1.89v54.28c0,.76-.25,1.39-.74,1.89-.5.5-1.13.74-1.89.74h-5.5Z"/>
    <path class="cls-2" d="M1236.06,774.6c-4.28,0-7.75-.82-10.42-2.46-2.67-1.64-4.62-3.97-5.84-6.99-1.22-3.02-1.83-6.58-1.83-10.71v-30.23h-8.93c-.76,0-1.39-.25-1.89-.74-.5-.5-.74-1.12-.74-1.89v-3.89c0-.76.25-1.39.74-1.89.5-.5,1.13-.74,1.89-.74h8.93v-19.12c0-.76.25-1.39.74-1.89.5-.5,1.13-.74,1.89-.74h5.38c.76,0,1.39.25,1.89.74.5.5.74,1.13.74,1.89v19.12h14.2c.84,0,1.49.25,1.95.74.46.5.69,1.13.69,1.89v3.89c0,.76-.23,1.39-.69,1.89-.46.5-1.11.74-1.95.74h-14.2v29.43c0,3.59.61,6.41,1.83,8.47,1.22,2.06,3.4,3.09,6.53,3.09h6.99c.76,0,1.39.25,1.89.74.5.5.74,1.13.74,1.89v4.12c0,.76-.25,1.39-.74,1.89-.5.5-1.13.74-1.89.74h-7.9Z"/>
    <path class="cls-2" d="M1274.19,775.74c-3.82,0-7.29-.76-10.42-2.29-3.13-1.53-5.65-3.59-7.56-6.18-1.91-2.59-2.86-5.53-2.86-8.82,0-5.27,2.14-9.47,6.41-12.6,4.27-3.13,9.85-5.19,16.72-6.18l17.06-2.4v-3.32c0-3.67-1.05-6.53-3.15-8.59-2.1-2.06-5.52-3.09-10.25-3.09-3.36,0-6.11.69-8.25,2.06-2.14,1.37-3.63,3.13-4.47,5.27-.46,1.14-1.26,1.72-2.41,1.72h-5.15c-.84,0-1.47-.25-1.89-.74-.42-.5-.63-1.09-.63-1.78,0-1.15.44-2.56,1.32-4.24.88-1.68,2.23-3.32,4.07-4.92,1.83-1.6,4.18-2.96,7.04-4.07,2.86-1.11,6.36-1.66,10.48-1.66,4.58,0,8.43.59,11.57,1.78,3.13,1.18,5.59,2.77,7.39,4.75,1.79,1.99,3.09,4.24,3.89,6.76.8,2.52,1.2,5.08,1.2,7.67v37.1c0,.76-.25,1.39-.74,1.89-.5.5-1.13.74-1.89.74h-5.27c-.84,0-1.49-.25-1.95-.74-.46-.5-.69-1.13-.69-1.89v-4.92c-.99,1.38-2.33,2.73-4.01,4.07-1.68,1.34-3.78,2.44-6.3,3.32-2.52.88-5.61,1.32-9.28,1.32ZM1276.6,767.15c3.13,0,5.99-.67,8.59-2,2.59-1.33,4.64-3.42,6.13-6.24,1.49-2.82,2.23-6.37,2.23-10.65v-3.21l-13.28,1.95c-5.42.76-9.5,2.04-12.25,3.84-2.75,1.79-4.12,4.07-4.12,6.81,0,2.14.63,3.91,1.89,5.33,1.26,1.41,2.86,2.46,4.81,3.15,1.95.69,3.95,1.03,6.01,1.03Z"/>
    <path class="cls-2" d="M1323.55,774.6c-.76,0-1.39-.25-1.89-.74-.5-.5-.74-1.13-.74-1.89v-76.04c0-.76.25-1.39.74-1.89.5-.5,1.13-.74,1.89-.74h5.38c.84,0,1.49.25,1.95.74.46.5.69,1.13.69,1.89v76.04c0,.76-.23,1.39-.69,1.89-.46.5-1.11.74-1.95.74h-5.38Z"/>
    <path class="cls-2" d="M1395.46,774.6c-.76,0-1.39-.25-1.89-.74-.5-.5-.74-1.13-.74-1.89v-67.34h-21.99c-.76,0-1.39-.25-1.89-.74-.5-.5-.74-1.13-.74-1.89v-4.81c0-.84.25-1.51.74-2,.5-.5,1.13-.75,1.89-.75h55.2c.84,0,1.51.25,2,.75.5.5.74,1.16.74,2v4.81c0,.76-.25,1.39-.74,1.89-.5.5-1.16.74-2,.74h-21.87v67.34c0,.76-.25,1.39-.74,1.89-.5.5-1.16.74-2,.74h-5.95Z"/>
    <path class="cls-2" d="M1447.57,774.6c-.99,0-1.76-.25-2.29-.74-.54-.5-.99-1.2-1.37-2.12l-16.26-53.14c-.15-.38-.23-.76-.23-1.14,0-.69.25-1.26.74-1.72.5-.46,1.05-.69,1.66-.69h5.04c.84,0,1.49.23,1.95.69s.76.88.92,1.26l12.71,43.17,13.63-42.71c.15-.53.48-1.07.97-1.6.5-.53,1.24-.8,2.23-.8h3.89c.99,0,1.76.27,2.29.8.53.54.84,1.07.92,1.6l13.63,42.71,12.71-43.17c.08-.38.34-.8.8-1.26.46-.46,1.11-.69,1.95-.69h5.15c.61,0,1.15.23,1.6.69.46.46.69,1.03.69,1.72,0,.38-.08.76-.23,1.14l-16.15,53.14c-.31.92-.73,1.62-1.26,2.12-.53.5-1.37.74-2.52.74h-4.47c-.99,0-1.81-.25-2.46-.74-.65-.5-1.09-1.2-1.32-2.12l-13.28-41-13.28,41c-.31.92-.76,1.62-1.37,2.12-.61.5-1.45.74-2.52.74h-4.47Z"/>
    <path class="cls-2" d="M1525.32,703.94c-.76,0-1.39-.25-1.89-.74-.5-.5-.74-1.12-.74-1.89v-6.18c0-.76.25-1.41.74-1.95.5-.53,1.13-.8,1.89-.8h7.21c.76,0,1.41.27,1.95.8.53.54.8,1.18.8,1.95v6.18c0,.76-.27,1.39-.8,1.89-.53.5-1.18.74-1.95.74h-7.21ZM1526.24,774.6c-.76,0-1.39-.25-1.89-.74-.5-.5-.74-1.13-.74-1.89v-54.28c0-.76.25-1.39.74-1.89.5-.5,1.13-.74,1.89-.74h5.5c.76,0,1.39.25,1.89.74.5.5.74,1.13.74,1.89v54.28c0,.76-.25,1.39-.74,1.89-.5.5-1.13.74-1.89.74h-5.5Z"/>
    <path class="cls-2" d="M1553.95,774.6c-.76,0-1.39-.25-1.89-.74-.5-.5-.74-1.13-.74-1.89v-54.28c0-.76.25-1.39.74-1.89.5-.5,1.13-.74,1.89-.74h5.38c.76,0,1.39.25,1.89.74.5.5.74,1.13.74,1.89v5.04c1.98-2.59,4.48-4.71,7.5-6.36,3.01-1.64,6.89-2.46,11.62-2.46s9.18,1.09,12.65,3.26c3.47,2.18,6.11,5.19,7.9,9.05,1.79,3.86,2.69,8.34,2.69,13.46v32.29c0,.76-.25,1.39-.74,1.89-.5.5-1.13.74-1.89.74h-5.73c-.76,0-1.39-.25-1.89-.74-.5-.5-.74-1.13-.74-1.89v-31.72c0-5.34-1.3-9.52-3.89-12.54-2.6-3.01-6.41-4.52-11.45-4.52-4.73,0-8.53,1.51-11.39,4.52-2.86,3.02-4.29,7.2-4.29,12.54v31.72c0,.76-.25,1.39-.74,1.89-.5.5-1.13.74-1.89.74h-5.73Z"/>
    <path class="cls-2" d="M1679.12,775.74c-7.02,0-12.85-1.3-17.46-3.89-4.62-2.59-8.11-6.22-10.48-10.88-2.37-4.66-3.66-10.08-3.89-16.26-.08-3.13-.11-6.49-.11-10.08s.04-7.02.11-10.31c.23-6.18,1.53-11.6,3.89-16.26,2.37-4.66,5.86-8.28,10.48-10.88,4.62-2.59,10.44-3.89,17.46-3.89,5.27,0,9.89.73,13.86,2.18,3.97,1.45,7.27,3.4,9.91,5.84,2.63,2.44,4.64,5.17,6.01,8.19,1.37,3.02,2.14,6.13,2.29,9.33.08.69-.13,1.26-.63,1.72-.5.46-1.09.69-1.77.69h-6.3c-.69,0-1.28-.19-1.77-.57-.5-.38-.86-1.07-1.09-2.06-1.3-5.95-3.72-10.04-7.27-12.25-3.55-2.21-7.96-3.32-13.23-3.32-6.18,0-11.07,1.74-14.66,5.21-3.59,3.47-5.5,9.03-5.73,16.66-.23,6.26-.23,12.67,0,19.24.23,7.64,2.14,13.19,5.73,16.66,3.59,3.47,8.47,5.21,14.66,5.21,5.27,0,9.68-1.11,13.23-3.32,3.55-2.21,5.97-6.3,7.27-12.25.23-.99.59-1.68,1.09-2.06.5-.38,1.09-.57,1.77-.57h6.3c.69,0,1.28.21,1.77.63.5.42.71.97.63,1.66-.15,3.21-.92,6.34-2.29,9.39-1.37,3.05-3.38,5.8-6.01,8.25-2.63,2.44-5.94,4.39-9.91,5.84-3.97,1.45-8.59,2.18-13.86,2.18Z"/>
    <path class="cls-2" d="M1726.75,703.94c-.76,0-1.39-.25-1.89-.74-.5-.5-.74-1.12-.74-1.89v-6.18c0-.76.25-1.41.74-1.95.5-.53,1.13-.8,1.89-.8h7.21c.76,0,1.41.27,1.95.8.53.54.8,1.18.8,1.95v6.18c0,.76-.27,1.39-.8,1.89-.54.5-1.18.74-1.95.74h-7.21ZM1727.67,774.6c-.76,0-1.39-.25-1.89-.74-.5-.5-.74-1.13-.74-1.89v-54.28c0-.76.25-1.39.74-1.89.5-.5,1.13-.74,1.89-.74h5.5c.76,0,1.39.25,1.89.74.5.5.74,1.13.74,1.89v54.28c0,.76-.25,1.39-.74,1.89-.5.5-1.13.74-1.89.74h-5.5Z"/>
    <path class="cls-2" d="M1775.99,774.6c-4.28,0-7.75-.82-10.42-2.46-2.67-1.64-4.62-3.97-5.84-6.99-1.22-3.02-1.83-6.58-1.83-10.71v-30.23h-8.93c-.76,0-1.39-.25-1.89-.74-.5-.5-.74-1.12-.74-1.89v-3.89c0-.76.25-1.39.74-1.89.5-.5,1.13-.74,1.89-.74h8.93v-19.12c0-.76.25-1.39.74-1.89.5-.5,1.13-.74,1.89-.74h5.38c.76,0,1.39.25,1.89.74.5.5.74,1.13.74,1.89v19.12h14.2c.84,0,1.49.25,1.95.74.46.5.69,1.13.69,1.89v3.89c0,.76-.23,1.39-.69,1.89-.46.5-1.11.74-1.95.74h-14.2v29.43c0,3.59.61,6.41,1.83,8.47,1.22,2.06,3.4,3.09,6.53,3.09h6.99c.76,0,1.39.25,1.89.74.5.5.74,1.13.74,1.89v4.12c0,.76-.25,1.39-.74,1.89-.5.5-1.13.74-1.89.74h-7.9Z"/>
    <path class="cls-2" d="M1807.94,796.35c-.61,0-1.15-.23-1.6-.69s-.69-.99-.69-1.6c0-.31.04-.61.11-.92.08-.31.23-.69.46-1.15l8.82-20.96-21.87-51.65c-.38-.92-.57-1.56-.57-1.95,0-.69.23-1.26.69-1.72s1.03-.69,1.72-.69h5.61c.84,0,1.47.19,1.89.57.42.38.71.84.86,1.38l17.41,41.68,17.86-41.68c.23-.53.55-.99.97-1.38.42-.38,1.05-.57,1.89-.57h5.38c.69,0,1.26.23,1.72.69s.69.99.69,1.6c0,.38-.19,1.07-.57,2.06l-32.52,75.01c-.23.53-.55.99-.97,1.37-.42.38-1.05.57-1.89.57h-5.38Z"/>
  </g>
  <g>
    <path class="cls-1" d="M1206.21,401.31c-1.26,0-2.33-.23-3.23-.7-.89-.47-1.58-1.18-2.06-2.14s-.72-2.2-.72-3.71v-9.46c0-.17.05-.3.14-.4.09-.09.22-.14.37-.14h.42c.17,0,.3.05.4.14.09.09.14.23.14.4v9.53c0,1.74.41,3.02,1.22,3.85.82.82,1.92,1.24,3.32,1.24s2.48-.41,3.3-1.24c.82-.82,1.22-2.11,1.22-3.85v-9.53c0-.17.05-.3.15-.4.1-.09.23-.14.38-.14h.42c.16,0,.28.05.37.14.09.09.14.23.14.4v9.46c0,1.51-.24,2.74-.71,3.71-.47.96-1.15,1.68-2.04,2.14-.89.47-1.97.7-3.24.7Z"/>
    <path class="cls-1" d="M1222.08,401.08c-.16,0-.28-.05-.37-.14-.09-.09-.14-.22-.14-.37v-15.27c0-.17.05-.3.14-.4.09-.09.22-.14.37-.14h5.43c1.63,0,2.93.39,3.9,1.17.97.78,1.46,1.96,1.46,3.54,0,1.24-.31,2.24-.93,2.98-.62.75-1.48,1.25-2.59,1.52l3.75,6.39c.05.09.07.18.07.26,0,.12-.05.23-.14.33-.09.09-.2.14-.33.14h-.28c-.25,0-.44-.07-.56-.2-.12-.13-.23-.28-.33-.43l-3.71-6.27h-4.8v6.39c0,.16-.05.28-.14.37-.09.09-.23.14-.4.14h-.42ZM1223.04,392.78h4.36c1.35,0,2.36-.28,3.02-.83.66-.55.99-1.38.99-2.48s-.33-1.93-.99-2.48c-.66-.55-1.67-.83-3.02-.83h-4.36v6.62Z"/>
    <path class="cls-1" d="M1242.13,401.08c-.16,0-.28-.05-.37-.14-.09-.09-.14-.22-.14-.37v-15.27c0-.17.05-.3.14-.4.09-.09.22-.14.37-.14h6.08c1.09,0,1.98.19,2.67.58.69.39,1.2.9,1.53,1.53.33.63.49,1.32.49,2.06,0,.67-.1,1.24-.31,1.71-.21.47-.47.86-.79,1.15-.32.29-.63.52-.94.68.62.31,1.17.81,1.66,1.49.48.68.72,1.51.72,2.49,0,.78-.18,1.52-.55,2.23-.37.71-.91,1.28-1.63,1.73-.72.44-1.61.66-2.67.66h-6.25ZM1243.08,391.85h4.83c1.15,0,2.02-.26,2.62-.77.6-.51.9-1.23.9-2.14s-.3-1.61-.9-2.08c-.6-.47-1.47-.7-2.62-.7h-4.83v5.69ZM1243.08,399.68h5.06c1.15,0,2.04-.3,2.67-.91.63-.61.94-1.38.94-2.31s-.31-1.72-.94-2.32c-.63-.6-1.52-.9-2.67-.9h-5.06v6.43Z"/>
    <path class="cls-1" d="M1260.64,401.08c-.12,0-.23-.05-.33-.14-.09-.09-.14-.2-.14-.33,0-.08.02-.16.05-.26l5.9-15.13c.06-.16.14-.27.24-.35.1-.08.24-.12.43-.12h.79c.19,0,.33.04.43.12.1.08.18.19.24.35l5.9,15.13c.03.09.05.18.05.26,0,.12-.05.23-.14.33-.09.09-.2.14-.33.14h-.47c-.16,0-.27-.04-.35-.13-.08-.09-.13-.16-.16-.22l-1.45-3.73h-8.25l-1.45,3.73c-.02.06-.07.14-.15.22-.09.08-.21.13-.36.13h-.47ZM1263.62,395.6h7.13l-3.57-9.18-3.57,9.18Z"/>
    <path class="cls-1" d="M1282.59,401.08c-.16,0-.28-.05-.37-.14-.09-.09-.14-.22-.14-.37v-15.27c0-.17.05-.3.14-.4.09-.09.22-.14.37-.14h.49c.16,0,.27.04.35.12.08.08.12.13.14.16l8.6,13.15v-12.89c0-.17.05-.3.14-.4.09-.09.22-.14.37-.14h.42c.17,0,.3.05.4.14.09.09.14.23.14.4v15.25c0,.16-.05.28-.14.38-.09.1-.22.15-.37.15h-.51c-.16,0-.27-.04-.34-.12-.07-.08-.12-.13-.15-.16l-8.58-13.1v12.87c0,.16-.05.28-.14.37-.09.09-.23.14-.4.14h-.42Z"/>
    <path class="cls-1" d="M1314.81,401.08c-.16,0-.28-.05-.37-.14-.09-.09-.14-.22-.14-.37v-15.27c0-.17.05-.3.14-.4.09-.09.22-.14.37-.14h5.66c1.09,0,2.03.18,2.83.55.8.37,1.42.91,1.86,1.62s.66,1.6.66,2.66-.22,1.94-.66,2.66-1.06,1.25-1.86,1.62c-.8.37-1.74.55-2.83.55h-4.71v6.15c0,.16-.05.28-.14.37-.09.09-.23.14-.4.14h-.42ZM1315.77,393.01h4.59c1.35,0,2.36-.29,3.02-.89.66-.59.99-1.44.99-2.54s-.33-1.95-.99-2.54c-.66-.59-1.67-.89-3.02-.89h-4.59v6.85Z"/>
    <path class="cls-1" d="M1334.58,401.08c-.16,0-.28-.05-.37-.14-.09-.09-.14-.22-.14-.37v-15.29c0-.16.05-.28.14-.37.09-.09.22-.14.37-.14h.44c.16,0,.28.05.37.14.09.09.14.22.14.37v14.41h8.04c.17,0,.3.05.4.14.09.09.14.23.14.4v.35c0,.16-.05.28-.14.37-.09.09-.23.14-.4.14h-9Z"/>
    <path class="cls-1" d="M1350.8,401.08c-.12,0-.23-.05-.33-.14-.09-.09-.14-.2-.14-.33,0-.08.02-.16.05-.26l5.9-15.13c.06-.16.14-.27.24-.35.1-.08.24-.12.43-.12h.79c.19,0,.33.04.43.12.1.08.18.19.24.35l5.9,15.13c.03.09.05.18.05.26,0,.12-.05.23-.14.33-.09.09-.2.14-.33.14h-.47c-.16,0-.27-.04-.35-.13-.08-.09-.13-.16-.16-.22l-1.45-3.73h-8.25l-1.45,3.73c-.02.06-.07.14-.15.22-.09.08-.21.13-.36.13h-.47ZM1353.79,395.6h7.13l-3.57-9.18-3.57,9.18Z"/>
    <path class="cls-1" d="M1372.76,401.08c-.16,0-.28-.05-.37-.14-.09-.09-.14-.22-.14-.37v-15.27c0-.17.05-.3.14-.4.09-.09.22-.14.37-.14h.49c.16,0,.27.04.35.12.08.08.12.13.14.16l8.6,13.15v-12.89c0-.17.05-.3.14-.4.09-.09.22-.14.37-.14h.42c.17,0,.3.05.4.14.09.09.14.23.14.4v15.25c0,.16-.05.28-.14.38-.09.1-.22.15-.37.15h-.51c-.16,0-.27-.04-.34-.12-.07-.08-.12-.13-.15-.16l-8.58-13.1v12.87c0,.16-.05.28-.14.37-.09.09-.23.14-.4.14h-.42Z"/>
    <path class="cls-1" d="M1393.83,401.08c-.16,0-.28-.05-.37-.14-.09-.09-.14-.22-.14-.37v-15.27c0-.17.05-.3.14-.4.09-.09.22-.14.37-.14h.49c.16,0,.27.04.35.12.08.08.12.13.14.16l8.6,13.15v-12.89c0-.17.05-.3.14-.4.09-.09.22-.14.37-.14h.42c.17,0,.3.05.4.14.09.09.14.23.14.4v15.25c0,.16-.05.28-.14.38-.09.1-.22.15-.37.15h-.51c-.16,0-.27-.04-.34-.12-.07-.08-.12-.13-.15-.16l-8.58-13.1v12.87c0,.16-.05.28-.14.37-.09.09-.23.14-.4.14h-.42Z"/>
    <path class="cls-1" d="M1414.91,401.08c-.16,0-.28-.05-.37-.14-.09-.09-.14-.22-.14-.37v-15.29c0-.16.05-.28.14-.37.09-.09.22-.14.37-.14h.44c.16,0,.28.05.37.14.09.09.14.22.14.37v15.29c0,.16-.05.28-.14.37-.09.09-.22.14-.37.14h-.44Z"/>
    <path class="cls-1" d="M1425.88,401.08c-.16,0-.28-.05-.37-.14-.09-.09-.14-.22-.14-.37v-15.27c0-.17.05-.3.14-.4.09-.09.22-.14.37-.14h.49c.16,0,.27.04.35.12.08.08.12.13.14.16l8.6,13.15v-12.89c0-.17.05-.3.14-.4.09-.09.22-.14.37-.14h.42c.17,0,.3.05.4.14.09.09.14.23.14.4v15.25c0,.16-.05.28-.14.38-.09.1-.22.15-.37.15h-.51c-.16,0-.27-.04-.34-.12-.07-.08-.12-.13-.15-.16l-8.58-13.1v12.87c0,.16-.05.28-.14.37-.09.09-.23.14-.4.14h-.42Z"/>
    <path class="cls-1" d="M1452.04,401.31c-1.34,0-2.46-.26-3.37-.78-.91-.52-1.6-1.25-2.07-2.18-.47-.93-.73-2-.78-3.22-.02-.7-.02-1.44-.02-2.21s0-1.51.02-2.21c.05-1.23.31-2.3.78-3.23.47-.92,1.17-1.65,2.09-2.17.92-.52,2.04-.78,3.36-.78,1.07,0,1.99.16,2.75.48.76.32,1.38.72,1.86,1.19.48.47.84.95,1.07,1.43s.36.89.37,1.21c.02.14-.02.25-.12.34-.09.09-.22.13-.37.13h-.51c-.14,0-.24-.04-.3-.11-.06-.07-.12-.19-.19-.36-.16-.48-.42-.94-.78-1.39-.37-.44-.85-.81-1.47-1.1-.61-.29-1.39-.43-2.32-.43-1.38,0-2.51.38-3.37,1.13-.86.75-1.33,2.01-1.39,3.76-.05,1.4-.05,2.8,0,4.2.06,1.74.52,2.99,1.39,3.75.86.76,1.98,1.14,3.37,1.14.92,0,1.74-.17,2.47-.52.73-.35,1.31-.89,1.72-1.61s.63-1.64.63-2.76v-1.19h-4.06c-.16,0-.28-.05-.37-.15-.09-.1-.14-.23-.14-.38v-.33c0-.17.05-.3.14-.4.09-.09.22-.14.37-.14h4.99c.17,0,.3.05.4.14.09.09.14.23.14.4v2.05c0,1.24-.24,2.34-.73,3.29-.49.95-1.2,1.69-2.14,2.21-.94.53-2.08.79-3.42.79Z"/>
    <path class="cls-1" d="M1483.09,401.31c-1.26,0-2.33-.2-3.21-.61-.88-.4-1.55-.92-2.02-1.56-.47-.64-.71-1.31-.75-2.03,0-.12.05-.23.14-.33.09-.09.21-.14.35-.14h.47c.16,0,.28.05.36.14.09.09.14.2.15.33.06.44.26.87.58,1.29.33.43.81.79,1.45,1.07.64.29,1.46.43,2.47.43,1.52,0,2.63-.28,3.33-.83.7-.55,1.05-1.29,1.05-2.23,0-.62-.18-1.12-.55-1.5-.37-.38-.92-.72-1.67-1.03-.75-.3-1.7-.64-2.87-1.01-1.1-.36-2.01-.73-2.73-1.11-.71-.38-1.24-.84-1.57-1.39-.33-.54-.5-1.24-.5-2.1,0-.79.21-1.5.63-2.13.42-.63,1.03-1.13,1.83-1.5.8-.37,1.78-.56,2.93-.56.92,0,1.72.12,2.4.37.68.25,1.25.58,1.7.99.45.41.79.85,1.03,1.33.23.47.36.94.37,1.39,0,.11-.04.21-.12.32-.08.1-.2.15-.37.15h-.47c-.08,0-.18-.03-.29-.09-.12-.06-.19-.19-.22-.37-.09-.78-.5-1.42-1.22-1.92s-1.66-.76-2.81-.76-2.09.23-2.82.68c-.73.45-1.1,1.16-1.1,2.12,0,.62.16,1.13.49,1.53s.84.75,1.54,1.05c.7.3,1.6.63,2.7.99,1.17.37,2.13.75,2.89,1.12.76.37,1.33.83,1.7,1.36.37.54.56,1.23.56,2.09,0,.95-.24,1.75-.71,2.41-.47.66-1.15,1.17-2.02,1.52-.87.35-1.91.52-3.12.52Z"/>
    <path class="cls-1" d="M1497.94,401.08c-.16,0-.28-.05-.37-.14-.09-.09-.14-.22-.14-.37v-15.29c0-.16.05-.28.14-.37.09-.09.22-.14.37-.14h.44c.16,0,.28.05.37.14.09.09.14.22.14.37v15.29c0,.16-.05.28-.14.37-.09.09-.22.14-.37.14h-.44Z"/>
    <path class="cls-1" d="M1508.94,401.08c-.16,0-.28-.05-.38-.14-.1-.09-.15-.22-.15-.37v-15.27c0-.17.05-.3.15-.4.1-.09.23-.14.38-.14h.58c.16,0,.27.04.35.12.08.08.12.14.14.19l5.29,10.3,5.31-10.3s.08-.11.15-.19c.07-.08.18-.12.34-.12h.56c.17,0,.3.05.4.14.09.09.14.23.14.4v15.27c0,.16-.05.28-.14.37-.09.09-.23.14-.4.14h-.42c-.16,0-.28-.05-.37-.14-.09-.09-.14-.22-.14-.37v-12.63l-4.45,8.76c-.06.16-.15.27-.27.35-.12.08-.27.12-.45.12h-.51c-.19,0-.33-.04-.44-.12-.11-.08-.2-.19-.28-.35l-4.45-8.76v12.63c0,.16-.05.28-.14.37-.09.09-.22.14-.37.14h-.42Z"/>
    <path class="cls-1" d="M1537.59,401.31c-1.26,0-2.33-.23-3.23-.7-.89-.47-1.58-1.18-2.06-2.14s-.72-2.2-.72-3.71v-9.46c0-.17.05-.3.14-.4.09-.09.22-.14.37-.14h.42c.17,0,.3.05.4.14.09.09.14.23.14.4v9.53c0,1.74.41,3.02,1.22,3.85.82.82,1.92,1.24,3.32,1.24s2.48-.41,3.3-1.24c.82-.82,1.22-2.11,1.22-3.85v-9.53c0-.17.05-.3.15-.4.1-.09.23-.14.38-.14h.42c.16,0,.28.05.37.14.09.09.14.23.14.4v9.46c0,1.51-.24,2.74-.71,3.71-.47.96-1.15,1.68-2.04,2.14-.89.47-1.97.7-3.24.7Z"/>
    <path class="cls-1" d="M1553.46,401.08c-.16,0-.28-.05-.37-.14-.09-.09-.14-.22-.14-.37v-15.29c0-.16.05-.28.14-.37.09-.09.22-.14.37-.14h.44c.16,0,.28.05.37.14.09.09.14.22.14.37v14.41h8.04c.17,0,.3.05.4.14.09.09.14.23.14.4v.35c0,.16-.05.28-.14.37-.09.09-.23.14-.4.14h-9Z"/>
    <path class="cls-1" d="M1569.69,401.08c-.12,0-.23-.05-.33-.14-.09-.09-.14-.2-.14-.33,0-.08.02-.16.05-.26l5.9-15.13c.06-.16.14-.27.24-.35.1-.08.24-.12.43-.12h.79c.19,0,.33.04.43.12.1.08.18.19.24.35l5.9,15.13c.03.09.05.18.05.26,0,.12-.05.23-.14.33-.09.09-.2.14-.33.14h-.47c-.16,0-.27-.04-.35-.13-.08-.09-.13-.16-.16-.22l-1.45-3.73h-8.25l-1.45,3.73c-.02.06-.07.14-.15.22-.09.08-.21.13-.36.13h-.47ZM1572.67,395.6h7.13l-3.57-9.18-3.57,9.18Z"/>
    <path class="cls-1" d="M1593.46,401.08c-.16,0-.28-.05-.37-.14-.09-.09-.14-.22-.14-.37v-14.41h-4.62c-.16,0-.28-.05-.37-.14-.09-.09-.14-.22-.14-.37v-.35c0-.17.05-.3.14-.4.09-.09.22-.14.37-.14h10.68c.17,0,.3.05.4.14.09.09.14.23.14.4v.35c0,.16-.05.28-.14.37-.09.09-.23.14-.4.14h-4.59v14.41c0,.16-.05.28-.14.37-.09.09-.23.14-.4.14h-.42Z"/>
    <path class="cls-1" d="M1608.01,401.08c-.16,0-.28-.05-.37-.14-.09-.09-.14-.22-.14-.37v-15.29c0-.16.05-.28.14-.37.09-.09.22-.14.37-.14h.44c.16,0,.28.05.37.14.09.09.14.22.14.37v15.29c0,.16-.05.28-.14.37-.09.09-.22.14-.37.14h-.44Z"/>
    <path class="cls-1" d="M1624,401.31c-1.29,0-2.39-.23-3.29-.69-.9-.46-1.59-1.17-2.07-2.12-.48-.96-.75-2.16-.79-3.62-.02-.7-.02-1.35-.02-1.96s0-1.26.02-1.96c.05-1.45.33-2.65.84-3.6.51-.96,1.22-1.67,2.13-2.13.91-.47,1.97-.7,3.18-.7s2.27.23,3.18.7c.91.47,1.62,1.18,2.14,2.13.52.96.8,2.16.83,3.6.03.7.05,1.35.05,1.96s-.02,1.26-.05,1.96c-.03,1.46-.29,2.67-.78,3.62-.49.96-1.19,1.66-2.09,2.12-.9.46-2,.69-3.29.69ZM1624,399.91c1.34,0,2.44-.4,3.3-1.21.86-.81,1.32-2.12,1.39-3.94.03-.7.05-1.31.05-1.84s-.02-1.14-.05-1.84c-.03-1.21-.25-2.2-.66-2.96-.41-.76-.96-1.32-1.66-1.67-.69-.35-1.48-.52-2.37-.52s-1.65.17-2.34.52c-.69.35-1.24.91-1.66,1.67-.41.76-.64,1.75-.69,2.96-.02.7-.02,1.31-.02,1.84s0,1.14.02,1.84c.06,1.82.53,3.13,1.4,3.94.87.81,1.97,1.21,3.29,1.21Z"/>
    <path class="cls-1" d="M1639.55,401.08c-.16,0-.28-.05-.37-.14-.09-.09-.14-.22-.14-.37v-15.27c0-.17.05-.3.14-.4.09-.09.22-.14.37-.14h.49c.16,0,.27.04.35.12.08.08.12.13.14.16l8.6,13.15v-12.89c0-.17.05-.3.14-.4.09-.09.22-.14.37-.14h.42c.17,0,.3.05.4.14.09.09.14.23.14.4v15.25c0,.16-.05.28-.14.38-.09.1-.22.15-.37.15h-.51c-.16,0-.27-.04-.34-.12-.07-.08-.12-.13-.15-.16l-8.58-13.1v12.87c0,.16-.05.28-.14.37-.09.09-.23.14-.4.14h-.42Z"/>
  </g>
  <g>
    <path class="cls-1" d="M1222.19,873.96c-.22,0-.4-.07-.54-.2-.13-.13-.2-.31-.2-.54v-3.96h-16.78c-.22,0-.4-.07-.54-.22s-.2-.33-.2-.55v-21.99c0-.22.07-.4.2-.54.13-.13.31-.2.54-.2h.6c.25,0,.44.07.57.2.13.13.2.31.2.54v20.74h12.96v-20.74c0-.22.07-.4.2-.54.13-.13.31-.2.54-.2h.6c.25,0,.44.07.57.2.13.13.2.31.2.54v20.74h1.68c.25,0,.44.07.57.2.13.13.2.31.2.54v5.24c0,.22-.07.4-.2.54-.13.13-.32.2-.57.2h-.6Z"/>
    <path class="cls-1" d="M1236.02,869.26c-.22,0-.4-.07-.54-.22s-.2-.33-.2-.55v-21.95c0-.25.07-.44.22-.57.15-.13.33-.2.55-.2h.6c.22,0,.4.07.54.2.13.13.2.32.2.57v19.03l13.8-19.4s.12-.12.22-.23c.1-.11.26-.17.49-.17h.7c.22,0,.4.07.54.2.13.13.2.32.2.57v21.99c0,.22-.07.4-.2.54-.13.13-.31.2-.54.2h-.6c-.22,0-.41-.07-.55-.2-.15-.13-.22-.31-.22-.54v-19l-13.76,19.33s-.09.12-.2.23c-.11.11-.28.17-.5.17h-.74Z"/>
    <path class="cls-1" d="M1277.41,870.34c-.22,0-.4-.07-.54-.2-.13-.13-.2-.31-.2-.54v-2.82c-3.31,0-5.82-.7-7.52-2.11-1.7-1.41-2.71-3.57-3.02-6.48-.02-.27-.03-.53-.03-.77s0-.49.02-.74c.01-.25.02-.5.02-.77.11-1.95.6-3.55,1.48-4.82s2.08-2.21,3.63-2.84c1.54-.63,3.36-.94,5.44-.94v-2.48c0-.22.07-.4.2-.54.13-.13.31-.2.54-.2h.64c.22,0,.4.07.54.2.13.13.2.31.2.54v2.48c2.08,0,3.89.31,5.44.94,1.54.63,2.76,1.57,3.64,2.84.88,1.26,1.37,2.87,1.46,4.82.02.4.04.78.05,1.14.01.36,0,.74-.05,1.14-.27,2.91-1.26,5.07-2.97,6.48-1.71,1.41-4.24,2.11-7.57,2.11v2.82c0,.22-.07.4-.2.54-.13.13-.31.2-.54.2h-.64ZM1276.67,864.77v-15.44c-2.53,0-4.51.53-5.94,1.58-1.43,1.05-2.26,2.77-2.48,5.17-.02.36-.03.68-.03.96s.01.61.03.99c.13,2.37.93,4.09,2.4,5.15,1.47,1.06,3.47,1.59,6.02,1.59ZM1278.78,864.77c2.55,0,4.56-.53,6.04-1.59,1.48-1.06,2.27-2.78,2.38-5.15.02-.25.03-.47.03-.67v-.6c0-.2-.01-.42-.03-.67-.25-2.39-1.08-4.12-2.5-5.17-1.42-1.05-3.4-1.58-5.92-1.58v15.44Z"/>
    <path class="cls-1" d="M1302.85,869.26c-.22,0-.4-.07-.54-.2-.13-.13-.2-.31-.2-.54v-21.99c0-.25.07-.44.2-.57.13-.13.31-.2.54-.2h8.16c1.57,0,2.93.26,4.08.79,1.15.53,2.05,1.3,2.69,2.33.64,1.03.96,2.31.96,3.83s-.32,2.8-.96,3.83c-.64,1.03-1.53,1.81-2.69,2.33-1.15.53-2.51.79-4.08.79h-6.78v8.86c0,.22-.07.4-.2.54-.13.13-.32.2-.57.2h-.6ZM1304.23,857.65h6.61c1.95,0,3.4-.42,4.35-1.28.95-.85,1.43-2.07,1.43-3.66s-.48-2.81-1.43-3.66c-.95-.85-2.4-1.28-4.35-1.28h-6.61v9.87Z"/>
    <path class="cls-1" d="M1345.71,869.26c-.22,0-.4-.07-.54-.2-.13-.13-.2-.31-.2-.54v-20.74h-9.23v6.41c0,2.69-.15,4.97-.45,6.85-.3,1.88-.74,3.41-1.33,4.58-.58,1.17-1.3,2.05-2.15,2.62-.85.57-1.84.9-2.95.99-.22.02-.41-.04-.55-.2-.15-.16-.22-.35-.22-.57v-.6c0-.45.22-.69.67-.74.72-.11,1.37-.41,1.96-.89.59-.48,1.11-1.22,1.54-2.21s.77-2.32,1.01-3.98c.24-1.66.35-3.69.35-6.11v-7.42c0-.22.07-.4.2-.54.13-.13.31-.2.54-.2h11.95c.25,0,.44.07.57.2.13.13.2.32.2.57v21.99c0,.22-.07.4-.2.54-.13.13-.32.2-.57.2h-.6Z"/>
    <path class="cls-1" d="M1361.52,869.26c-.22,0-.4-.07-.54-.2-.13-.13-.2-.31-.2-.54v-22.02c0-.22.07-.4.2-.54.13-.13.31-.2.54-.2h.6c.25,0,.44.07.57.2.13.13.2.31.2.54v8.56h4.8c2.26,0,4,.6,5.22,1.8,1.22,1.2,1.83,2.94,1.83,5.22,0,1.14-.25,2.27-.74,3.37-.49,1.11-1.26,2.02-2.3,2.74-1.04.72-2.38,1.07-4.01,1.07h-6.18ZM1362.9,867.25h4.46c1.66,0,2.95-.48,3.88-1.44.93-.96,1.39-2.24,1.39-3.83s-.43-2.86-1.29-3.67c-.86-.82-2.19-1.23-3.98-1.23h-4.46v10.17ZM1378.98,869.26c-.22,0-.4-.07-.54-.2-.13-.13-.2-.31-.2-.54v-22.02c0-.22.07-.4.2-.54.13-.13.31-.2.54-.2h.64c.22,0,.4.07.54.2.13.13.2.31.2.54v22.02c0,.22-.07.4-.2.54-.13.13-.31.2-.54.2h-.64Z"/>
    <path class="cls-1" d="M1394.79,869.26c-.22,0-.4-.07-.54-.2-.13-.13-.2-.31-.2-.54v-21.99c0-.25.07-.44.2-.57.13-.13.31-.2.54-.2h.6c.25,0,.44.07.57.2.13.13.2.32.2.57v9.8h4.57l6.38-10.07c.11-.18.26-.31.44-.39.18-.08.4-.12.67-.12h.54c.25,0,.42.07.52.2.1.13.15.29.15.47,0,.11-.06.26-.17.44l-6.55,10.3,7.22,10.91c.04.07.07.19.07.37,0,.22-.07.41-.22.57-.15.16-.33.24-.55.24h-.57c-.2,0-.36-.04-.47-.12-.11-.08-.21-.18-.3-.32l-7.05-10.47h-4.67v10.17c0,.22-.07.4-.2.54-.13.13-.32.2-.57.2h-.6ZM1410.83,873.96c-.22,0-.4-.07-.54-.2-.13-.13-.2-.31-.2-.54v-3.96h-1.44l-1.01-2.01h3.79c.25,0,.44.07.57.2.13.13.2.31.2.54v5.24c0,.22-.07.4-.2.54-.13.13-.32.2-.57.2h-.6Z"/>
    <path class="cls-1" d="M1439.86,869.26c-.22,0-.4-.07-.54-.2-.13-.13-.2-.31-.2-.54v-21.99c0-.25.07-.44.2-.57.13-.13.31-.2.54-.2h.6c.25,0,.44.07.57.2.13.13.2.32.2.57v9.8h4.57l6.38-10.07c.11-.18.26-.31.44-.39.18-.08.4-.12.67-.12h.54c.25,0,.42.07.52.2.1.13.15.29.15.47,0,.11-.06.26-.17.44l-6.55,10.3,7.22,10.91c.04.07.07.19.07.37,0,.22-.07.41-.22.57-.15.16-.33.24-.55.24h-.57c-.2,0-.36-.04-.47-.12-.11-.08-.21-.18-.3-.32l-7.05-10.47h-4.67v10.17c0,.22-.07.4-.2.54-.13.13-.32.2-.57.2h-.6ZM1455.91,873.96c-.22,0-.4-.07-.54-.2-.13-.13-.2-.31-.2-.54v-3.96h-1.44l-1.01-2.01h3.79c.25,0,.44.07.57.2.13.13.2.31.2.54v5.24c0,.22-.07.4-.2.54-.13.13-.32.2-.57.2h-.6Z"/>
    <path class="cls-1" d="M1476.12,869.6c-1.86,0-3.44-.33-4.73-.99-1.3-.66-2.29-1.68-2.99-3.05-.69-1.38-1.07-3.12-1.14-5.22-.02-1.01-.03-1.95-.03-2.82s.01-1.81.03-2.82c.07-2.08.47-3.81,1.21-5.19.74-1.38,1.76-2.4,3.07-3.07,1.31-.67,2.84-1.01,4.58-1.01s3.27.34,4.58,1.01c1.31.67,2.34,1.7,3.09,3.07.75,1.38,1.15,3.11,1.19,5.19.04,1.01.07,1.95.07,2.82s-.02,1.81-.07,2.82c-.05,2.1-.42,3.84-1.12,5.22s-1.71,2.39-3,3.05c-1.3.66-2.88.99-4.73.99ZM1476.12,867.58c1.92,0,3.51-.58,4.75-1.75,1.24-1.16,1.91-3.05,2-5.67.04-1.01.07-1.89.07-2.65s-.02-1.64-.07-2.65c-.05-1.75-.36-3.17-.96-4.26-.59-1.1-1.39-1.9-2.38-2.4-1-.5-2.13-.76-3.41-.76s-2.38.25-3.37.76c-1,.5-1.79,1.3-2.38,2.4-.59,1.1-.92,2.52-.99,4.26-.02,1.01-.03,1.89-.03,2.65s.01,1.64.03,2.65c.09,2.62.76,4.51,2.01,5.67,1.25,1.16,2.83,1.75,4.73,1.75Z"/>
    <path class="cls-1" d="M1505.72,869.6c-2.04,0-3.7-.4-4.98-1.19-1.29-.79-2.24-1.87-2.87-3.24-.63-1.37-.97-2.92-1.04-4.67-.02-.92-.03-1.9-.03-2.95s.01-2.06.03-3.02c.07-1.75.41-3.31,1.04-4.68.63-1.38,1.58-2.46,2.87-3.24,1.29-.78,2.95-1.17,4.98-1.17,1.59,0,2.94.22,4.06.67,1.12.45,2.03,1.04,2.74,1.76.7.73,1.23,1.51,1.58,2.35.35.84.54,1.66.59,2.47.02.2-.04.36-.18.49-.15.12-.32.18-.52.18h-.67c-.18,0-.34-.05-.47-.15s-.22-.29-.27-.55c-.43-1.99-1.23-3.36-2.4-4.09-1.17-.74-2.66-1.11-4.45-1.11-2.04,0-3.65.58-4.85,1.73-1.2,1.15-1.84,2.99-1.93,5.52-.07,1.83-.07,3.71,0,5.64.09,2.53.73,4.37,1.93,5.52,1.2,1.15,2.81,1.73,4.85,1.73,1.79,0,3.27-.37,4.45-1.11s1.97-2.1,2.4-4.09c.04-.27.13-.45.27-.55s.29-.15.47-.15h.67c.2,0,.37.06.52.18.15.12.21.29.18.49-.05.81-.24,1.63-.59,2.47-.35.84-.87,1.62-1.58,2.35s-1.62,1.31-2.74,1.76c-1.12.45-2.47.67-4.06.67Z"/>
    <path class="cls-1" d="M1543.78,869.26c-.22,0-.4-.07-.54-.2-.13-.13-.2-.31-.2-.54v-21.99c0-.25.07-.44.2-.57.13-.13.31-.2.54-.2h.6c.25,0,.44.07.57.2.13.13.2.32.2.57v9.8h4.57l6.38-10.07c.11-.18.26-.31.44-.39.18-.08.4-.12.67-.12h.54c.25,0,.42.07.52.2.1.13.15.29.15.47,0,.11-.06.26-.17.44l-6.55,10.3,7.22,10.91c.04.07.07.19.07.37,0,.22-.07.41-.22.57-.15.16-.33.24-.55.24h-.57c-.2,0-.36-.04-.47-.12-.11-.08-.21-.18-.3-.32l-7.05-10.47h-4.67v10.17c0,.22-.07.4-.2.54-.13.13-.32.2-.57.2h-.6ZM1559.83,873.96c-.22,0-.4-.07-.54-.2-.13-.13-.2-.31-.2-.54v-3.96h-1.44l-1.01-2.01h3.79c.25,0,.44.07.57.2.13.13.2.31.2.54v5.24c0,.22-.07.4-.2.54-.13.13-.32.2-.57.2h-.6Z"/>
    <path class="cls-1" d="M1570.4,869.26c-.18,0-.34-.07-.47-.2-.13-.13-.2-.29-.2-.47,0-.11.02-.24.07-.37l8.49-21.78c.09-.22.21-.39.35-.5.15-.11.35-.17.62-.17h1.14c.27,0,.48.06.62.17.15.11.26.28.35.5l8.49,21.78c.04.13.07.26.07.37,0,.18-.07.33-.2.47-.13.13-.29.2-.47.2h-.67c-.22,0-.39-.06-.5-.18-.11-.12-.19-.23-.23-.32l-2.08-5.37h-11.88l-2.08,5.37c-.02.09-.1.2-.22.32-.12.12-.3.18-.52.18h-.67ZM1574.7,861.38h10.27l-5.14-13.23-5.14,13.23Z"/>
    <path class="cls-1" d="M1616.42,869.26c-.22,0-.4-.07-.54-.2-.13-.13-.2-.31-.2-.54v-20.74h-9.23v6.41c0,2.69-.15,4.97-.45,6.85-.3,1.88-.74,3.41-1.33,4.58-.58,1.17-1.3,2.05-2.15,2.62-.85.57-1.84.9-2.95.99-.22.02-.41-.04-.55-.2-.15-.16-.22-.35-.22-.57v-.6c0-.45.22-.69.67-.74.72-.11,1.37-.41,1.96-.89.59-.48,1.11-1.22,1.54-2.21s.77-2.32,1.01-3.98c.24-1.66.35-3.69.35-6.11v-7.42c0-.22.07-.4.2-.54.13-.13.31-.2.54-.2h11.95c.25,0,.44.07.57.2.13.13.2.32.2.57v21.99c0,.22-.07.4-.2.54-.13.13-.32.2-.57.2h-.6Z"/>
    <path class="cls-1" d="M1629.81,869.26c-.18,0-.34-.07-.47-.2-.13-.13-.2-.29-.2-.47,0-.11.02-.24.07-.37l8.49-21.78c.09-.22.21-.39.35-.5.15-.11.35-.17.62-.17h1.14c.27,0,.48.06.62.17.15.11.26.28.35.5l8.49,21.78c.04.13.07.26.07.37,0,.18-.07.33-.2.47-.13.13-.29.2-.47.2h-.67c-.22,0-.39-.06-.5-.18-.11-.12-.19-.23-.23-.32l-2.08-5.37h-11.88l-2.08,5.37c-.02.09-.1.2-.22.32-.12.12-.3.18-.52.18h-.67ZM1634.11,861.38h10.27l-5.14-13.23-5.14,13.23Z"/>
  </g>
  <g>
    <g>
      <path class="cls-2" d="M1262.08,1226.21c-.2,0-.36-.06-.47-.18s-.17-.27-.17-.46v-18.02c0-.2.06-.36.17-.48.11-.12.27-.18.47-.18h7.01c1.36,0,2.54.22,3.55.66,1,.44,1.78,1.1,2.33,1.97.55.88.83,1.96.83,3.27s-.28,2.39-.83,3.26c-.55.87-1.33,1.52-2.33,1.96-1,.44-2.19.66-3.55.66h-4.88v6.9c0,.18-.06.34-.18.46-.12.12-.28.18-.48.18h-1.46ZM1264.18,1216.36h4.77c1.36,0,2.38-.3,3.06-.91.68-.61,1.02-1.49,1.02-2.65s-.33-2.03-.99-2.65-1.69-.94-3.09-.94h-4.77v7.15Z"/>
      <path class="cls-2" d="M1279.47,1226.21c-.18,0-.34-.06-.46-.18-.12-.12-.18-.27-.18-.46v-18.33c0-.18.06-.33.18-.46.12-.12.27-.18.46-.18h1.3c.2,0,.36.06.47.18.11.12.17.27.17.46v18.33c0,.18-.06.34-.17.46-.11.12-.27.18-.47.18h-1.3Z"/>
      <path class="cls-2" d="M1289.51,1226.48c-.92,0-1.76-.18-2.51-.55-.75-.37-1.36-.86-1.82-1.49-.46-.62-.69-1.33-.69-2.12,0-1.27.51-2.28,1.55-3.04,1.03-.75,2.37-1.25,4.03-1.49l4.11-.58v-.8c0-.88-.25-1.57-.76-2.07-.51-.5-1.33-.75-2.47-.75-.81,0-1.47.17-1.99.5-.52.33-.87.75-1.08,1.27-.11.28-.3.41-.58.41h-1.24c-.2,0-.35-.06-.46-.18-.1-.12-.15-.26-.15-.43,0-.28.11-.62.32-1.02.21-.4.54-.8.98-1.19.44-.39,1.01-.71,1.7-.98.69-.27,1.53-.4,2.53-.4,1.1,0,2.03.14,2.79.43.75.29,1.35.67,1.78,1.14.43.48.75,1.02.94,1.63.19.61.29,1.22.29,1.85v8.94c0,.18-.06.34-.18.46-.12.12-.27.18-.46.18h-1.27c-.2,0-.36-.06-.47-.18s-.17-.27-.17-.46v-1.19c-.24.33-.56.66-.97.98-.4.32-.91.59-1.52.8-.61.21-1.35.32-2.24.32ZM1290.09,1224.41c.75,0,1.44-.16,2.07-.48.63-.32,1.12-.82,1.48-1.5.36-.68.54-1.54.54-2.57v-.77l-3.2.47c-1.31.19-2.29.49-2.95.93s-.99.98-.99,1.64c0,.52.15.94.46,1.29.3.34.69.59,1.16.76s.95.25,1.45.25Z"/>
      <path class="cls-2" d="M1306.54,1226.48c-1.31,0-2.43-.25-3.38-.76-.95-.51-1.68-1.23-2.19-2.18-.52-.95-.79-2.08-.83-3.41-.02-.28-.03-.64-.03-1.1s0-.83.03-1.1c.04-1.33.31-2.46.83-3.41.51-.95,1.25-1.67,2.19-2.18.95-.51,2.07-.76,3.38-.76,1.07,0,1.98.15,2.75.44.76.29,1.39.67,1.89,1.13.5.46.87.96,1.12,1.49.25.54.38,1.04.4,1.52.02.19-.04.33-.17.44-.13.11-.29.17-.47.17h-1.32c-.18,0-.32-.04-.41-.12-.09-.08-.18-.23-.28-.43-.33-.9-.78-1.54-1.35-1.9-.57-.37-1.28-.55-2.12-.55-1.1,0-2,.34-2.69,1.02s-1.06,1.78-1.12,3.28c-.02.66-.02,1.31,0,1.93.06,1.53.43,2.63,1.12,3.3s1.59,1.01,2.69,1.01c.85,0,1.55-.18,2.12-.55.57-.37,1.02-1,1.35-1.9.09-.2.18-.35.28-.44.09-.09.23-.14.41-.14h1.32c.18,0,.34.06.47.18.13.12.18.27.17.46-.02.39-.1.78-.25,1.19-.15.4-.38.81-.7,1.23-.32.41-.72.78-1.2,1.1-.48.32-1.05.58-1.71.77s-1.43.29-2.29.29Z"/>
      <path class="cls-2" d="M1321.72,1226.48c-1.91,0-3.43-.58-4.55-1.75-1.12-1.17-1.74-2.76-1.85-4.79-.02-.24-.03-.55-.03-.92s0-.69.03-.92c.07-1.31.38-2.45.91-3.44.53-.98,1.26-1.74,2.19-2.28.93-.54,2.02-.8,3.27-.8,1.4,0,2.57.29,3.52.88.95.59,1.67,1.43,2.17,2.51s.75,2.36.75,3.81v.47c0,.2-.06.36-.18.47-.12.11-.27.17-.46.17h-9.55v.25c.04.76.2,1.46.5,2.11.29.65.72,1.18,1.28,1.59.56.4,1.22.61,1.97.61.66,0,1.21-.1,1.66-.3s.8-.43,1.08-.68c.28-.25.46-.45.55-.59.17-.22.29-.35.39-.4.09-.04.24-.07.44-.07h1.35c.17,0,.31.05.43.15.12.1.17.24.15.43-.02.28-.17.61-.44,1.01-.28.4-.67.79-1.17,1.17-.51.39-1.13.7-1.88.95s-1.59.37-2.53.37ZM1317.94,1217.98h7.56v-.08c0-.83-.15-1.56-.46-2.21-.3-.64-.74-1.15-1.31-1.53-.57-.38-1.25-.57-2.04-.57s-1.47.19-2.03.57c-.56.38-.99.89-1.28,1.53-.29.64-.44,1.38-.44,2.21v.08Z"/>
      <path class="cls-2" d="M1342.19,1226.48c-.92,0-1.76-.18-2.51-.55-.75-.37-1.36-.86-1.82-1.49-.46-.62-.69-1.33-.69-2.12,0-1.27.51-2.28,1.55-3.04,1.03-.75,2.37-1.25,4.03-1.49l4.11-.58v-.8c0-.88-.25-1.57-.76-2.07-.51-.5-1.33-.75-2.47-.75-.81,0-1.47.17-1.99.5-.52.33-.87.75-1.08,1.27-.11.28-.3.41-.58.41h-1.24c-.2,0-.35-.06-.46-.18-.1-.12-.15-.26-.15-.43,0-.28.11-.62.32-1.02.21-.4.54-.8.98-1.19.44-.39,1.01-.71,1.7-.98.69-.27,1.53-.4,2.53-.4,1.1,0,2.03.14,2.79.43.75.29,1.35.67,1.78,1.14.43.48.75,1.02.94,1.63.19.61.29,1.22.29,1.85v8.94c0,.18-.06.34-.18.46-.12.12-.27.18-.46.18h-1.27c-.2,0-.36-.06-.47-.18s-.17-.27-.17-.46v-1.19c-.24.33-.56.66-.97.98-.4.32-.91.59-1.52.8-.61.21-1.35.32-2.24.32ZM1342.77,1224.41c.75,0,1.44-.16,2.07-.48.63-.32,1.12-.82,1.48-1.5.36-.68.54-1.54.54-2.57v-.77l-3.2.47c-1.31.19-2.29.49-2.95.93s-.99.98-.99,1.64c0,.52.15.94.46,1.29.3.34.69.59,1.16.76s.95.25,1.45.25Z"/>
      <path class="cls-2" d="M1365.21,1226.21c-1.03,0-1.87-.2-2.51-.59-.64-.4-1.11-.96-1.41-1.68-.29-.73-.44-1.59-.44-2.58v-7.29h-2.15c-.18,0-.34-.06-.46-.18-.12-.12-.18-.27-.18-.46v-.94c0-.18.06-.34.18-.46.12-.12.27-.18.46-.18h2.15v-4.61c0-.18.06-.33.18-.46.12-.12.27-.18.46-.18h1.3c.18,0,.34.06.46.18.12.12.18.27.18.46v4.61h3.42c.2,0,.36.06.47.18.11.12.17.27.17.46v.94c0,.18-.06.34-.17.46-.11.12-.27.18-.47.18h-3.42v7.09c0,.87.15,1.54.44,2.04.29.5.82.74,1.57.74h1.68c.18,0,.34.06.46.18.12.12.18.27.18.46v.99c0,.18-.06.34-.18.46-.12.12-.27.18-.46.18h-1.9Z"/>
      <path class="cls-2" d="M1370.81,1209.18c-.18,0-.34-.06-.46-.18-.12-.12-.18-.27-.18-.46v-1.49c0-.18.06-.34.18-.47.12-.13.27-.19.46-.19h1.74c.18,0,.34.06.47.19.13.13.19.29.19.47v1.49c0,.19-.06.34-.19.46-.13.12-.29.18-.47.18h-1.74ZM1371.03,1226.21c-.18,0-.34-.06-.46-.18-.12-.12-.18-.27-.18-.46v-13.08c0-.18.06-.34.18-.46.12-.12.27-.18.46-.18h1.32c.18,0,.34.06.46.18.12.12.18.27.18.46v13.08c0,.18-.06.34-.18.46-.12.12-.27.18-.46.18h-1.32Z"/>
      <path class="cls-2" d="M1377.74,1226.21c-.18,0-.34-.06-.46-.18-.12-.12-.18-.27-.18-.46v-18.33c0-.18.06-.33.18-.46.12-.12.27-.18.46-.18h1.3c.2,0,.36.06.47.18.11.12.17.27.17.46v18.33c0,.18-.06.34-.17.46-.11.12-.27.18-.47.18h-1.3Z"/>
      <path class="cls-2" d="M1389.52,1226.48c-1.91,0-3.43-.58-4.55-1.75-1.12-1.17-1.74-2.76-1.85-4.79-.02-.24-.03-.55-.03-.92s0-.69.03-.92c.07-1.31.38-2.45.91-3.44.53-.98,1.26-1.74,2.19-2.28.93-.54,2.02-.8,3.27-.8,1.4,0,2.57.29,3.52.88.95.59,1.67,1.43,2.17,2.51s.75,2.36.75,3.81v.47c0,.2-.06.36-.18.47-.12.11-.27.17-.46.17h-9.55v.25c.04.76.2,1.46.5,2.11.29.65.72,1.18,1.28,1.59.56.4,1.22.61,1.97.61.66,0,1.21-.1,1.66-.3s.8-.43,1.08-.68c.28-.25.46-.45.55-.59.17-.22.29-.35.39-.4.09-.04.24-.07.44-.07h1.35c.17,0,.31.05.43.15.12.1.17.24.15.43-.02.28-.17.61-.44,1.01-.28.4-.67.79-1.17,1.17-.51.39-1.13.7-1.88.95s-1.59.37-2.53.37ZM1385.74,1217.98h7.56v-.08c0-.83-.15-1.56-.46-2.21-.3-.64-.74-1.15-1.31-1.53-.57-.38-1.25-.57-2.04-.57s-1.47.19-2.03.57c-.56.38-.99.89-1.28,1.53-.29.64-.44,1.38-.44,2.21v.08Z"/>
      <path class="cls-2" d="M1411.02,1226.21c-1.03,0-1.87-.2-2.51-.59-.64-.4-1.11-.96-1.41-1.68-.29-.73-.44-1.59-.44-2.58v-7.29h-2.15c-.18,0-.34-.06-.46-.18-.12-.12-.18-.27-.18-.46v-.94c0-.18.06-.34.18-.46.12-.12.27-.18.46-.18h2.15v-4.61c0-.18.06-.33.18-.46.12-.12.27-.18.46-.18h1.3c.18,0,.34.06.46.18.12.12.18.27.18.46v4.61h3.42c.2,0,.36.06.47.18.11.12.17.27.17.46v.94c0,.18-.06.34-.17.46-.11.12-.27.18-.47.18h-3.42v7.09c0,.87.15,1.54.44,2.04.29.5.82.74,1.57.74h1.68c.18,0,.34.06.46.18.12.12.18.27.18.46v.99c0,.18-.06.34-.18.46-.12.12-.27.18-.46.18h-1.9Z"/>
      <path class="cls-2" d="M1422.09,1226.48c-1.4,0-2.57-.27-3.5-.8-.94-.53-1.66-1.27-2.15-2.22-.5-.95-.77-2.03-.83-3.24-.02-.31-.03-.71-.03-1.2s0-.88.03-1.17c.06-1.23.34-2.32.84-3.26.51-.94,1.23-1.67,2.17-2.21.94-.54,2.1-.8,3.48-.8s2.54.27,3.48.8c.94.53,1.66,1.27,2.17,2.21.51.94.79,2.02.84,3.26.02.29.03.69.03,1.17s0,.89-.03,1.2c-.06,1.21-.33,2.29-.83,3.24s-1.21,1.69-2.15,2.22c-.94.53-2.11.8-3.5.8ZM1422.09,1224.36c1.14,0,2.05-.36,2.73-1.09.68-.73,1.05-1.79,1.1-3.19.02-.28.03-.62.03-1.05s0-.77-.03-1.05c-.06-1.4-.42-2.46-1.1-3.19-.68-.73-1.59-1.09-2.73-1.09s-2.06.36-2.75,1.09-1.05,1.79-1.09,3.19c-.02.28-.03.62-.03,1.05s0,.77.03,1.05c.04,1.4.4,2.46,1.09,3.19s1.6,1.09,2.75,1.09Z"/>
      <path class="cls-2" d="M1443.78,1226.48c-1.03,0-1.91-.13-2.65-.39-.74-.26-1.33-.57-1.79-.94-.46-.37-.81-.74-1.03-1.1-.23-.37-.35-.66-.37-.88-.02-.2.05-.36.19-.47.15-.11.29-.17.44-.17h1.24c.09,0,.17.02.23.04.06.03.15.11.26.23.24.26.51.52.8.77.29.26.66.47,1.09.63.43.17.97.25,1.61.25.94,0,1.71-.18,2.32-.54s.91-.89.91-1.59c0-.46-.12-.83-.37-1.11-.25-.28-.69-.52-1.32-.74s-1.5-.45-2.61-.69c-1.1-.26-1.98-.58-2.62-.95-.64-.38-1.1-.83-1.38-1.35-.28-.53-.41-1.12-.41-1.78s.2-1.34.61-1.97c.4-.63,1-1.15,1.78-1.56.78-.4,1.76-.61,2.94-.61.96,0,1.78.12,2.46.36.68.24,1.24.54,1.68.9.44.36.77.71.99,1.06.22.35.34.64.36.88.02.18-.04.34-.17.46-.13.12-.28.18-.44.18h-1.16c-.13,0-.23-.03-.32-.08-.08-.05-.16-.12-.23-.19-.18-.24-.4-.48-.65-.72-.25-.24-.57-.44-.97-.59-.4-.16-.92-.23-1.56-.23-.92,0-1.61.19-2.07.58-.46.39-.69.88-.69,1.46,0,.35.1.66.3.94.2.28.59.53,1.16.75.57.22,1.42.46,2.54.72,1.21.24,2.17.56,2.87.97.7.4,1.2.87,1.49,1.41.29.54.44,1.15.44,1.85,0,.77-.22,1.48-.66,2.12-.44.64-1.1,1.15-1.99,1.53s-1.97.57-3.26.57Z"/>
      <path class="cls-2" d="M1458.63,1226.48c-1.91,0-3.43-.58-4.55-1.75-1.12-1.17-1.74-2.76-1.85-4.79-.02-.24-.03-.55-.03-.92s0-.69.03-.92c.07-1.31.38-2.45.91-3.44.53-.98,1.26-1.74,2.19-2.28.93-.54,2.02-.8,3.27-.8,1.4,0,2.57.29,3.52.88.95.59,1.67,1.43,2.17,2.51s.75,2.36.75,3.81v.47c0,.2-.06.36-.18.47-.12.11-.27.17-.46.17h-9.55v.25c.04.76.2,1.46.5,2.11.29.65.72,1.18,1.28,1.59.56.4,1.22.61,1.97.61.66,0,1.21-.1,1.66-.3s.8-.43,1.08-.68c.28-.25.46-.45.55-.59.17-.22.29-.35.39-.4.09-.04.24-.07.44-.07h1.35c.17,0,.31.05.43.15.12.1.17.24.15.43-.02.28-.17.61-.44,1.01-.28.4-.67.79-1.17,1.17-.51.39-1.13.7-1.88.95s-1.59.37-2.53.37ZM1454.85,1217.98h7.56v-.08c0-.83-.15-1.56-.46-2.21-.3-.64-.74-1.15-1.31-1.53-.57-.38-1.25-.57-2.04-.57s-1.47.19-2.03.57c-.56.38-.99.89-1.28,1.53-.29.64-.44,1.38-.44,2.21v.08Z"/>
      <path class="cls-2" d="M1469,1226.21c-.18,0-.34-.06-.46-.18-.12-.12-.18-.27-.18-.46v-18.33c0-.18.06-.33.18-.46.12-.12.27-.18.46-.18h1.3c.2,0,.36.06.47.18.11.12.17.27.17.46v18.33c0,.18-.06.34-.17.46-.11.12-.27.18-.47.18h-1.3Z"/>
      <path class="cls-2" d="M1480.79,1226.48c-1.91,0-3.43-.58-4.55-1.75-1.12-1.17-1.74-2.76-1.85-4.79-.02-.24-.03-.55-.03-.92s0-.69.03-.92c.07-1.31.38-2.45.91-3.44.53-.98,1.26-1.74,2.19-2.28.93-.54,2.02-.8,3.27-.8,1.4,0,2.57.29,3.52.88.95.59,1.67,1.43,2.17,2.51s.75,2.36.75,3.81v.47c0,.2-.06.36-.18.47-.12.11-.27.17-.46.17h-9.55v.25c.04.76.2,1.46.5,2.11.29.65.72,1.18,1.28,1.59.56.4,1.22.61,1.97.61.66,0,1.21-.1,1.66-.3s.8-.43,1.08-.68c.28-.25.46-.45.55-.59.17-.22.29-.35.39-.4.09-.04.24-.07.44-.07h1.35c.17,0,.31.05.43.15.12.1.17.24.15.43-.02.28-.17.61-.44,1.01-.28.4-.67.79-1.17,1.17-.51.39-1.13.7-1.88.95s-1.59.37-2.53.37ZM1477.01,1217.98h7.56v-.08c0-.83-.15-1.56-.46-2.21-.3-.64-.74-1.15-1.31-1.53-.57-.38-1.25-.57-2.04-.57s-1.47.19-2.03.57c-.56.38-.99.89-1.28,1.53-.29.64-.44,1.38-.44,2.21v.08Z"/>
      <path class="cls-2" d="M1496.3,1226.48c-1.31,0-2.43-.25-3.38-.76-.95-.51-1.68-1.23-2.19-2.18-.52-.95-.79-2.08-.83-3.41-.02-.28-.03-.64-.03-1.1s0-.83.03-1.1c.04-1.33.31-2.46.83-3.41.51-.95,1.25-1.67,2.19-2.18.95-.51,2.07-.76,3.38-.76,1.07,0,1.98.15,2.75.44.76.29,1.39.67,1.89,1.13.5.46.87.96,1.12,1.49.25.54.38,1.04.4,1.52.02.19-.04.33-.17.44-.13.11-.29.17-.47.17h-1.32c-.18,0-.32-.04-.41-.12-.09-.08-.18-.23-.28-.43-.33-.9-.78-1.54-1.35-1.9-.57-.37-1.28-.55-2.12-.55-1.1,0-2,.34-2.69,1.02s-1.06,1.78-1.12,3.28c-.02.66-.02,1.31,0,1.93.06,1.53.43,2.63,1.12,3.3s1.59,1.01,2.69,1.01c.85,0,1.55-.18,2.12-.55.57-.37,1.02-1,1.35-1.9.09-.2.18-.35.28-.44.09-.09.23-.14.41-.14h1.32c.18,0,.34.06.47.18.13.12.18.27.17.46-.02.39-.1.78-.25,1.19-.15.4-.38.81-.7,1.23-.32.41-.72.78-1.2,1.1-.48.32-1.05.58-1.71.77s-1.43.29-2.29.29Z"/>
      <path class="cls-2" d="M1511.34,1226.21c-1.03,0-1.87-.2-2.51-.59-.64-.4-1.11-.96-1.41-1.68-.29-.73-.44-1.59-.44-2.58v-7.29h-2.15c-.18,0-.34-.06-.46-.18-.12-.12-.18-.27-.18-.46v-.94c0-.18.06-.34.18-.46.12-.12.27-.18.46-.18h2.15v-4.61c0-.18.06-.33.18-.46.12-.12.27-.18.46-.18h1.3c.18,0,.34.06.46.18.12.12.18.27.18.46v4.61h3.42c.2,0,.36.06.47.18.11.12.17.27.17.46v.94c0,.18-.06.34-.17.46-.11.12-.27.18-.47.18h-3.42v7.09c0,.87.15,1.54.44,2.04.29.5.82.74,1.57.74h1.68c.18,0,.34.06.46.18.12.12.18.27.18.46v.99c0,.18-.06.34-.18.46-.12.12-.27.18-.46.18h-1.9Z"/>
      <path class="cls-2" d="M1530.71,1226.21c-.18,0-.34-.06-.46-.18-.12-.12-.18-.27-.18-.46v-18.33c0-.18.06-.33.18-.46.12-.12.27-.18.46-.18h1.3c.2,0,.36.06.47.18.11.12.17.27.17.46v18.33c0,.18-.06.34-.17.46-.11.12-.27.18-.47.18h-1.3Z"/>
      <path class="cls-2" d="M1540.76,1226.48c-.92,0-1.76-.18-2.51-.55-.75-.37-1.36-.86-1.82-1.49-.46-.62-.69-1.33-.69-2.12,0-1.27.51-2.28,1.55-3.04,1.03-.75,2.37-1.25,4.03-1.49l4.11-.58v-.8c0-.88-.25-1.57-.76-2.07-.51-.5-1.33-.75-2.47-.75-.81,0-1.47.17-1.99.5-.52.33-.87.75-1.08,1.27-.11.28-.3.41-.58.41h-1.24c-.2,0-.35-.06-.46-.18-.1-.12-.15-.26-.15-.43,0-.28.11-.62.32-1.02.21-.4.54-.8.98-1.19.44-.39,1.01-.71,1.7-.98.69-.27,1.53-.4,2.53-.4,1.1,0,2.03.14,2.79.43.75.29,1.35.67,1.78,1.14.43.48.75,1.02.94,1.63.19.61.29,1.22.29,1.85v8.94c0,.18-.06.34-.18.46-.12.12-.27.18-.46.18h-1.27c-.2,0-.36-.06-.47-.18s-.17-.27-.17-.46v-1.19c-.24.33-.56.66-.97.98-.4.32-.91.59-1.52.8-.61.21-1.35.32-2.24.32ZM1541.34,1224.41c.75,0,1.44-.16,2.07-.48.63-.32,1.12-.82,1.48-1.5.36-.68.54-1.54.54-2.57v-.77l-3.2.47c-1.31.19-2.29.49-2.95.93s-.99.98-.99,1.64c0,.52.15.94.46,1.29.3.34.69.59,1.16.76s.95.25,1.45.25Z"/>
      <path class="cls-2" d="M1552.62,1226.21c-.18,0-.34-.06-.46-.18-.12-.12-.18-.27-.18-.46v-13.08c0-.18.06-.34.18-.46.12-.12.27-.18.46-.18h1.3c.18,0,.34.06.46.18.12.12.18.27.18.46v1.21c.48-.62,1.08-1.14,1.81-1.53.73-.4,1.66-.59,2.8-.59s2.21.26,3.05.79c.84.52,1.47,1.25,1.9,2.18.43.93.65,2.01.65,3.24v7.78c0,.18-.06.34-.18.46-.12.12-.27.18-.46.18h-1.38c-.18,0-.34-.06-.46-.18-.12-.12-.18-.27-.18-.46v-7.64c0-1.29-.31-2.29-.94-3.02-.63-.73-1.55-1.09-2.76-1.09-1.14,0-2.06.36-2.75,1.09-.69.73-1.03,1.73-1.03,3.02v7.64c0,.18-.06.34-.18.46-.12.12-.27.18-.46.18h-1.38Z"/>
      <path class="cls-2" d="M1574.59,1232.28c-1.25,0-2.28-.16-3.08-.5-.8-.33-1.43-.73-1.88-1.2-.45-.47-.77-.94-.97-1.41-.19-.47-.3-.84-.32-1.12-.02-.18.04-.34.18-.47s.29-.19.46-.19h1.32c.17,0,.3.04.41.11.11.07.2.23.28.47.11.28.28.58.5.92.22.34.56.63,1.02.88.46.25,1.1.37,1.93.37s1.59-.12,2.18-.36c.59-.24,1.03-.64,1.34-1.21.3-.57.46-1.36.46-2.37v-1.88c-.44.57-1.02,1.04-1.74,1.42s-1.62.56-2.7.56-1.91-.18-2.65-.54c-.74-.36-1.34-.85-1.81-1.46-.47-.62-.82-1.32-1.05-2.11-.23-.79-.36-1.62-.4-2.48-.02-.51-.02-1.02,0-1.52.04-.87.17-1.69.4-2.48.23-.79.58-1.5,1.05-2.12.47-.62,1.07-1.12,1.81-1.48.74-.36,1.62-.54,2.65-.54,1.1,0,2.02.2,2.75.61.73.4,1.32.91,1.78,1.52v-1.19c0-.18.06-.34.18-.47.12-.13.27-.19.46-.19h1.27c.18,0,.34.06.47.19.13.13.19.29.19.47v13.38c0,1.23-.21,2.33-.62,3.29-.41.96-1.09,1.71-2.04,2.26-.95.55-2.22.83-3.82.83ZM1574.54,1224.11c.92,0,1.66-.21,2.22-.63.56-.42.98-.96,1.24-1.6.27-.64.41-1.3.43-1.96.02-.26.03-.57.03-.95s0-.7-.03-.95c-.02-.66-.16-1.31-.43-1.96-.27-.64-.68-1.18-1.24-1.6-.56-.42-1.3-.63-2.22-.63s-1.66.21-2.21.62c-.55.41-.95.96-1.19,1.63-.24.67-.38,1.39-.41,2.17-.02.48-.02.97,0,1.46.04.77.17,1.5.41,2.17.24.67.63,1.21,1.19,1.63.55.41,1.29.62,2.21.62Z"/>
      <path class="cls-2" d="M1590.54,1226.48c-1.18,0-2.18-.26-2.99-.79-.82-.52-1.44-1.26-1.86-2.19-.42-.94-.63-2.01-.63-3.23v-7.78c0-.18.06-.34.18-.46.12-.12.27-.18.46-.18h1.38c.18,0,.34.06.46.18.12.12.18.27.18.46v7.64c0,2.74,1.2,4.11,3.59,4.11,1.14,0,2.06-.36,2.75-1.09.69-.73,1.03-1.73,1.03-3.02v-7.64c0-.18.06-.34.18-.46.12-.12.27-.18.46-.18h1.38c.18,0,.33.06.44.18s.17.27.17.46v13.08c0,.18-.06.34-.17.46s-.26.18-.44.18h-1.3c-.18,0-.34-.06-.46-.18-.12-.12-.18-.27-.18-.46v-1.21c-.5.64-1.1,1.16-1.81,1.54-.71.39-1.64.58-2.8.58Z"/>
      <path class="cls-2" d="M1605.8,1226.48c-.92,0-1.76-.18-2.51-.55-.75-.37-1.36-.86-1.82-1.49-.46-.62-.69-1.33-.69-2.12,0-1.27.51-2.28,1.55-3.04,1.03-.75,2.37-1.25,4.03-1.49l4.11-.58v-.8c0-.88-.25-1.57-.76-2.07-.51-.5-1.33-.75-2.47-.75-.81,0-1.47.17-1.99.5-.52.33-.87.75-1.08,1.27-.11.28-.3.41-.58.41h-1.24c-.2,0-.35-.06-.46-.18-.1-.12-.15-.26-.15-.43,0-.28.11-.62.32-1.02.21-.4.54-.8.98-1.19.44-.39,1.01-.71,1.7-.98.69-.27,1.53-.4,2.53-.4,1.1,0,2.03.14,2.79.43.75.29,1.35.67,1.78,1.14.43.48.75,1.02.94,1.63.19.61.29,1.22.29,1.85v8.94c0,.18-.06.34-.18.46-.12.12-.27.18-.46.18h-1.27c-.2,0-.36-.06-.47-.18s-.17-.27-.17-.46v-1.19c-.24.33-.56.66-.97.98-.4.32-.91.59-1.52.8-.61.21-1.35.32-2.24.32ZM1606.38,1224.41c.75,0,1.44-.16,2.07-.48.63-.32,1.12-.82,1.48-1.5.36-.68.54-1.54.54-2.57v-.77l-3.2.47c-1.31.19-2.29.49-2.95.93s-.99.98-.99,1.64c0,.52.15.94.46,1.29.3.34.69.59,1.16.76s.95.25,1.45.25Z"/>
      <path class="cls-2" d="M1622.91,1232.28c-1.25,0-2.28-.16-3.08-.5-.8-.33-1.43-.73-1.88-1.2-.45-.47-.77-.94-.97-1.41-.19-.47-.3-.84-.32-1.12-.02-.18.04-.34.18-.47s.29-.19.46-.19h1.32c.17,0,.3.04.41.11.11.07.2.23.28.47.11.28.28.58.5.92.22.34.56.63,1.02.88.46.25,1.1.37,1.93.37s1.59-.12,2.18-.36c.59-.24,1.03-.64,1.34-1.21.3-.57.46-1.36.46-2.37v-1.88c-.44.57-1.02,1.04-1.74,1.42s-1.62.56-2.7.56-1.91-.18-2.65-.54c-.74-.36-1.34-.85-1.81-1.46-.47-.62-.82-1.32-1.05-2.11-.23-.79-.36-1.62-.4-2.48-.02-.51-.02-1.02,0-1.52.04-.87.17-1.69.4-2.48.23-.79.58-1.5,1.05-2.12.47-.62,1.07-1.12,1.81-1.48.74-.36,1.62-.54,2.65-.54,1.1,0,2.02.2,2.75.61.73.4,1.32.91,1.78,1.52v-1.19c0-.18.06-.34.18-.47.12-.13.27-.19.46-.19h1.27c.18,0,.34.06.47.19.13.13.19.29.19.47v13.38c0,1.23-.21,2.33-.62,3.29-.41.96-1.09,1.71-2.04,2.26-.95.55-2.22.83-3.82.83ZM1622.86,1224.11c.92,0,1.66-.21,2.22-.63.56-.42.98-.96,1.24-1.6.27-.64.41-1.3.43-1.96.02-.26.03-.57.03-.95s0-.7-.03-.95c-.02-.66-.16-1.31-.43-1.96-.27-.64-.68-1.18-1.24-1.6-.56-.42-1.3-.63-2.22-.63s-1.66.21-2.21.62c-.55.41-.95.96-1.19,1.63-.24.67-.38,1.39-.41,2.17-.02.48-.02.97,0,1.46.04.77.17,1.5.41,2.17.24.67.63,1.21,1.19,1.63.55.41,1.29.62,2.21.62Z"/>
      <path class="cls-2" d="M1639.25,1226.48c-1.91,0-3.43-.58-4.55-1.75-1.12-1.17-1.74-2.76-1.85-4.79-.02-.24-.03-.55-.03-.92s0-.69.03-.92c.07-1.31.38-2.45.91-3.44.53-.98,1.26-1.74,2.19-2.28.93-.54,2.02-.8,3.27-.8,1.4,0,2.57.29,3.52.88.95.59,1.67,1.43,2.17,2.51s.75,2.36.75,3.81v.47c0,.2-.06.36-.18.47-.12.11-.27.17-.46.17h-9.55v.25c.04.76.2,1.46.5,2.11.29.65.72,1.18,1.28,1.59.56.4,1.22.61,1.97.61.66,0,1.21-.1,1.66-.3s.8-.43,1.08-.68c.28-.25.46-.45.55-.59.17-.22.29-.35.39-.4.09-.04.24-.07.44-.07h1.35c.17,0,.31.05.43.15.12.1.17.24.15.43-.02.28-.17.61-.44,1.01-.28.4-.67.79-1.17,1.17-.51.39-1.13.7-1.88.95s-1.59.37-2.53.37ZM1635.47,1217.98h7.56v-.08c0-.83-.15-1.56-.46-2.21-.3-.64-.74-1.15-1.31-1.53-.57-.38-1.25-.57-2.04-.57s-1.47.19-2.03.57c-.56.38-.99.89-1.28,1.53-.29.64-.44,1.38-.44,2.21v.08Z"/>
    </g>
    <g>
      <path class="cls-1" d="M1224.8,1223.67c-.38.03-.75-.05-1.08-.24-.24-.24-.35-.58-.31-.92,0-.28.04-.56.1-.83.06-.31.13-.63.22-.93l.98-3.39c.1-.33.17-.68.2-1.03,0-.38.05-.63.05-.78.02-.67-.26-1.31-.78-1.74-.63-.48-1.41-.72-2.2-.67-.57,0-1.13.1-1.67.28-.59.18-1.21.4-1.86.66l-.28,1.1c.19-.07.43-.14.69-.23.25-.08.52-.11.78-.12.37-.04.75.05,1.06.26.21.25.31.58.28.91,0,.28-.03.56-.09.83-.06.29-.13.6-.23.93l-.99,3.4c-.08.32-.14.64-.19.96-.04.28-.06.55-.06.83,0,.67.3,1.31.83,1.73.64.49,1.43.73,2.23.68.57.01,1.13-.07,1.67-.24.47-.16,1.1-.39,1.89-.69l.27-1.05c-.21.09-.43.16-.66.22-.28.06-.58.09-.87.08Z"/>
      <path class="cls-1" d="M1225.84,1207.62c-.45-.42-1.05-.64-1.67-.63-.62-.01-1.21.21-1.67.63-.83.72-.93,1.98-.21,2.81.06.07.13.14.21.21.95.85,2.39.85,3.34,0,.83-.73.92-1.99.2-2.82-.06-.07-.13-.13-.19-.2Z"/>
      <path class="cls-1" d="M1222.35,1197.82c-10.13,0-18.34,8.21-18.34,18.34s8.21,18.34,18.34,18.34,18.34-8.21,18.34-18.34-8.21-18.34-18.34-18.34ZM1222.35,1232.84c-9.21,0-16.68-7.47-16.68-16.68s7.47-16.68,16.68-16.68,16.68,7.47,16.68,16.68-7.47,16.68-16.68,16.68Z"/>
    </g>
  </g>
</svg>