<?xml version="1.0" encoding="UTF-8"?>
<svg id="Menu" xmlns="http://www.w3.org/2000/svg" viewBox="0 0 2817.33 1452.37">
  <defs>
    <style>
      .cls-1 {
        fill: aqua;
      }

      .cls-2 {
        fill: #ff9100;
      }

      .cls-3 {
        fill: #9cff00;
      }

      .cls-4 {
        stroke: #ff9100;
      }

      .cls-4, .cls-5, .cls-6, .cls-7, .cls-8, .cls-9 {
        fill: none;
        stroke-linecap: round;
        stroke-miterlimit: 10;
        stroke-width: 5px;
      }

      .cls-10 {
        fill: #fff;
      }

      .cls-5 {
        stroke: #9cff00;
      }

      .cls-11 {
        fill: #3386ff;
      }

      .cls-6 {
        stroke: #f0f;
      }

      .cls-7 {
        stroke: #3386ff;
      }

      .cls-8 {
        stroke: #4d4e4e;
      }

      .cls-12 {
        fill: #f0f;
      }

      .cls-13 {
        fill: #f7931e;
      }

      .cls-9 {
        stroke: aqua;
      }
    </style>
  </defs>
  <g>
    <g>
      <path class="cls-10" d="M933.65,259.13c-.1-.06-.16-.13-.18-.21-.02-.08-.01-.17.04-.25,1.85-3.25,2.77-4.87,4.62-8.11.05-.09.12-.15.2-.17.08-.02.17,0,.27.05,2.2,1.25,3.31,1.88,5.52,3.11.1.05.16.12.18.21.02.08,0,.17-.04.26-.11.19-.16.28-.27.47-.05.09-.12.15-.2.17-.08.02-.17,0-.27-.05-1.82-1.02-2.73-1.53-4.55-2.56-.62,1.09-.93,1.63-1.55,2.72,1.71.97,2.56,1.45,4.27,2.41.1.06.16.12.18.21.02.08,0,.17-.04.26-.1.18-.16.28-.26.46-.05.08-.11.14-.2.16-.08.02-.18,0-.27-.05-1.71-.96-2.57-1.44-4.27-2.41-.64,1.13-.96,1.69-1.6,2.82,1.88,1.06,2.81,1.59,4.69,2.65.1.06.16.12.19.2.03.08.01.17-.04.26-.11.19-.16.29-.27.49-.05.08-.11.14-.2.16-.08.02-.18,0-.28-.05-2.28-1.27-3.41-1.92-5.68-3.21Z"/>
      <path class="cls-10" d="M941.83,263.74c-.1-.06-.16-.12-.19-.21-.02-.08-.01-.17.03-.25,1.82-3.26,2.72-4.9,4.54-8.16.05-.09.12-.15.2-.17.08-.02.17,0,.27.05.25.14.37.21.62.34.11.06.17.13.2.2.03.08.04.13.03.16.37,3.54.56,5.31.95,8.85,1.37-2.51,2.06-3.76,3.43-6.27.05-.09.12-.15.2-.18.08-.03.17-.01.27.04.26.14.39.21.65.35.1.05.16.12.19.21.03.09.02.18-.03.27-1.78,3.28-2.68,4.91-4.46,8.19-.05.08-.11.14-.2.17-.09.03-.18.01-.27-.03-.26-.14-.39-.21-.65-.36-.1-.05-.16-.12-.18-.2-.02-.08-.04-.13-.05-.16-.41-3.52-.61-5.28-.99-8.79-1.38,2.48-2.06,3.72-3.44,6.2-.05.08-.11.14-.2.16-.09.02-.18,0-.28-.05-.26-.14-.39-.22-.65-.36Z"/>
      <path class="cls-10" d="M953.78,270.27c-.14-.07-.23-.16-.27-.26-.05-.1-.06-.21-.06-.34.53-3.89.8-5.84,1.35-9.72,0-.06.02-.11.05-.15.04-.07.1-.11.18-.13.08-.02.16-.01.23.03.28.15.42.23.7.38.11.06.18.13.2.22s.04.16.04.21c-.49,3.42-.73,5.13-1.2,8.56,2.6-2.29,3.89-3.43,6.48-5.73.04-.03.1-.06.19-.09.08-.03.18-.01.29.05.28.15.42.22.7.37.07.04.12.1.16.18.03.08.03.16,0,.22-.02.04-.06.08-.1.12-2.93,2.61-4.4,3.91-7.36,6.5-.09.08-.19.13-.3.15-.11.02-.23-.01-.37-.08-.35-.19-.53-.28-.89-.47Z"/>
      <path class="cls-10" d="M960.2,273.68c-.1-.05-.16-.12-.19-.2-.03-.08-.02-.17.03-.25,1.75-3.31,2.62-4.96,4.36-8.27.04-.08.11-.14.19-.17.08-.03.17-.01.27.04.29.15.43.23.72.38.1.05.16.12.19.2.03.08.02.17-.03.25-1.74,3.31-2.61,4.97-4.35,8.28-.04.08-.11.14-.19.17-.08.03-.18.01-.28-.04-.29-.15-.43-.23-.72-.38Z"/>
      <path class="cls-10" d="M963.93,275.63c-.1-.05-.16-.12-.19-.2-.03-.08-.02-.17.03-.25,1.73-3.31,2.59-4.97,4.32-8.28.05-.09.11-.15.2-.18.08-.03.17-.01.27.04,1.32.69,1.98,1.03,3.31,1.72,1.02.53,1.72,1.17,2.08,1.92.37.76.33,1.58-.12,2.46-.33.65-.78,1.1-1.34,1.33-.56.23-1.18.27-1.87.13.15,1.79.22,2.68.37,4.47,0,.07,0,.12-.03.16-.03.07-.09.11-.18.13-.09.02-.17.01-.24-.03-.26-.13-.4-.2-.66-.34-.16-.08-.25-.18-.28-.29-.03-.11-.06-.22-.07-.33-.13-1.7-.2-2.55-.32-4.25-.96-.49-1.43-.74-2.39-1.24-.68,1.31-1.02,1.96-1.7,3.27-.04.08-.11.14-.2.16-.09.02-.18.01-.28-.04-.28-.15-.42-.22-.7-.36ZM967.37,271.52c.9.47,1.35.7,2.25,1.16.68.35,1.26.48,1.73.39.47-.09.84-.4,1.11-.93.27-.52.3-1,.11-1.44-.19-.44-.63-.84-1.32-1.19-.9-.46-1.34-.69-2.24-1.16-.66,1.27-.99,1.9-1.65,3.17Z"/>
      <path class="cls-10" d="M975.99,281.97c-.79-.4-1.4-.86-1.83-1.4-.43-.53-.67-1.14-.7-1.82-.04-.68.12-1.43.49-2.23.18-.38.36-.74.53-1.08.17-.34.36-.71.56-1.07.42-.76.94-1.33,1.52-1.69.58-.36,1.21-.53,1.9-.51.69.02,1.41.22,2.15.6.74.37,1.32.82,1.75,1.36.43.54.67,1.15.73,1.83.06.68-.1,1.43-.46,2.22-.17.38-.34.75-.51,1.1-.17.35-.36.7-.57,1.07-.42.77-.92,1.36-1.49,1.73-.57.37-1.2.54-1.88.52-.69-.03-1.42-.24-2.2-.63ZM976.53,280.88c.7.35,1.37.44,2.01.27.64-.17,1.2-.69,1.67-1.55.21-.37.39-.71.54-1.02.15-.3.31-.65.48-1.03.27-.59.4-1.13.37-1.61s-.18-.88-.45-1.23c-.27-.35-.63-.64-1.09-.86-.45-.23-.9-.35-1.34-.36-.44,0-.86.12-1.26.37-.4.26-.77.68-1.08,1.25-.2.36-.37.71-.53,1.01-.15.3-.33.65-.51,1.03-.41.88-.49,1.65-.24,2.27.25.62.72,1.1,1.42,1.45Z"/>
      <path class="cls-10" d="M982.22,284.92c-.1-.05-.17-.12-.19-.2-.03-.08-.02-.17.02-.25,1.65-3.35,2.48-5.02,4.14-8.37.05-.09.11-.16.19-.18.08-.03.17-.02.27.03.25.12.38.19.63.31.11.05.18.12.21.19s.05.13.04.16c.53,3.51.8,5.27,1.36,8.78,1.25-2.57,1.87-3.86,3.12-6.43.05-.09.11-.16.19-.19.08-.03.17-.02.27.03.26.13.39.19.66.32.1.05.17.11.2.2.03.08.03.17-.02.27-1.62,3.36-2.43,5.04-4.06,8.4-.04.09-.11.14-.2.18-.09.03-.18.02-.27-.02-.27-.13-.4-.19-.66-.32-.1-.05-.17-.11-.19-.19-.03-.08-.04-.13-.05-.15-.57-3.49-.85-5.23-1.39-8.72-1.25,2.55-1.88,3.82-3.13,6.36-.04.09-.11.14-.19.17-.09.03-.18.01-.28-.04-.27-.13-.4-.2-.66-.33Z"/>
      <path class="cls-10" d="M991.84,289.59c-.09-.04-.16-.11-.19-.19-.03-.08-.03-.17.01-.26,1.62-3.37,2.42-5.05,4.04-8.42.05-.09.11-.16.2-.18.09-.03.17-.02.27.02.27.13.41.2.69.33.11.05.18.12.21.2.03.08.05.14.05.18.16,2.64.25,3.96.42,6.6,2.17-1.53,3.25-2.3,5.4-3.84.03-.03.09-.05.16-.08.07-.03.17-.02.28.04.27.13.4.19.67.32.1.05.17.11.2.2.03.08.03.17-.02.27-1.58,3.38-2.37,5.08-3.95,8.46-.04.09-.1.14-.19.17-.09.03-.18.02-.28-.03-.27-.13-.41-.19-.68-.32-.09-.04-.16-.11-.19-.19-.03-.08-.03-.17,0-.26,1.2-2.55,1.79-3.82,2.99-6.37-1.71,1.26-2.57,1.88-4.29,3.13-.08.07-.16.11-.26.12-.1.01-.2,0-.31-.06-.17-.08-.26-.12-.43-.2-.12-.06-.2-.12-.24-.2-.04-.08-.07-.17-.07-.28-.13-2.13-.19-3.19-.31-5.31-1.21,2.54-1.82,3.81-3.03,6.35-.04.09-.1.14-.19.17-.09.03-.18.02-.27-.03-.27-.13-.41-.2-.68-.33Z"/>
      <path class="cls-10" d="M1002.87,294.79c-.1-.05-.17-.11-.2-.19-.03-.08-.02-.17.02-.25,1.57-3.39,2.36-5.08,3.93-8.47.04-.1.11-.16.19-.19.08-.03.17-.02.27.02,2.28,1.06,3.42,1.58,5.7,2.62.1.05.17.11.2.19.03.08.02.17-.02.27-.09.2-.14.3-.23.49-.04.1-.1.16-.18.18-.08.03-.17.02-.27-.03-1.88-.86-2.82-1.29-4.7-2.15-.53,1.14-.79,1.71-1.31,2.84,1.76.81,2.64,1.22,4.41,2.02.1.05.17.11.2.19.03.08.02.17-.02.27-.09.19-.13.29-.22.48-.04.09-.1.15-.18.18-.08.03-.17.02-.27-.02-1.77-.81-2.65-1.21-4.41-2.03-.54,1.18-.82,1.77-1.36,2.95,1.94.9,2.91,1.34,4.85,2.22.1.05.17.11.2.19.03.08.03.16-.02.26-.09.2-.14.3-.23.51-.04.09-.1.15-.18.18-.08.03-.17.02-.28-.02-2.35-1.07-3.52-1.61-5.87-2.7Z"/>
      <path class="cls-10" d="M1011.32,298.66c-.1-.05-.17-.11-.2-.19-.03-.08-.03-.17.01-.25,1.54-3.4,2.31-5.11,3.85-8.51.04-.1.1-.16.19-.19.08-.03.17-.02.27.02.25.11.38.17.64.29.11.05.18.11.22.18s.05.12.05.15c.64,3.49.97,5.23,1.64,8.72,1.16-2.61,1.74-3.92,2.9-6.54.04-.1.1-.16.18-.19.08-.03.17-.03.27.02.27.12.4.18.67.29.1.05.17.11.21.19.03.08.03.17-.01.27-1.51,3.41-2.26,5.12-3.77,8.53-.04.09-.1.15-.19.18-.09.03-.18.03-.27-.01-.27-.12-.4-.18-.67-.3-.1-.05-.17-.11-.2-.18-.03-.08-.05-.13-.06-.15-.68-3.46-1.02-5.19-1.67-8.66-1.16,2.59-1.75,3.88-2.91,6.47-.04.09-.1.15-.19.17-.09.03-.18.02-.28-.03-.27-.12-.4-.18-.67-.3Z"/>
      <path class="cls-10" d="M1023.2,303.93c-.09-.04-.16-.1-.19-.19-.04-.08-.04-.17,0-.26,1.34-3.08,2.01-4.63,3.36-7.71-1.07-.46-1.6-.7-2.67-1.17-.09-.04-.16-.1-.19-.19-.04-.08-.03-.17,0-.26.1-.22.14-.33.24-.55.04-.1.11-.16.19-.19s.17-.02.27.02c2.67,1.17,4.01,1.76,6.7,2.91.1.04.17.11.21.19.04.08.03.17,0,.27-.09.22-.14.33-.24.55-.04.09-.1.15-.18.18-.08.03-.18.02-.28-.02-1.06-.46-1.6-.69-2.66-1.15-1.34,3.09-2.01,4.63-3.34,7.72-.04.09-.1.15-.19.18-.09.03-.18.02-.28-.02-.29-.13-.44-.19-.73-.32Z"/>
    </g>
    <g>
      <path class="cls-3" d="M1065.52,319.45c-.85-.32-1.52-.72-2-1.2-.48-.48-.79-.98-.93-1.52-.14-.53-.13-1.05.04-1.52.03-.08.08-.14.16-.17.08-.03.16-.03.24,0,.64.25.96.37,1.6.61.11.04.2.1.25.18.05.08.08.16.09.26,0,.28.05.52.15.73.1.21.24.39.42.54.18.15.39.27.63.36.3.11.61.16.91.14.3-.02.57-.12.81-.3.24-.17.42-.43.55-.77.11-.29.14-.58.08-.86-.06-.28-.19-.52-.4-.75-.21-.22-.47-.39-.79-.51-.25-.09-.46-.14-.63-.15-.18,0-.33,0-.46.05-.13.04-.25.07-.36.09-.11.03-.21.02-.32-.02-.63-.24-.94-.36-1.57-.6-.08-.03-.15-.09-.19-.17-.04-.08-.04-.16-.01-.24.9-1.77,1.35-2.65,2.26-4.42.07-.12.15-.19.26-.23.1-.04.21-.03.33.01,2.18.83,3.27,1.25,5.46,2.07.1.04.18.1.22.19.04.09.05.18,0,.28-.16.43-.24.64-.4,1.07-.03.09-.09.15-.18.19-.09.04-.19.04-.29,0-1.63-.61-2.45-.92-4.08-1.54-.38.75-.57,1.13-.96,1.88.23-.04.51-.06.82-.05.31.01.72.11,1.22.3.45.17.86.4,1.21.7.36.29.65.63.87,1.02.22.39.35.8.4,1.24.05.44-.02.9-.2,1.37-.24.64-.61,1.15-1.12,1.51-.5.37-1.11.57-1.81.62-.7.05-1.46-.08-2.29-.4Z"/>
      <path class="cls-3" d="M1074.83,322.9c-.68-.25-1.24-.56-1.66-.92-.42-.36-.73-.77-.93-1.21-.2-.44-.29-.91-.29-1.4,0-.49.08-.99.24-1.49.08-.24.17-.52.28-.82.11-.3.22-.6.34-.91.12-.3.23-.58.33-.82.2-.48.46-.91.79-1.28.32-.37.71-.65,1.14-.86.44-.2.93-.31,1.49-.31.55,0,1.16.11,1.82.36.66.24,1.19.54,1.61.9.41.36.72.76.93,1.2.2.44.31.9.32,1.39,0,.49-.06.99-.21,1.49-.08.25-.17.54-.28.84-.11.31-.21.61-.33.91-.11.3-.22.57-.32.81-.2.48-.47.91-.79,1.29-.32.38-.7.67-1.13.88s-.93.32-1.49.33c-.56,0-1.17-.12-1.85-.36ZM1075.47,321.16c.55.2,1.02.18,1.4-.07.38-.25.69-.66.92-1.23.1-.26.21-.52.31-.8.11-.28.21-.55.3-.83.1-.28.18-.54.26-.79.18-.56.21-1.06.08-1.51-.13-.44-.47-.78-1.01-.98-.55-.2-1.03-.16-1.41.09-.38.26-.68.66-.9,1.21-.1.24-.2.49-.31.77-.11.28-.21.55-.31.83-.1.28-.19.55-.28.81-.19.59-.23,1.1-.1,1.53.13.43.47.75,1.02.95Z"/>
    </g>
    <path class="cls-8" d="M923.96,279.74c46.5,25.92,94.42,48.05,144.32,66.61"/>
    <g>
      <path class="cls-10" d="M1119.1,339.51c-.11-.03-.18-.09-.22-.17-.04-.08-.04-.16-.02-.25,1.11-3.57,1.66-5.35,2.77-8.92.03-.1.08-.17.16-.21.08-.04.17-.05.27-.01,2.37.73,3.55,1.1,5.92,1.81.11.03.18.09.22.16.04.08.04.17.01.27-.06.21-.09.31-.16.52-.03.1-.08.17-.16.21-.07.04-.16.04-.27,0-1.95-.59-2.93-.89-4.88-1.49-.37,1.2-.55,1.8-.92,2.99,1.83.57,2.75.85,4.58,1.4.11.03.18.09.22.16.04.08.04.17.01.27-.06.2-.09.3-.15.51-.03.09-.08.16-.16.2-.08.04-.17.05-.27.02-1.84-.56-2.75-.84-4.59-1.4-.38,1.24-.57,1.86-.96,3.1,2.01.62,3.02.93,5.04,1.54.11.03.18.08.22.16.04.07.05.16.02.26-.06.21-.1.32-.16.53-.03.09-.08.16-.16.2-.08.04-.17.05-.27.01-2.44-.74-3.66-1.11-6.1-1.87Z"/>
      <path class="cls-10" d="M1131.07,343.29c-.89-.26-1.58-.64-2.08-1.12-.49-.48-.81-1.05-.94-1.7-.13-.65-.11-1.35.09-2.09.1-.38.22-.78.35-1.21.13-.43.26-.84.38-1.23.24-.73.61-1.33,1.07-1.8.46-.47,1.03-.77,1.7-.91.67-.14,1.45-.08,2.33.18.66.2,1.21.45,1.66.77.45.32.79.67,1.04,1.06.25.39.4.79.47,1.2s.04.82-.04,1.2c-.02.08-.06.15-.14.18-.08.04-.16.04-.25.02-.32-.09-.48-.14-.79-.23-.09-.03-.15-.07-.2-.13-.05-.06-.07-.16-.07-.29.04-.76-.12-1.34-.49-1.74-.37-.4-.88-.69-1.55-.89-.78-.23-1.45-.2-2.03.08-.57.28-1.01.88-1.31,1.78-.25.74-.48,1.51-.69,2.3-.24.92-.2,1.66.13,2.21.33.55.89.94,1.67,1.17.67.2,1.27.23,1.79.1.53-.13.98-.53,1.35-1.2.06-.11.13-.18.21-.21.08-.03.16-.03.24,0,.32.09.48.14.8.23.09.03.15.07.2.14.05.07.05.14.02.22-.14.36-.34.73-.62,1.04-.28.32-.63.57-1.05.77-.42.2-.91.31-1.46.33s-1.17-.06-1.83-.26Z"/>
      <path class="cls-10" d="M1140.76,346.09c-.84-.24-1.51-.58-2.02-1.02-.51-.44-.85-.99-1.01-1.64-.16-.66-.14-1.43.07-2.28.1-.4.21-.79.32-1.17.11-.37.22-.76.35-1.16.27-.83.67-1.48,1.16-1.95.49-.47,1.08-.76,1.75-.87.67-.11,1.4-.05,2.19.17.78.22,1.42.55,1.94,1,.51.45.86,1,1.04,1.66.18.66.16,1.42-.04,2.27-.1.41-.19.8-.3,1.17-.1.37-.23.76-.35,1.16-.27.84-.64,1.51-1.12,1.98-.48.47-1.06.76-1.73.87-.67.1-1.42.04-2.24-.19ZM1141.09,344.92c.74.21,1.4.17,1.99-.12s1.03-.91,1.34-1.84c.13-.41.25-.77.34-1.1.09-.33.18-.7.28-1.1.15-.63.18-1.19.06-1.65s-.33-.83-.66-1.12c-.32-.29-.73-.5-1.21-.64-.48-.14-.93-.17-1.36-.09-.43.08-.81.28-1.15.61s-.62.81-.82,1.43c-.13.4-.23.76-.33,1.09-.09.33-.2.7-.3,1.11-.24.94-.17,1.71.18,2.27.35.56.9.94,1.64,1.15Z"/>
      <path class="cls-10" d="M1147.33,347.78c-.11-.03-.18-.08-.22-.16-.04-.08-.05-.16-.02-.25.99-3.6,1.49-5.4,2.49-9,.03-.1.08-.17.15-.22.07-.04.16-.05.27-.02.27.07.4.11.66.18.12.03.2.08.24.15.04.07.07.11.07.14,1.14,3.34,1.73,5.01,2.9,8.35.74-2.76,1.11-4.14,1.86-6.91.03-.1.08-.17.15-.22.07-.04.16-.05.27-.02.28.07.42.11.69.19.11.03.18.08.23.16.05.08.06.17.03.27-.96,3.6-1.44,5.41-2.41,9.01-.02.09-.08.16-.16.21-.08.05-.17.06-.27.03-.28-.08-.42-.11-.7-.19-.11-.03-.18-.08-.22-.15-.04-.07-.07-.12-.08-.14-1.18-3.31-1.77-4.96-2.92-8.28l-1.88,6.84c-.03.09-.08.16-.16.2-.08.04-.17.05-.28.02-.28-.08-.42-.12-.7-.19Z"/>
      <path class="cls-10" d="M1160.79,351.53c-.84-.22-1.52-.54-2.04-.97-.52-.43-.87-.97-1.04-1.62-.17-.65-.17-1.42.02-2.28.09-.4.2-.8.29-1.17.1-.37.2-.77.32-1.16.25-.83.64-1.5,1.12-1.98.48-.48,1.06-.78,1.72-.91.67-.13,1.4-.09,2.19.12.78.2,1.43.52,1.95.96.52.43.88.98,1.07,1.63.19.65.19,1.41,0,2.27-.09.41-.17.8-.27,1.18-.1.37-.21.76-.33,1.16-.25.84-.61,1.52-1.08,2-.47.48-1.04.79-1.71.91-.67.12-1.41.07-2.24-.14ZM1161.09,350.35c.74.19,1.4.14,1.98-.17.58-.3,1.01-.93,1.3-1.87.12-.41.23-.78.32-1.11.08-.33.17-.7.25-1.11.14-.64.15-1.19.03-1.65-.13-.46-.35-.82-.68-1.11-.33-.28-.74-.49-1.22-.61-.48-.13-.94-.15-1.36-.06-.43.09-.8.3-1.13.63-.33.34-.6.82-.79,1.45-.12.4-.22.77-.3,1.1-.09.33-.18.7-.28,1.12-.22.95-.13,1.71.23,2.26s.92.92,1.66,1.11Z"/>
      <path class="cls-10" d="M1167.38,353.07c-.1-.02-.17-.07-.22-.15-.05-.08-.06-.16-.04-.25.91-3.62,1.37-5.43,2.28-9.05.03-.1.08-.17.16-.22.08-.04.17-.05.26-.03.29.07.44.11.72.18.12.03.2.08.24.15.04.07.07.13.08.17.66,2.55,1,3.82,1.68,6.37,1.8-1.94,2.69-2.91,4.48-4.85.03-.03.08-.07.14-.11.07-.04.16-.05.27-.02.28.07.43.1.71.17.11.03.18.08.23.15.05.08.06.16.04.27-.88,3.63-1.32,5.45-2.19,9.08-.02.09-.07.16-.15.21-.08.05-.17.05-.28.03-.29-.07-.43-.1-.72-.17-.1-.02-.17-.07-.22-.15-.05-.08-.06-.16-.04-.25.67-2.73,1-4.1,1.66-6.84-1.41,1.58-2.12,2.36-3.55,3.93-.06.08-.14.14-.23.17-.09.03-.19.03-.31,0-.18-.04-.27-.07-.45-.11-.13-.03-.22-.08-.27-.15-.06-.07-.1-.15-.12-.26-.53-2.05-.8-3.08-1.32-5.13-.68,2.73-1.03,4.09-1.71,6.82-.02.09-.07.16-.15.2-.08.04-.17.05-.26.03-.29-.07-.43-.11-.72-.18Z"/>
      <path class="cls-10" d="M1181.78,356.57c-.1-.02-.17-.07-.22-.15-.05-.07-.06-.16-.04-.25.31-1.31.46-1.97.77-3.29-.88-2.6-1.31-3.91-2.17-6.51,0-.03,0-.06,0-.09,0-.03,0-.06,0-.1.02-.07.06-.13.13-.17.07-.04.15-.05.22-.03.3.07.45.11.76.18.09.02.16.06.22.12.06.06.09.13.1.21.7,2.07,1.06,3.11,1.78,5.18,1.56-1.54,2.34-2.31,3.9-3.85.07-.06.14-.11.21-.14.07-.03.15-.03.24-.01.3.07.45.1.74.17.09.02.15.06.2.13.05.07.06.14.04.21,0,.04-.02.07-.04.09-.02.03-.04.05-.06.07-1.92,1.95-2.88,2.93-4.82,4.87-.31,1.31-.46,1.97-.77,3.29-.02.09-.07.16-.15.21-.08.05-.17.06-.28.03-.31-.07-.46-.11-.76-.18Z"/>
    </g>
    <g>
      <path class="cls-2" d="M1258.42,369.65c-.73-.11-1.35-.29-1.85-.54-.5-.25-.9-.53-1.19-.85-.3-.31-.5-.64-.62-.98-.12-.34-.17-.66-.13-.95.01-.08.05-.15.12-.2.07-.05.15-.06.24-.05.65.1.98.15,1.63.25.11.02.19.05.26.1.06.05.12.14.16.25.05.23.15.42.31.58.16.16.35.28.59.37.23.09.49.15.77.19.55.08,1.01.02,1.36-.18.35-.2.56-.52.63-.96.07-.45-.03-.8-.3-1.04-.27-.24-.67-.4-1.21-.48-.63-.09-.95-.14-1.58-.24-.1-.01-.18-.06-.24-.14-.06-.08-.08-.16-.07-.26.04-.28.06-.42.1-.69.02-.11.05-.2.11-.27.06-.07.11-.12.17-.15,1.15-.74,1.72-1.11,2.87-1.86-1.66-.24-2.49-.37-4.15-.62-.11-.02-.19-.06-.25-.14-.06-.08-.08-.16-.07-.26.07-.45.1-.68.17-1.13.02-.1.06-.18.14-.24.08-.06.17-.07.28-.06,2.61.4,3.91.59,6.52.97.11.02.19.06.25.14.06.08.08.17.07.27-.06.41-.09.61-.15,1.02-.01.1-.05.19-.1.25-.05.06-.11.11-.17.14-1.09.77-1.64,1.16-2.74,1.93.06.01.09.02.15.04.57.14,1.07.35,1.49.64.42.28.73.64.94,1.08.2.44.26.96.17,1.58-.09.64-.35,1.17-.79,1.58-.43.41-.98.69-1.65.85-.67.16-1.41.18-2.22.06Z"/>
      <path class="cls-2" d="M1268.23,371.05c-.71-.1-1.31-.28-1.8-.55-.48-.26-.87-.59-1.15-.98-.28-.39-.47-.83-.57-1.31-.1-.48-.13-.99-.08-1.51.02-.25.06-.54.1-.86.04-.32.09-.64.14-.96.05-.32.1-.61.15-.87.09-.52.26-.99.5-1.42.24-.43.55-.79.93-1.08.38-.29.84-.5,1.37-.62.53-.12,1.14-.14,1.83-.04.69.09,1.27.27,1.74.53.47.26.85.58,1.14.97.29.39.49.82.6,1.29.11.48.15.98.11,1.5-.02.26-.06.56-.09.88-.04.32-.08.64-.13.96-.05.32-.09.6-.14.85-.09.51-.26.99-.49,1.43-.23.44-.53.8-.91,1.1-.38.3-.84.51-1.37.64-.54.12-1.16.14-1.86.04ZM1268.48,369.21c.57.08,1.02-.04,1.34-.37.32-.32.53-.79.63-1.4.05-.27.09-.55.14-.85s.08-.58.12-.88c.03-.29.06-.57.09-.82.06-.59-.02-1.08-.23-1.49-.22-.41-.62-.66-1.18-.74-.57-.08-1.03.06-1.34.39-.31.33-.52.79-.62,1.37-.04.25-.09.53-.14.82-.05.29-.09.58-.12.88-.04.29-.07.58-.1.85-.06.62,0,1.12.23,1.52.22.4.61.63,1.19.71Z"/>
    </g>
    <path class="cls-8" d="M1114.03,361.71c50.1,15.05,100.78,26.22,152.57,33.61"/>
    <g>
      <path class="cls-10" d="M1319.79,377.83c-.87-.07-1.58-.26-2.15-.56-.57-.31-.99-.67-1.27-1.1-.28-.43-.42-.88-.39-1.32,0-.07.04-.14.11-.2.07-.06.15-.08.24-.07.3.03.46.04.76.06.12.01.21.05.26.11.06.06.09.13.1.21.04.23.15.47.32.71.17.24.43.45.77.62s.79.29,1.35.33c.86.07,1.5-.03,1.92-.28s.66-.63.7-1.11c.03-.33-.06-.61-.26-.83-.2-.22-.51-.43-.93-.63-.42-.2-.98-.42-1.65-.67-.71-.26-1.29-.53-1.75-.8-.46-.28-.79-.6-.99-.97-.2-.37-.28-.83-.23-1.37.04-.51.23-.96.55-1.34.32-.38.76-.67,1.32-.86.56-.19,1.22-.26,1.98-.19.61.05,1.14.17,1.59.36.45.19.81.43,1.1.72.29.29.5.58.63.9.13.31.2.62.18.9,0,.07-.03.13-.09.19-.05.06-.14.08-.24.07-.31-.02-.47-.04-.79-.06-.07,0-.14-.03-.21-.07-.07-.04-.12-.12-.15-.23-.03-.39-.23-.74-.6-1.04-.37-.3-.88-.47-1.51-.52-.64-.05-1.17.02-1.59.23-.42.2-.65.56-.69,1.06-.03.32.04.6.21.83.17.23.45.44.84.64.39.2.91.41,1.55.64.77.28,1.41.55,1.9.82.49.27.84.59,1.06.96.22.37.3.82.26,1.36-.05.6-.25,1.1-.61,1.49-.36.4-.85.68-1.46.86-.61.18-1.32.23-2.13.17Z"/>
      <path class="cls-10" d="M1324.89,378.09c-.08,0-.15-.04-.2-.1-.06-.06-.08-.13-.07-.21,0-.05.01-.1.03-.16,1.76-3.58,2.64-5.37,4.38-8.95.05-.09.11-.16.18-.22.07-.05.18-.07.32-.06.4.03.6.04,1.01.07.14,0,.24.05.3.11.06.06.11.14.15.24,1.2,3.79,1.81,5.69,3.05,9.48.02.06.02.11.02.16,0,.08-.04.14-.1.19-.06.05-.14.08-.22.07-.31-.02-.46-.03-.76-.05-.12,0-.21-.04-.26-.1-.05-.06-.09-.12-.1-.16-.27-.83-.41-1.25-.68-2.08-1.96-.13-2.94-.2-4.9-.35-.39.79-.58,1.18-.97,1.96-.01.05-.05.1-.12.15-.06.05-.16.07-.28.07-.31-.02-.46-.03-.76-.06ZM1327.54,374.77c1.61.12,2.42.18,4.03.29-.67-2.08-1-3.12-1.65-5.2-.94,1.97-1.42,2.95-2.37,4.92Z"/>
      <path class="cls-10" d="M1335.97,378.86c-.11,0-.19-.04-.25-.11-.06-.07-.08-.15-.07-.24.24-3.73.36-5.59.6-9.32,0-.1.04-.19.1-.24.06-.06.15-.08.26-.08,2.42.15,3.63.23,6.04.37.11,0,.19.04.25.11.06.07.09.15.08.26-.01.23-.02.34-.03.57,0,.11-.04.18-.11.24-.07.05-.16.08-.26.07-1.98-.11-2.97-.17-4.95-.3-.08,1.33-.13,2-.21,3.33,1.87.12,2.8.17,4.67.28.11,0,.19.04.26.11.06.07.09.15.08.26-.01.23-.02.34-.03.57,0,.1-.04.17-.11.23-.07.06-.16.08-.27.08-1.87-.11-2.81-.16-4.68-.28-.1,1.54-.15,2.31-.24,3.85,0,.09-.04.17-.11.23-.07.06-.16.08-.27.08-.3-.02-.45-.03-.75-.05Z"/>
      <path class="cls-10" d="M1344.71,379.38c-.11,0-.19-.04-.25-.11-.06-.06-.08-.15-.08-.24.2-3.73.31-5.59.51-9.32,0-.1.04-.19.1-.25.06-.06.15-.08.26-.08,2.45.13,3.67.2,6.12.31.11,0,.19.04.25.1s.08.15.08.25c-.01.22-.02.33-.03.54,0,.1-.04.18-.1.24s-.15.08-.26.07c-2.02-.1-3.03-.15-5.05-.26-.07,1.25-.1,1.88-.17,3.13,1.89.1,2.84.15,4.73.24.11,0,.19.04.25.1.06.06.08.15.08.25-.01.21-.02.32-.03.53,0,.1-.04.17-.1.23-.06.06-.15.09-.26.08-1.9-.09-2.84-.14-4.74-.24-.07,1.3-.1,1.94-.17,3.24,2.08.11,3.12.16,5.21.26.11,0,.19.04.25.1.06.06.08.14.08.25-.01.22-.02.33-.03.56,0,.09-.04.17-.1.23-.06.06-.15.09-.26.08-2.52-.12-3.78-.18-6.31-.32Z"/>
      <path class="cls-10" d="M1356.08,379.93c-.1,0-.18-.04-.24-.1-.06-.06-.09-.14-.09-.24.14-3.36.22-5.04.36-8.4-1.14-.05-1.71-.07-2.85-.13-.1,0-.18-.04-.24-.1-.06-.06-.09-.14-.09-.24.01-.24.02-.36.03-.6,0-.1.04-.19.11-.25.07-.06.15-.09.25-.08,2.86.13,4.29.19,7.15.3.11,0,.19.04.26.1.06.06.09.15.09.25,0,.24-.01.36-.02.6,0,.1-.04.17-.11.23-.07.06-.15.09-.26.08-1.13-.04-1.7-.07-2.84-.11-.14,3.36-.21,5.04-.35,8.4,0,.1-.04.17-.11.23-.07.06-.16.09-.27.08-.31-.01-.47-.02-.78-.03Z"/>
      <path class="cls-10" d="M1365.27,380.28c-.1,0-.18-.04-.24-.1-.06-.06-.09-.14-.09-.24.04-1.35.07-2.02.11-3.37-1.36-2.38-2.04-3.57-3.38-5.96,0-.03-.02-.06-.03-.09,0-.03-.01-.06-.01-.1,0-.08.03-.14.1-.2.06-.06.13-.08.21-.08.31.01.46.02.77.03.09,0,.17.03.24.07.07.04.11.11.14.18,1.09,1.89,1.64,2.84,2.74,4.73,1.22-1.82,1.83-2.72,3.04-4.54.05-.07.11-.13.18-.17.07-.04.14-.06.23-.06.3,0,.45.01.76.02.09,0,.16.03.22.09.06.06.09.13.08.2,0,.04,0,.07-.02.1-.01.03-.03.06-.05.08-1.49,2.29-2.24,3.44-3.74,5.73-.04,1.35-.06,2.02-.11,3.37,0,.1-.04.17-.1.23-.07.06-.16.09-.27.08-.31,0-.47-.01-.78-.03Z"/>
    </g>
    <g>
      <path class="cls-11" d="M1456.45,377.65c-.09,0-.17-.02-.23-.08-.06-.06-.1-.13-.1-.22,0-.04,0-.08.02-.13,1.21-3.15,1.81-4.72,3-7.87-1.82.13-2.73.19-4.55.3-.1,0-.19-.02-.27-.08-.08-.06-.12-.14-.13-.24-.03-.49-.05-.73-.08-1.21,0-.1.02-.19.09-.26.07-.07.15-.11.25-.12,2.68-.17,4.02-.26,6.7-.45.12,0,.21.02.28.08.07.06.11.15.11.25.03.43.05.64.08,1.07.01.14,0,.26-.01.35-.02.09-.05.19-.09.29-1.18,3.14-1.77,4.7-2.97,7.83-.03.06-.07.13-.14.22-.07.09-.18.14-.34.15-.65.04-.98.07-1.63.11Z"/>
      <path class="cls-11" d="M1467.65,376.99c-.72.06-1.34,0-1.87-.15-.53-.16-.97-.4-1.33-.72-.36-.32-.64-.71-.84-1.16-.2-.45-.34-.94-.4-1.45-.03-.25-.06-.54-.09-.86s-.05-.64-.07-.96c-.02-.32-.03-.62-.04-.89-.02-.52.04-1.02.18-1.49.14-.47.36-.89.67-1.25.31-.37.71-.67,1.2-.9.49-.23,1.08-.38,1.77-.43.69-.05,1.29,0,1.81.15.52.16.96.39,1.32.7.36.32.65.69.86,1.14.21.44.36.93.42,1.44.03.26.06.56.09.88.03.32.06.64.08.96.02.32.04.61.05.86.02.52-.05,1.02-.18,1.5-.13.47-.35.9-.65,1.27-.31.37-.71.68-1.2.91-.5.24-1.1.38-1.81.44ZM1467.51,375.14c.58-.04.99-.26,1.23-.64.24-.38.34-.88.32-1.5-.01-.28-.03-.56-.05-.86-.02-.3-.04-.59-.07-.88-.03-.29-.06-.57-.09-.83-.07-.59-.25-1.06-.54-1.41-.3-.35-.74-.52-1.3-.47-.57.04-.99.28-1.22.67-.23.39-.34.88-.31,1.47.01.26.02.53.04.83.02.3.04.59.07.88.03.29.06.58.09.85.07.62.25,1.1.54,1.44.3.34.73.49,1.31.44Z"/>
    </g>
    <path class="cls-8" d="M1317.15,400.83c51.88,3.91,103.5,3.95,155.39.11"/>
    <g>
      <path class="cls-10" d="M1522.22,372.29c-.91.12-1.69.07-2.34-.17-.64-.24-1.16-.63-1.54-1.17-.38-.54-.65-1.19-.77-1.95-.06-.38-.12-.8-.18-1.25-.06-.44-.11-.87-.15-1.28-.08-.76,0-1.46.24-2.08.23-.62.62-1.13,1.17-1.53.55-.4,1.28-.66,2.18-.79.68-.09,1.28-.09,1.82.02.53.11.99.29,1.38.54.38.26.69.56.92.9.23.35.37.73.46,1.11.02.08,0,.16-.05.22-.06.07-.13.1-.22.12-.33.05-.49.07-.81.11-.09.01-.17,0-.24-.04-.07-.04-.13-.12-.18-.23-.27-.71-.65-1.17-1.15-1.39-.5-.21-1.08-.27-1.76-.18-.8.11-1.4.41-1.8.9-.4.49-.55,1.22-.46,2.16.08.78.18,1.57.32,2.38.16.94.5,1.6,1.02,1.96.52.37,1.19.5,1.99.39.68-.09,1.24-.31,1.66-.65.42-.34.67-.89.73-1.65.01-.13.05-.22.11-.27.06-.06.13-.09.22-.1.33-.05.49-.07.82-.11.09-.01.17,0,.24.05.07.04.11.11.11.19.02.39,0,.8-.13,1.2-.12.4-.34.78-.64,1.13-.3.35-.7.65-1.19.9-.49.25-1.08.42-1.76.52Z"/>
      <path class="cls-10" d="M1532.3,370.85c-.83.12-1.57.09-2.21-.11-.64-.2-1.16-.56-1.57-1.09-.41-.53-.67-1.26-.8-2.17-.33-2.3-.5-3.45-.83-5.75-.01-.1,0-.19.05-.26.05-.07.13-.11.24-.13.3-.04.45-.06.75-.11.11-.02.2,0,.27.05.07.05.12.13.13.23.34,2.31.5,3.46.84,5.77.13.92.46,1.58.98,1.95.52.38,1.18.51,1.97.39.78-.12,1.37-.43,1.76-.94.39-.51.52-1.23.38-2.15-.35-2.31-.52-3.46-.87-5.77-.02-.1,0-.19.06-.26s.13-.11.23-.13c.31-.05.46-.07.76-.12.1-.01.18,0,.26.05.07.05.12.13.13.23.35,2.3.53,3.44.88,5.74.14.91.09,1.69-.14,2.31-.23.63-.63,1.13-1.18,1.5-.55.37-1.25.62-2.09.75Z"/>
      <path class="cls-10" d="M1539.12,369.67c-.11.02-.2,0-.27-.05-.07-.05-.11-.12-.12-.22-.57-3.7-.86-5.55-1.44-9.24-.01-.09,0-.18.05-.25.05-.07.13-.11.24-.13.31-.05.47-.07.78-.12.1-.02.18,0,.26.05.07.05.12.12.13.22.52,3.33.78,5,1.31,8.34,1.97-.31,2.95-.47,4.92-.79.11-.02.2,0,.27.05.07.05.12.13.14.23.04.23.06.34.09.56.02.09,0,.18-.06.25-.05.07-.14.12-.24.13-2.42.39-3.63.59-6.06.96Z"/>
      <path class="cls-10" d="M1547.98,368.25c-.1.02-.19,0-.26-.05-.07-.05-.12-.12-.14-.22-.55-3.32-.82-4.98-1.37-8.3-1.13.19-1.69.28-2.82.46-.1.02-.18,0-.26-.05-.07-.05-.12-.12-.13-.22-.04-.24-.06-.36-.1-.59-.02-.1,0-.19.06-.26.05-.07.13-.11.23-.13,2.83-.46,4.25-.69,7.08-1.17.11-.02.2,0,.27.05.07.05.12.13.14.23.04.24.06.36.1.59.02.09,0,.18-.06.25s-.13.12-.24.14c-1.12.19-1.68.29-2.81.47.55,3.32.83,4.98,1.38,8.29.02.09,0,.18-.06.25-.05.07-.14.12-.24.14-.31.05-.46.08-.77.13Z"/>
      <path class="cls-10" d="M1557.9,366.7c-.83.15-1.57.13-2.22-.05-.65-.18-1.18-.53-1.6-1.05s-.71-1.24-.87-2.15c-.39-2.29-.59-3.43-.98-5.72-.02-.1,0-.19.05-.26s.13-.12.23-.13c.3-.05.45-.08.75-.13.11-.02.2,0,.27.05.07.05.12.13.14.23.4,2.3.6,3.45,1,5.75.16.92.5,1.56,1.04,1.92.53.36,1.19.47,1.98.34.78-.14,1.36-.47,1.74-.99.38-.52.49-1.24.32-2.16-.41-2.3-.62-3.45-1.03-5.74-.02-.1,0-.19.05-.26.05-.07.13-.12.23-.13.3-.05.46-.08.76-.14.1-.02.18,0,.26.05.07.05.12.13.14.23.41,2.29.62,3.43,1.03,5.71.16.91.14,1.68-.08,2.32-.22.64-.6,1.15-1.14,1.53-.54.39-1.23.66-2.07.8Z"/>
      <path class="cls-10" d="M1564.69,365.33c-.11.02-.2,0-.27-.05-.07-.05-.11-.12-.13-.22-.68-3.67-1.01-5.51-1.69-9.18-.02-.1,0-.19.04-.26.05-.07.12-.12.23-.14,1.43-.26,2.14-.4,3.57-.67,1.1-.21,2.02-.13,2.76.25.74.37,1.2,1.05,1.39,2.02.14.72.06,1.34-.23,1.87s-.74.94-1.36,1.24c1.19,1.32,1.79,1.98,2.99,3.3.04.05.07.1.07.15.01.07,0,.15-.06.21-.05.07-.12.11-.2.13-.28.05-.43.08-.71.14-.17.03-.3.01-.39-.06s-.18-.14-.26-.21c-1.13-1.26-1.69-1.9-2.82-3.16-1.03.19-1.55.29-2.58.48.27,1.45.4,2.18.67,3.63.02.09,0,.18-.05.25-.05.07-.13.12-.24.14-.3.06-.45.08-.76.14ZM1564.84,359.98c.97-.18,1.46-.27,2.43-.45.74-.14,1.26-.39,1.56-.75.31-.36.4-.84.29-1.42-.11-.57-.37-.97-.78-1.2-.41-.23-.99-.28-1.73-.14-.97.18-1.45.27-2.42.45.26,1.41.39,2.11.65,3.52Z"/>
      <path class="cls-10" d="M1574.38,363.49c-.11.02-.2,0-.27-.04-.07-.05-.12-.12-.13-.21-.71-3.67-1.07-5.5-1.79-9.17-.02-.1,0-.19.04-.26.05-.07.12-.12.23-.14,2.42-.47,3.62-.71,6.04-1.2.11-.02.2,0,.27.04.07.05.12.12.14.23.04.21.06.32.11.53.02.1,0,.19-.04.26-.05.07-.12.11-.23.13-1.99.4-2.98.6-4.97.99.24,1.23.36,1.84.6,3.07,1.87-.37,2.8-.55,4.67-.93.11-.02.2,0,.27.04.07.05.12.12.14.23.04.21.06.31.1.52.02.09,0,.18-.04.25-.05.07-.12.12-.23.14-1.87.38-2.8.56-4.68.93.25,1.27.38,1.91.63,3.19,2.05-.4,3.08-.61,5.13-1.02.11-.02.2-.01.27.03.07.04.12.12.14.22.04.22.07.33.11.55.02.09,0,.18-.04.25-.05.07-.12.12-.23.14-2.49.5-3.73.75-6.22,1.24Z"/>
    </g>
    <g>
      <path class="cls-12" d="M1654.8,342.89c-.11.03-.2.02-.29-.02-.09-.04-.14-.12-.17-.22-.1-.33-.14-.49-.24-.82-.02-.07-.03-.18-.02-.31,0-.14.07-.29.19-.45.56-.94.83-1.41,1.39-2.35.55-.72,1-1.32,1.33-1.8.33-.49.56-.91.69-1.26.12-.35.15-.67.07-.94-.11-.36-.3-.62-.57-.79-.28-.17-.64-.19-1.1-.06-.31.09-.54.23-.71.41-.17.18-.28.39-.34.63-.06.23-.06.49-.04.73.01.12-.03.23-.11.3-.08.07-.17.12-.26.15-.61.18-.92.27-1.53.44-.1.03-.18.02-.26-.02-.07-.04-.12-.1-.14-.17-.12-.42-.13-.85-.07-1.28.07-.43.22-.83.46-1.22.24-.39.57-.73.98-1.04.41-.3.91-.54,1.49-.71.8-.24,1.51-.31,2.13-.22.62.09,1.13.31,1.54.67.41.36.7.82.87,1.4.13.44.16.87.08,1.3-.08.43-.24.87-.49,1.32-.25.45-.57.93-.96,1.44-.49.85-.74,1.27-1.23,2.12,1.58-.46,2.36-.69,3.94-1.16.11-.03.2-.03.29.02.09.04.15.12.18.22.14.47.21.7.35,1.16.03.1.02.19-.03.28-.05.08-.13.14-.23.17-2.87.86-4.31,1.28-7.18,2.11Z"/>
      <path class="cls-12" d="M1667.88,339.14c-.69.21-1.32.3-1.87.26-.55-.04-1.04-.17-1.47-.41-.42-.24-.78-.55-1.07-.95-.29-.39-.53-.84-.71-1.33-.09-.24-.17-.52-.27-.82-.1-.3-.19-.61-.28-.92-.09-.31-.17-.6-.23-.86-.13-.51-.18-1.01-.14-1.5.04-.49.17-.95.39-1.37.23-.43.56-.81.99-1.14.44-.34.99-.61,1.65-.81.67-.2,1.27-.29,1.82-.25.54.04,1.03.17,1.46.4.43.23.79.53,1.09.92.3.39.55.83.73,1.32.09.25.18.53.28.84.1.31.2.62.29.92.09.31.17.59.23.83.13.5.18,1.01.15,1.5-.03.49-.15.96-.37,1.39s-.55.82-.99,1.16c-.44.34-1,.61-1.69.82ZM1667.34,337.37c.56-.17.91-.47,1.07-.9.15-.43.15-.94-.01-1.54-.07-.27-.15-.54-.23-.83-.08-.28-.17-.57-.26-.85-.09-.28-.18-.54-.27-.79-.19-.56-.47-.98-.84-1.25-.37-.28-.84-.34-1.39-.17-.55.17-.91.49-1.06.92-.15.43-.14.94.01,1.51.07.25.14.52.22.8.08.28.17.57.26.85s.18.55.27.81c.2.59.48,1.02.85,1.28.37.27.83.32,1.39.15Z"/>
    </g>
    <path class="cls-8" d="M1524.18,395.37c51.79-7.38,102.47-18.53,152.58-33.56"/>
    <path class="cls-9" d="M923.96,279.74c23.31,13,46.94,25.12,71.11,36.46"/>
    <path class="cls-8" d="M1114.03,361.71c50.1,15.05,100.78,26.22,152.57,33.61"/>
    <path class="cls-4" d="M1114.03,361.71c17.39,5.24,34.84,10.07,52.45,14.53"/>
    <path class="cls-7" d="M1317.15,400.83c35.74,2.71,71.39,3.63,107.22,2.78"/>
    <path class="cls-6" d="M1524.18,395.37c14.24-2.02,28.41-4.27,42.58-6.75"/>
    <path class="cls-8" d="M923.96,279.74c46.5,25.92,94.42,48.05,144.32,66.61"/>
    <path class="cls-8" d="M1114.03,361.71c50.1,15.05,100.78,26.22,152.57,33.61"/>
    <path class="cls-8" d="M1317.15,400.83c51.88,3.91,103.5,3.95,155.39.11"/>
    <path class="cls-8" d="M1524.18,395.37c51.79-7.38,102.47-18.53,152.58-33.56"/>
    <path class="cls-5" d="M923.96,279.74c23.31,13,46.94,25.12,71.11,36.46"/>
    <path class="cls-8" d="M1114.03,361.71c50.1,15.05,100.78,26.22,152.57,33.61"/>
    <path class="cls-4" d="M1114.03,361.71c17.39,5.24,34.84,10.07,52.45,14.53"/>
    <path class="cls-7" d="M1317.15,400.83c35.74,2.71,71.39,3.63,107.22,2.78"/>
    <path class="cls-6" d="M1524.18,395.37c14.24-2.02,28.41-4.27,42.58-6.75"/>
    <g>
      <path class="cls-10" d="M1713.79,324.86c-.08.03-.15.02-.23,0-.08-.03-.13-.09-.15-.16-.02-.05-.03-.1-.04-.15.16-3.99.23-5.99.36-9.98,0-.1.03-.19.08-.27.05-.08.13-.14.27-.19.38-.14.58-.21.96-.35.13-.05.24-.06.33-.03.09.03.16.08.23.16,2.68,2.96,4.02,4.43,6.73,7.37.04.05.07.09.08.14.03.07.02.14-.02.22-.04.07-.09.13-.17.16-.29.11-.44.16-.73.27-.11.04-.21.05-.28.01-.07-.03-.13-.07-.16-.11-.6-.64-.9-.97-1.49-1.61-1.87.69-2.8,1.04-4.67,1.72-.04.88-.05,1.32-.09,2.19,0,.05,0,.11-.05.18-.04.07-.11.13-.23.17-.29.11-.44.16-.73.26ZM1714.88,320.74c1.54-.56,2.31-.84,3.84-1.41-1.47-1.62-2.21-2.43-3.67-4.05-.06,2.19-.1,3.28-.17,5.47Z"/>
      <path class="cls-10" d="M1727.48,319.92c-.87.33-1.66.45-2.34.37s-1.28-.35-1.78-.78c-.5-.43-.9-1.01-1.2-1.72-.15-.36-.3-.75-.46-1.17-.16-.42-.31-.82-.44-1.21-.25-.73-.32-1.43-.23-2.08.09-.65.36-1.24.81-1.76.45-.52,1.11-.94,1.98-1.27.65-.25,1.25-.38,1.8-.4.55-.02,1.05.05,1.48.21.43.16.8.38,1.11.67.3.29.53.63.7.98.04.07.04.15,0,.23-.04.08-.1.13-.19.16-.31.12-.47.18-.78.3-.08.03-.17.04-.24.02-.08-.02-.15-.08-.23-.19-.43-.63-.91-.99-1.44-1.09-.54-.09-1.13-.01-1.78.23-.76.29-1.29.72-1.58,1.29-.29.57-.28,1.31.03,2.21.25.74.53,1.49.85,2.25.37.88.85,1.44,1.44,1.68.6.24,1.28.21,2.05-.08.65-.25,1.15-.59,1.49-1.01s.46-1.02.35-1.77c-.02-.13,0-.22.04-.29.04-.07.11-.12.19-.15.31-.12.47-.18.78-.3.09-.03.17-.04.25-.01.08.03.13.08.15.16.11.37.17.78.14,1.2-.03.42-.16.84-.38,1.25-.22.41-.54.79-.97,1.15-.43.36-.97.66-1.62.91Z"/>
      <path class="cls-10" d="M1736.95,316.26c-.87.34-1.65.47-2.34.4s-1.29-.33-1.79-.76c-.5-.43-.91-1-1.22-1.71-.15-.36-.31-.75-.47-1.17-.16-.42-.32-.82-.45-1.21-.25-.72-.34-1.42-.26-2.08.08-.65.35-1.24.79-1.77.45-.52,1.1-.95,1.96-1.29.65-.25,1.24-.39,1.8-.42.55-.02,1.05.04,1.48.2.44.16.81.37,1.11.66.31.28.54.62.71.97.04.07.04.15,0,.23-.04.08-.1.13-.19.17-.31.12-.46.18-.77.31-.08.03-.17.04-.24.02-.08-.02-.15-.08-.23-.19-.43-.63-.92-.98-1.46-1.07-.54-.09-1.13,0-1.78.25-.76.3-1.28.74-1.56,1.31-.28.58-.26,1.32.05,2.21.26.74.55,1.49.87,2.24.38.87.86,1.43,1.46,1.66.6.23,1.29.2,2.05-.1.65-.26,1.15-.6,1.48-1.03s.45-1.02.34-1.78c-.02-.13,0-.22.04-.29.04-.07.11-.12.19-.15.31-.12.47-.19.78-.31.08-.03.17-.04.25-.01.08.02.13.08.15.16.11.37.18.78.15,1.2-.03.42-.15.84-.36,1.25-.21.41-.53.8-.96,1.16-.43.36-.96.67-1.62.93Z"/>
      <path class="cls-10" d="M1743.09,313.67c-.1.04-.2.05-.28.01-.08-.03-.14-.1-.17-.18-1.39-3.47-2.08-5.2-3.47-8.67-.04-.1-.04-.19,0-.27.03-.08.1-.14.2-.18,2.31-.93,3.47-1.4,5.78-2.34.1-.04.19-.05.27-.01.08.03.14.1.18.2.08.2.12.3.21.5.04.1.04.18,0,.26-.03.08-.1.14-.21.18-1.9.78-2.86,1.17-4.76,1.93.47,1.16.7,1.74,1.17,2.91,1.79-.72,2.68-1.08,4.47-1.81.1-.04.19-.05.27-.01s.14.1.18.2l.2.49c.04.09.04.17,0,.25s-.1.14-.2.18c-1.79.73-2.68,1.09-4.48,1.82.49,1.2.73,1.81,1.21,3.01,1.97-.79,2.95-1.19,4.91-2,.1-.04.19-.05.27-.02.08.03.14.09.18.19.08.21.13.31.21.52.04.09.04.17,0,.25-.03.08-.1.14-.2.18-2.38.97-3.57,1.46-5.95,2.41Z"/>
      <path class="cls-10" d="M1754.56,309.13c-.82.34-1.55.51-2.21.5-.65,0-1.21-.14-1.66-.39-.45-.25-.78-.59-.96-.99-.03-.07-.03-.15.01-.23.04-.08.1-.14.18-.18.29-.12.43-.18.72-.3.11-.05.21-.05.29-.03.08.03.14.08.19.14.14.19.35.35.61.48.26.13.59.2.98.2.39,0,.85-.11,1.37-.33.81-.34,1.35-.72,1.61-1.15.27-.43.31-.87.12-1.31-.13-.31-.33-.51-.61-.62-.28-.1-.66-.15-1.13-.12-.47.02-1.08.08-1.8.18-.76.1-1.41.13-1.95.1-.54-.03-.99-.17-1.34-.41-.35-.24-.63-.6-.84-1.11-.2-.48-.24-.96-.12-1.44.12-.49.38-.95.8-1.38.42-.43.99-.8,1.71-1.1.58-.24,1.11-.38,1.6-.41.49-.04.93,0,1.32.13.39.12.72.29.98.5.27.21.46.45.58.71.03.06.03.13,0,.21-.02.08-.09.14-.19.18-.3.12-.44.19-.74.31-.07.03-.14.04-.22.03-.08,0-.17-.05-.24-.13-.21-.34-.55-.55-1.02-.64-.48-.09-1.01-.01-1.61.24-.61.25-1.05.57-1.34.94-.29.38-.33.8-.14,1.27.12.3.32.51.58.64.26.12.61.18,1.06.17.45,0,1.02-.06,1.7-.15.82-.11,1.53-.17,2.09-.16.57.02,1.03.13,1.4.36.36.22.65.59.86,1.09.23.55.28,1.09.13,1.61-.14.52-.45,1-.93,1.44-.47.44-1.09.82-1.85,1.14Z"/>
      <path class="cls-10" d="M1763.32,305.43c-.82.35-1.55.52-2.2.52-.65,0-1.21-.13-1.66-.37-.45-.25-.79-.58-.97-.98-.03-.07-.03-.15.01-.23.04-.08.1-.14.18-.18.29-.12.43-.18.72-.3.11-.05.21-.06.29-.03s.14.07.19.14c.15.19.35.35.62.48.27.13.59.19.98.19.39,0,.85-.12,1.37-.35.81-.35,1.34-.73,1.6-1.16.26-.43.3-.87.11-1.32-.13-.31-.34-.51-.62-.61-.28-.1-.66-.14-1.13-.11-.47.03-1.08.09-1.8.2-.76.11-1.41.15-1.95.12-.54-.03-.99-.16-1.35-.39-.36-.23-.64-.6-.85-1.1-.2-.47-.25-.95-.13-1.44.11-.49.38-.95.79-1.39.42-.44.98-.81,1.7-1.11.57-.25,1.11-.39,1.6-.43.49-.04.94,0,1.33.11.39.12.72.28.99.49.27.21.47.45.59.7.03.06.03.13,0,.21-.02.08-.08.14-.19.18-.3.13-.44.19-.74.32-.07.03-.14.04-.22.03-.08,0-.17-.05-.25-.13-.21-.33-.55-.54-1.03-.63-.48-.09-1.01,0-1.61.25-.6.26-1.05.58-1.33.96-.28.38-.33.8-.13,1.27.13.3.32.51.58.63.26.12.61.18,1.06.16.45-.01,1.02-.07,1.7-.17.82-.12,1.53-.19,2.09-.18.57,0,1.03.12,1.4.34.37.22.66.58.87,1.08.24.55.29,1.09.15,1.61-.14.52-.44,1.01-.91,1.45-.47.45-1.08.83-1.84,1.16Z"/>
    </g>
    <g>
      <path class="cls-1" d="M1841.31,266.16c-.1.05-.2.07-.29.05-.09-.02-.17-.08-.22-.17-.16-.3-.25-.45-.41-.75-.04-.07-.07-.17-.09-.3-.02-.14.01-.3.1-.48.36-1.05.53-1.57.89-2.62.4-.83.71-1.52.94-2.07s.37-1.01.42-1.39c.05-.38,0-.69-.13-.94-.18-.33-.42-.54-.73-.65-.31-.11-.68-.04-1.11.19-.29.16-.49.35-.63.56-.13.22-.2.45-.21.69,0,.24.04.49.11.72.04.12.02.23-.04.32-.06.09-.14.16-.23.21-.57.31-.86.47-1.43.78-.09.05-.18.06-.26.04-.08-.02-.14-.07-.18-.14-.2-.38-.31-.8-.33-1.24-.02-.43.05-.87.21-1.3.16-.43.41-.85.75-1.23.34-.39.79-.73,1.33-1.03.75-.41,1.44-.64,2.08-.7.64-.05,1.19.05,1.67.31.48.26.87.65,1.16,1.17.22.4.34.82.36,1.26.02.44-.06.91-.22,1.4-.16.5-.37,1.04-.65,1.63-.31.94-.47,1.41-.78,2.35,1.47-.81,2.2-1.21,3.67-2.03.1-.05.2-.07.29-.05.09.02.17.08.22.17.24.43.35.64.59,1.06.05.09.06.18.03.28-.03.09-.1.17-.19.22-2.68,1.49-4.02,2.22-6.7,3.68Z"/>
      <path class="cls-1" d="M1853.55,259.54c-.65.36-1.25.59-1.81.68-.56.09-1.07.07-1.54-.07-.47-.14-.89-.36-1.27-.68-.37-.32-.71-.7-.98-1.15-.14-.22-.28-.47-.44-.74-.16-.28-.32-.56-.47-.84-.15-.29-.29-.55-.41-.79-.24-.47-.39-.95-.46-1.43-.07-.49-.03-.96.1-1.43.14-.47.38-.92.75-1.34.36-.43.85-.82,1.48-1.17s1.21-.57,1.76-.66c.55-.09,1.06-.07,1.53.06.47.13.9.34,1.28.65.38.31.72.69,1,1.12.14.22.29.48.46.76.17.28.32.56.48.84.15.28.29.54.41.76.24.46.39.95.46,1.44.08.49.05.97-.08,1.44-.13.47-.38.93-.74,1.36-.37.43-.87.83-1.51,1.19ZM1852.64,257.93c.52-.29.81-.67.88-1.12.06-.45-.05-.95-.34-1.5-.13-.24-.26-.5-.4-.76-.14-.26-.29-.52-.44-.77-.15-.25-.29-.49-.43-.71-.31-.5-.68-.85-1.1-1.04-.42-.19-.91-.14-1.42.14-.52.29-.81.68-.86,1.14-.05.46.06.95.33,1.47.12.23.25.47.39.73.14.26.28.52.43.77.15.26.3.5.44.74.32.53.69.89,1.11,1.07.42.18.89.12,1.41-.17Z"/>
    </g>
    <path class="cls-8" d="M1722.82,346.35c49.89-18.56,97.82-40.69,144.32-66.61"/>
    <path class="cls-6" d="M1722.82,346.35c13.67-5.07,27.22-10.36,40.71-15.89"/>
    <path class="cls-8" d="M1722.82,346.35c49.89-18.56,97.82-40.69,144.32-66.61"/>
    <path class="cls-9" d="M1722.82,346.35c13.67-5.07,27.22-10.36,40.71-15.89"/>
  </g>
  <g id="layer1">
    <path id="path23303" class="cls-13" d="M1895.87,222.81c-5.42,3.76-6.78,11.25-3.02,16.67,3.76,5.42,11.24,6.77,16.66,3.01,5.42-3.76,6.78-11.23,3.02-16.65-.34-.5-1.02-.62-1.51-.28,0,0,0,0,0,0-.49.34-.61,1.02-.27,1.52,0,0,0,0,0,0,3.09,4.46,1.99,10.54-2.47,13.62s-10.54,1.99-13.63-2.46c-3.09-4.46-1.99-10.55,2.47-13.64.49-.34.61-1.02.27-1.51-.34-.5-1.02-.62-1.51-.28h0s0,0,0,0ZM1899.73,221.13c-.35.25-.53.68-.43,1.12.13.59.71.96,1.3.83.01,0,.02,0,.04,0,.59-.12.97-.71.84-1.3-.13-.59-.71-.96-1.29-.83-.02,0-.04,0-.05,0-.15.03-.28.09-.4.17h0ZM1903.98,221.05c-.23.17-.39.42-.44.7-.11.59.29,1.16.88,1.27.01,0,.02,0,.03,0,.59.11,1.16-.28,1.27-.87.11-.59-.29-1.16-.88-1.27-.02,0-.03,0-.04,0-.28-.05-.58.01-.82.18h0ZM1898.35,226.39c-.5.34-.62,1.02-.28,1.51,0,0,0,0,0,0l3.72,5.37c.24.34.64.51,1.05.45l4.82-.69c.59-.08,1.01-.64.92-1.23,0,0,0,0,0,0-.08-.59-.64-1.01-1.23-.92,0,0,0,0,0,0l-4.15.6-3.34-4.81c-.34-.5-1.02-.62-1.51-.28h0ZM1907.94,222.59c-.12.08-.22.19-.3.31-.33.51-.18,1.19.33,1.51.01,0,.02,0,.03.02.5.33,1.18.18,1.51-.32.33-.5.18-1.18-.32-1.51-.01,0-.02-.02-.04-.02-.38-.25-.86-.23-1.21.01h0Z"/>
  </g>
  <path class="cls-1" d="M827.19,194.97c-.15-.11-.23-.25-.26-.43-.03-.18.01-.34.12-.49l1.13-1.54c-1.01-.9-1.74-1.83-2.18-2.8-.44-.97-.64-1.89-.58-2.76.05-.88.3-1.65.75-2.31.1-.13.23-.21.39-.22.16-.02.31.02.44.12l1.96,1.44c.18.13.29.27.33.43.04.16.05.31.02.47-.1.36-.13.76-.09,1.21.04.45.22.92.53,1.42.31.5.8.99,1.46,1.48,1.06.78,1.97,1.18,2.74,1.2.77.03,1.38-.26,1.82-.87.31-.43.43-.87.34-1.32-.08-.46-.34-1.01-.77-1.65-.43-.64-1.04-1.43-1.82-2.37-.89-1.06-1.58-2.05-2.05-2.98-.47-.92-.69-1.81-.64-2.66.05-.85.39-1.71,1.04-2.59.83-1.13,1.95-1.79,3.35-1.98,1.4-.19,2.9.16,4.48,1.05l1.12-1.52c.11-.15.25-.23.43-.26s.34.01.49.12l1.34.99c.15.11.23.25.26.43.03.18-.01.34-.12.49l-1.15,1.56c.89.88,1.51,1.79,1.86,2.72.35.94.5,1.82.43,2.64-.06.82-.28,1.51-.65,2.04-.09.12-.2.19-.35.23-.15.04-.3,0-.45-.11l-2.05-1.5c-.13-.1-.24-.22-.31-.36-.07-.14-.09-.33-.04-.54.26-.51.27-1.1.02-1.78-.25-.68-.76-1.3-1.54-1.88-.79-.58-1.54-.9-2.23-.96-.69-.06-1.27.22-1.72.84-.3.41-.44.84-.4,1.28.04.44.25.96.63,1.56.38.6.94,1.34,1.66,2.24,1.04,1.19,1.82,2.26,2.34,3.21.52.94.75,1.84.71,2.68-.04.84-.38,1.69-1.01,2.56-.63.85-1.38,1.44-2.27,1.77s-1.86.41-2.9.24c-1.05-.17-2.13-.58-3.24-1.21l-1.12,1.52c-.11.15-.25.23-.43.26-.18.03-.34-.01-.49-.12l-1.34-.99Z"/>
</svg>