<?xml version="1.0" encoding="UTF-8"?>
<svg id="Menu_Texts" data-name="Menu Texts" xmlns="http://www.w3.org/2000/svg" viewBox="0 0 2817.33 1452.37">
  <defs>
    <style>
      .cls-1 {
        fill: #fff;
      }
    </style>
  </defs>
  <g>
    <path class="cls-1" d="M1359.44,557.61c-.13,0-.23-.04-.31-.13-.08-.08-.14-.16-.19-.22l-.61-.83c-.54.24-1.16.36-1.86.36-.84,0-1.57-.15-2.17-.44-.6-.29-1.07-.74-1.41-1.35-.33-.61-.51-1.38-.54-2.3-.01-.44-.01-.85-.01-1.26s0-.82.01-1.26c.03-.91.22-1.67.57-2.28s.83-1.07,1.44-1.37c.61-.3,1.32-.45,2.12-.45s1.52.15,2.13.45c.61.3,1.09.76,1.44,1.37s.53,1.37.55,2.28c.02.44.03.86.03,1.26s-.01.82-.03,1.26c-.05,1.36-.41,2.38-1.07,3.05l.98,1.4s.02.03.03.05c0,.02.01.06.01.11,0,.08-.01.15-.07.21-.06.06-.13.09-.22.09h-.8ZM1356.46,555.53c.75,0,1.37-.23,1.86-.68.49-.46.75-1.2.79-2.22.02-.45.03-.85.03-1.2s-.01-.75-.03-1.18c-.02-.68-.15-1.24-.38-1.67-.23-.43-.54-.74-.93-.94-.39-.2-.83-.3-1.34-.3s-.92.1-1.32.3c-.39.2-.7.51-.93.94-.23.43-.36.98-.39,1.67-.01.44-.01.83-.01,1.18s0,.75.01,1.2c.04,1.02.3,1.76.79,2.22.49.46,1.1.68,1.84.68Z"/>
    <path class="cls-1" d="M1366.73,556.79c-.83,0-1.55-.15-2.15-.45-.6-.3-1.06-.75-1.38-1.36-.32-.61-.48-1.4-.48-2.36v-6.04c0-.11.03-.2.09-.26.06-.06.14-.1.25-.1h.76c.11,0,.2.03.26.1.06.06.1.15.1.26v6.07c0,.97.23,1.69.68,2.16.46.47,1.08.7,1.87.7s1.41-.23,1.87-.7.69-1.19.69-2.16v-6.07c0-.11.03-.2.1-.26.06-.06.15-.1.25-.1h.77c.1,0,.18.03.25.1.06.06.1.15.1.26v6.04c0,.96-.16,1.75-.48,2.36s-.78,1.06-1.38,1.36c-.59.3-1.31.45-2.16.45Z"/>
    <path class="cls-1" d="M1372.34,556.64c-.08,0-.15-.03-.21-.09-.06-.06-.09-.13-.09-.21,0-.05,0-.1.01-.16l3.69-9.62c.04-.1.09-.18.16-.24s.17-.09.31-.09h1.01c.14,0,.24.03.31.09.07.06.12.14.16.24l3.67,9.62c.02.06.03.11.03.16,0,.08-.03.15-.09.21s-.13.09-.21.09h-.76c-.12,0-.21-.03-.26-.09-.05-.06-.09-.11-.11-.16l-.82-2.11h-4.88l-.82,2.11s-.04.1-.1.16c-.06.06-.15.09-.27.09h-.76ZM1374.72,553h4.02l-2.01-5.28-2.01,5.28Z"/>
    <path class="cls-1" d="M1383.34,556.64c-.11,0-.19-.03-.25-.1s-.09-.15-.09-.25v-9.73c0-.1.03-.18.09-.25.06-.06.14-.1.25-.1h.79c.1,0,.18.03.25.1.06.06.1.15.1.25v8.78h4.94c.11,0,.2.03.26.1.06.06.1.15.1.26v.59c0,.1-.03.18-.1.25-.06.06-.15.1-.26.1h-6.07Z"/>
    <path class="cls-1" d="M1391.72,556.64c-.11,0-.19-.03-.25-.1s-.09-.15-.09-.25v-9.73c0-.1.03-.18.09-.25.06-.06.14-.1.25-.1h.79c.11,0,.19.03.25.1.06.06.09.15.09.25v9.73c0,.1-.03.18-.09.25s-.14.1-.25.1h-.79Z"/>
    <path class="cls-1" d="M1398.06,556.64c-.1,0-.18-.03-.25-.1-.06-.06-.1-.15-.1-.25v-8.75h-2.86c-.1,0-.18-.03-.25-.1s-.1-.15-.1-.25v-.62c0-.11.03-.2.1-.26.06-.06.15-.1.25-.1h7.17c.11,0,.2.03.26.1.06.06.1.15.1.26v.62c0,.1-.03.18-.1.25-.06.06-.15.1-.26.1h-2.84v8.75c0,.1-.03.18-.1.25s-.15.1-.26.1h-.77Z"/>
    <path class="cls-1" d="M1407.18,556.64c-.1,0-.18-.03-.25-.1-.06-.06-.1-.15-.1-.25v-3.51l-3.59-6.07s-.02-.06-.03-.09c-.01-.03-.01-.06-.01-.1,0-.08.03-.15.09-.21.06-.06.13-.09.21-.09h.77c.09,0,.17.02.24.07.07.04.12.11.15.19l2.9,4.82,2.9-4.82c.05-.08.11-.14.17-.19.06-.04.14-.07.23-.07h.76c.09,0,.16.03.22.09s.09.13.09.21c0,.04,0,.07-.01.1-.01.03-.02.06-.04.09l-3.57,6.07v3.51c0,.1-.03.18-.1.25-.06.06-.15.1-.26.1h-.77Z"/>
    <path class="cls-1" d="M1420.64,556.79c-.85,0-1.58-.15-2.19-.44-.6-.29-1.07-.74-1.4-1.35-.33-.61-.51-1.38-.55-2.3-.01-.44-.01-.85-.01-1.26s0-.82.01-1.26c.04-.91.23-1.67.57-2.28.34-.61.82-1.07,1.43-1.37.61-.3,1.32-.45,2.13-.45s1.51.15,2.12.45c.61.3,1.09.76,1.44,1.37s.54,1.37.57,2.28c.02.44.03.86.03,1.26s-.01.82-.03,1.26c-.03.92-.21,1.69-.54,2.3-.33.61-.8,1.06-1.41,1.35-.61.29-1.33.44-2.17.44ZM1420.64,555.53c.75,0,1.37-.23,1.85-.68.48-.46.74-1.2.78-2.22.02-.45.03-.85.03-1.2s-.01-.75-.03-1.18c-.02-.68-.15-1.24-.38-1.67-.23-.43-.54-.74-.93-.94-.39-.2-.83-.3-1.32-.3s-.94.1-1.32.3c-.39.2-.7.51-.93.94-.23.43-.36.98-.39,1.67-.01.44-.01.83-.01,1.18s0,.75.01,1.2c.04,1.02.3,1.76.79,2.22.49.46,1.11.68,1.86.68Z"/>
    <path class="cls-1" d="M1427.3,556.64c-.11,0-.19-.03-.25-.1s-.09-.15-.09-.25v-9.71c0-.11.03-.2.09-.26.06-.06.14-.1.25-.1h6.07c.11,0,.2.03.26.1.06.06.1.15.1.26v.59c0,.11-.03.19-.1.25-.06.06-.15.09-.26.09h-4.97v3.47h4.67c.11,0,.2.03.26.1.06.06.1.15.1.26v.6c0,.1-.03.18-.1.25-.06.06-.15.1-.26.1h-4.67v4.02c0,.1-.03.18-.1.25-.06.06-.15.1-.26.1h-.74Z"/>
    <path class="cls-1" d="M1439.4,556.64c-.11,0-.19-.03-.25-.1s-.09-.15-.09-.25v-9.73c0-.1.03-.18.09-.25.06-.06.14-.1.25-.1h.79c.1,0,.18.03.25.1.06.06.1.15.1.25v8.78h4.94c.11,0,.2.03.26.1.06.06.1.15.1.26v.59c0,.1-.03.18-.1.25-.06.06-.15.1-.26.1h-6.07Z"/>
    <path class="cls-1" d="M1447.77,556.64c-.11,0-.19-.03-.25-.1s-.09-.15-.09-.25v-9.73c0-.1.03-.18.09-.25.06-.06.14-.1.25-.1h.79c.11,0,.19.03.25.1.06.06.09.15.09.25v9.73c0,.1-.03.18-.09.25s-.14.1-.25.1h-.79Z"/>
    <path class="cls-1" d="M1451.83,556.64c-.11,0-.19-.03-.25-.1s-.09-.15-.09-.25v-9.71c0-.11.03-.2.09-.26.06-.06.14-.1.25-.1h6.07c.11,0,.2.03.26.1.06.06.1.15.1.26v.59c0,.11-.03.19-.1.25-.06.06-.15.09-.26.09h-4.97v3.47h4.67c.11,0,.2.03.26.1.06.06.1.15.1.26v.6c0,.1-.03.18-.1.25-.06.06-.15.1-.26.1h-4.67v4.02c0,.1-.03.18-.1.25-.06.06-.15.1-.26.1h-.74Z"/>
    <path class="cls-1" d="M1460.52,556.64c-.11,0-.19-.03-.25-.1s-.09-.15-.09-.25v-9.71c0-.11.03-.2.09-.26.06-.06.14-.1.25-.1h6.14c.11,0,.19.03.25.1.06.06.09.15.09.26v.56c0,.11-.03.19-.09.25s-.14.09-.25.09h-5.06v3.26h4.73c.11,0,.19.03.25.1.06.06.09.15.09.26v.55c0,.1-.03.18-.09.25-.06.06-.14.1-.25.1h-4.73v3.38h5.18c.11,0,.19.03.25.09.06.06.09.14.09.25v.58c0,.1-.03.18-.09.25-.06.06-.14.1-.25.1h-6.26Z"/>
  </g>
  <g>
    <path class="cls-1" d="M1397.51,499.03c-1.48,0-2.78-.17-3.91-.52-1.13-.35-2.07-.83-2.83-1.46-.76-.62-1.33-1.35-1.71-2.18-.38-.83-.57-1.75-.57-2.74,0-1.2.3-2.25.89-3.13.59-.89,1.34-1.57,2.25-2.06-.74-.48-1.31-1.1-1.72-1.85-.41-.75-.62-1.62-.62-2.61,0-1.2.31-2.27.92-3.2.61-.93,1.52-1.67,2.74-2.22,1.21-.55,2.74-.82,4.57-.82s3.32.27,4.52.81,2.11,1.27,2.72,2.2c.61.93.92,1.99.92,3.2,0,.99-.2,1.87-.6,2.63-.4.76-.97,1.38-1.71,1.87.97.46,1.74,1.15,2.31,2.06.57.91.85,1.96.85,3.16,0,1.31-.34,2.48-1.01,3.51-.68,1.03-1.69,1.85-3.04,2.45-1.35.6-3.01.9-4.97.9ZM1397.51,495.39c.74,0,1.41-.13,2.03-.4.61-.26,1.09-.64,1.44-1.12.35-.48.52-1.05.52-1.71s-.17-1.25-.52-1.72-.83-.84-1.44-1.11c-.61-.26-1.29-.4-2.03-.4s-1.44.13-2.04.4c-.6.26-1.08.63-1.44,1.11-.36.47-.54,1.05-.54,1.72s.18,1.22.54,1.71c.36.49.84.86,1.44,1.12.6.26,1.28.4,2.04.4ZM1397.51,485.49c.65-.02,1.24-.15,1.77-.38.53-.23.95-.55,1.27-.96s.47-.89.47-1.44-.15-1.06-.46-1.47c-.31-.41-.72-.73-1.25-.96-.53-.23-1.13-.35-1.8-.35s-1.28.12-1.82.35c-.54.23-.95.55-1.25.96-.3.41-.44.9-.44,1.47s.15,1.06.44,1.47c.3.41.71.73,1.25.96.54.23,1.14.35,1.82.35Z"/>
    <path class="cls-1" d="M1418.61,499.03c-1.52,0-2.82-.22-3.91-.65-1.09-.43-1.98-1.03-2.69-1.8-.71-.77-1.23-1.67-1.58-2.69-.35-1.02-.55-2.11-.62-3.27-.02-.57-.04-1.21-.05-1.91-.01-.71-.01-1.42,0-2.14.01-.72.03-1.37.05-1.96.04-1.16.25-2.25.62-3.26.37-1.01.91-1.9,1.63-2.66.72-.76,1.62-1.35,2.71-1.79,1.09-.43,2.37-.65,3.84-.65s2.75.22,3.83.65c1.08.43,1.97,1.03,2.69,1.79.72.76,1.26,1.65,1.63,2.66.37,1.01.59,2.1.65,3.26.02.59.04,1.24.05,1.96.01.72.01,1.43,0,2.14-.01.71-.03,1.34-.05,1.91-.06,1.16-.27,2.25-.63,3.27-.36,1.02-.89,1.92-1.6,2.69-.71.77-1.6,1.37-2.69,1.8-1.09.43-2.38.65-3.88.65ZM1418.61,494.92c1.22,0,2.12-.4,2.69-1.2.57-.8.88-1.89.92-3.26.02-.61.04-1.24.05-1.9.01-.65.01-1.31,0-1.96-.01-.65-.03-1.27-.05-1.83-.04-1.31-.35-2.37-.92-3.2-.57-.82-1.47-1.24-2.69-1.27-1.24.02-2.15.44-2.71,1.27-.56.82-.86,1.89-.9,3.2-.02.57-.04,1.18-.05,1.83-.01.65-.01,1.31,0,1.96.01.65.03,1.29.05,1.9.04,1.37.35,2.46.92,3.26.57.8,1.47,1.2,2.69,1.2Z"/>
  </g>
  <g>
    <path class="cls-1" d="M1934.04,222.52c-1.06.74-2.08,1.21-3.04,1.41-.97.2-1.88.2-2.74-.03-.86-.22-1.67-.61-2.41-1.17-.74-.56-1.42-1.24-2.04-2.03-.29-.39-.61-.83-.96-1.31-.34-.48-.68-.97-1.02-1.47-.33-.5-.64-.96-.92-1.39-.54-.84-.94-1.72-1.18-2.62-.25-.9-.32-1.79-.2-2.67.11-.88.43-1.73.96-2.56.53-.83,1.31-1.61,2.34-2.32,1.05-.73,2.05-1.19,3.02-1.4.97-.2,1.88-.21,2.74,0s1.67.58,2.42,1.13c.75.56,1.43,1.23,2.03,2.04.32.4.65.84.99,1.34.34.49.68.98,1.02,1.47.34.49.63.94.88,1.37.54.84.94,1.71,1.21,2.6.26.89.35,1.78.25,2.67-.1.89-.41,1.75-.95,2.59-.54.84-1.34,1.63-2.4,2.36ZM1932.25,219.94c.97-.67,1.47-1.49,1.48-2.44.01-.95-.35-1.98-1.09-3.08-.27-.45-.56-.9-.87-1.34-.31-.44-.62-.89-.93-1.33-.31-.45-.62-.87-.93-1.25-.75-1.05-1.58-1.75-2.49-2.08-.91-.33-1.85-.17-2.82.51-.96.66-1.44,1.48-1.44,2.45,0,.97.35,1.99,1.05,3.08.28.4.57.83.88,1.29s.61.9.93,1.33c.31.44.62.87.92,1.31.79,1.07,1.63,1.77,2.54,2.08.9.31,1.83.14,2.77-.51Z"/>
    <path class="cls-1" d="M1948.79,212.29c-1.06.74-2.08,1.21-3.04,1.41-.97.2-1.88.2-2.74-.03s-1.67-.61-2.41-1.17c-.74-.56-1.42-1.24-2.04-2.03-.3-.39-.61-.83-.96-1.31-.34-.48-.69-.97-1.02-1.47-.33-.5-.64-.96-.92-1.39-.54-.84-.94-1.72-1.18-2.62s-.32-1.79-.2-2.67c.11-.88.43-1.73.96-2.56.53-.83,1.31-1.61,2.34-2.32,1.05-.73,2.05-1.19,3.02-1.4.97-.2,1.88-.21,2.74,0,.86.2,1.67.58,2.42,1.13.75.56,1.43,1.23,2.03,2.04.32.4.65.84.99,1.34.34.49.68.98,1.02,1.47.34.49.63.94.88,1.37.54.84.94,1.71,1.21,2.6.26.89.35,1.78.25,2.67-.1.89-.41,1.75-.95,2.59-.54.84-1.34,1.63-2.4,2.36ZM1947,209.71c.97-.67,1.47-1.49,1.48-2.44.01-.95-.35-1.98-1.09-3.08-.27-.45-.56-.9-.87-1.34-.31-.44-.61-.89-.93-1.33-.31-.45-.62-.87-.93-1.25-.75-1.05-1.58-1.75-2.49-2.08-.91-.33-1.85-.17-2.82.51-.96.66-1.44,1.48-1.44,2.45,0,.97.35,1.99,1.05,3.08.28.4.57.83.88,1.29s.61.9.93,1.34c.31.44.62.87.92,1.31.79,1.07,1.63,1.77,2.54,2.08.9.31,1.83.14,2.77-.51Z"/>
    <path class="cls-1" d="M1952.53,197.73c-.15.1-.31.14-.49.11-.18-.03-.32-.12-.42-.27l-1.48-2.13c-.11-.17-.16-.34-.12-.51.03-.18.12-.32.27-.42l2.22-1.54c.17-.11.34-.15.51-.12.18.03.32.13.44.29l1.48,2.13c.1.15.14.31.11.49-.03.18-.13.32-.29.44l-2.22,1.54ZM1957.98,205.59c-.15.1-.31.14-.49.11-.18-.03-.32-.12-.42-.27l-1.48-2.13c-.11-.16-.16-.34-.12-.51.03-.18.12-.32.27-.42l2.22-1.54c.17-.11.34-.16.51-.12.18.03.32.13.44.29l1.48,2.13c.1.15.14.31.11.49s-.13.32-.3.44l-2.22,1.54Z"/>
    <path class="cls-1" d="M1969.22,198.17c-1.29.89-2.52,1.43-3.7,1.62-1.18.19-2.24.09-3.17-.28-.93-.37-1.69-.94-2.25-1.69-.11-.12-.14-.26-.1-.41.04-.15.13-.27.26-.36l2.09-1.45c.16-.11.33-.18.48-.19.16-.01.33.05.5.17.46.35.93.56,1.4.66.47.09.94.08,1.4-.04.46-.12.89-.32,1.3-.6.54-.37.95-.82,1.24-1.34.29-.52.42-1.1.39-1.72-.03-.62-.27-1.25-.7-1.87-.38-.55-.84-.94-1.38-1.17-.53-.23-1.1-.3-1.71-.23s-1.19.31-1.76.7c-.42.29-.73.58-.92.87-.2.29-.34.57-.44.83-.09.26-.18.5-.25.7-.07.2-.19.37-.37.49l-2.07,1.43c-.13.09-.28.12-.45.1-.17-.03-.29-.11-.39-.25l-4.54-8.22c-.12-.2-.16-.4-.11-.59.05-.19.15-.34.32-.45l8.44-5.85c.15-.1.31-.14.49-.11.18.03.32.12.42.27l1.04,1.5c.1.15.14.31.11.49-.03.18-.12.32-.27.42l-6.49,4.5,2.18,3.91c.15-.37.38-.79.72-1.26.33-.48.9-.99,1.69-1.54.72-.5,1.48-.86,2.29-1.08.81-.22,1.63-.28,2.44-.2.82.09,1.58.34,2.31.76s1.36,1.02,1.91,1.82c.76,1.09,1.16,2.22,1.21,3.38.05,1.16-.22,2.28-.83,3.37-.6,1.08-1.52,2.05-2.77,2.92Z"/>
    <path class="cls-1" d="M1983.23,188.41c-1.05.73-2.04,1.23-2.98,1.5-.94.28-1.8.38-2.59.32-.79-.06-1.48-.25-2.07-.56-.59-.31-1.06-.7-1.41-1.17-.09-.13-.12-.28-.08-.43.04-.15.13-.27.26-.37l2.02-1.4c.15-.1.3-.16.44-.17.15-.01.32.04.52.17.41.31.86.48,1.33.51.47.03.94-.05,1.42-.23s.93-.43,1.38-.74c.9-.62,1.46-1.33,1.7-2.13.23-.79.08-1.59-.47-2.38-.55-.79-1.19-1.19-1.93-1.2-.74,0-1.55.29-2.43.91l-2.31,1.6c-.17.12-.33.16-.51.13-.17-.02-.31-.12-.43-.28l-.65-.94c-.1-.15-.16-.3-.17-.46-.01-.16,0-.3.02-.43l1.3-6.72-6.42,4.45c-.17.11-.33.15-.5.12-.17-.04-.31-.13-.41-.28l-1.03-1.48c-.11-.16-.16-.33-.13-.5.02-.17.12-.32.28-.43l9.63-6.68c.17-.11.34-.16.51-.12s.32.13.44.29l.93,1.35c.09.14.15.28.16.42.01.15,0,.28-.02.41l-1.11,6.69.29-.17c.96-.56,1.92-.92,2.86-1.07.94-.16,1.84-.05,2.68.32.84.37,1.6,1.04,2.28,2.01.71,1.02,1.04,2.07,1.02,3.17-.03,1.09-.37,2.16-1.03,3.19-.66,1.03-1.59,1.96-2.78,2.79Z"/>
  </g>
  <g>
    <path class="cls-1" d="M1961.83,229.34c-.06.04-.12.05-.18.04-.06-.01-.11-.04-.15-.1l-3.49-5.03-1.64,1.14c-.06.04-.12.05-.18.04-.06-.01-.11-.04-.15-.1l-.25-.36c-.04-.06-.06-.12-.05-.19.01-.06.05-.11.1-.15l4.13-2.86c.06-.04.13-.06.19-.05.06.01.12.05.16.11l.25.36c.04.06.05.12.04.18-.01.06-.05.12-.11.16l-1.64,1.13,3.49,5.03c.04.06.05.12.04.18-.01.06-.05.12-.11.16l-.45.31Z"/>
    <path class="cls-1" d="M1965.48,226.81c-.06.04-.12.06-.18.05-.06-.01-.11-.05-.15-.11l-3.88-5.6c-.04-.06-.06-.12-.05-.18,0-.06.04-.11.11-.16l.45-.31c.06-.04.12-.06.18-.05.06.01.11.05.15.11l3.88,5.6c.04.06.06.12.05.18,0,.06-.04.11-.11.16l-.45.31Z"/>
    <path class="cls-1" d="M1967.82,225.19c-.06.04-.12.05-.18.04-.06-.01-.11-.04-.15-.1l-3.88-5.59c-.04-.06-.06-.12-.05-.19.01-.06.05-.11.1-.15l.43-.3c.07-.05.13-.07.19-.06.06.01.1.02.13.04l4.2,2.21-.57-4.72s0-.07,0-.13c0-.06.05-.11.11-.16l.42-.29c.06-.04.13-.06.19-.05.06.01.12.05.16.11l3.88,5.59c.04.06.05.12.04.18-.01.06-.05.12-.11.16l-.42.29c-.06.04-.12.05-.18.04-.06-.01-.11-.04-.15-.1l-2.92-4.21.51,3.78c.02.07.01.14-.01.2-.02.06-.07.12-.14.17l-.27.18c-.07.05-.14.08-.2.07-.06,0-.13-.02-.19-.06l-3.37-1.79,2.92,4.21c.04.06.05.12.04.18-.01.06-.05.11-.1.15l-.42.29Z"/>
    <path class="cls-1" d="M1974.62,220.48c-.06.04-.12.06-.18.05-.06-.01-.11-.05-.15-.11l-3.88-5.59c-.04-.06-.06-.12-.05-.19,0-.06.04-.11.11-.16l3.54-2.45c.06-.04.12-.06.18-.05.06.01.11.05.16.11l.23.33c.04.06.06.12.05.18-.01.06-.05.11-.11.15l-2.91,2.02,1.3,1.87,2.72-1.89c.06-.04.12-.06.18-.04.06.01.11.05.16.11l.22.32c.04.06.06.12.05.18,0,.06-.04.11-.11.16l-2.72,1.89,1.35,1.94,2.98-2.07c.06-.04.12-.06.18-.05.06.01.11.05.15.11l.23.33c.04.06.05.12.05.18,0,.06-.04.11-.11.16l-3.6,2.5Z"/>
  </g>
  <g>
    <g>
      <path class="cls-1" d="M843.12,230.21c-.06-.05-.1-.1-.1-.16,0-.06.01-.12.05-.18l4.02-5.48c.05-.06.1-.1.16-.11.06-.01.12,0,.18.05l2.3,1.69c.42.31.71.63.88.96.16.33.22.66.18.99-.05.33-.18.64-.39.93-.17.23-.35.4-.55.51-.2.11-.39.18-.58.2-.19.02-.36.02-.5,0,.14.27.21.58.2.95,0,.37-.13.72-.39,1.06-.23.31-.5.54-.83.69-.33.16-.69.21-1.08.16-.39-.05-.79-.22-1.19-.52l-2.37-1.74ZM844.25,229.99l1.63,1.2c.36.26.71.37,1.05.32.34-.05.61-.22.82-.51.22-.3.3-.61.25-.95-.05-.34-.26-.64-.62-.9l-1.63-1.2-1.5,2.04ZM846.24,227.28l1.55,1.13c.36.26.69.38,1,.35.31-.03.56-.19.77-.47.21-.29.28-.57.2-.86s-.29-.56-.65-.82l-1.55-1.13-1.33,1.81Z"/>
      <path class="cls-1" d="M850.69,235.89c-.47-.35-.81-.73-1.03-1.14-.22-.42-.29-.86-.22-1.34.07-.48.3-.99.7-1.53l2.5-3.41c.05-.06.1-.1.16-.11.06-.01.12,0,.18.05l.43.31c.06.04.1.1.11.16,0,.06,0,.12-.05.19l-2.51,3.43c-.4.55-.57,1.05-.51,1.5.06.45.32.84.77,1.17.44.32.89.45,1.34.38.45-.07.88-.38,1.28-.93l2.51-3.43c.05-.06.1-.1.16-.11.06,0,.12,0,.18.05l.44.32c.06.04.09.09.1.16,0,.06,0,.12-.05.19l-2.5,3.41c-.4.54-.82.92-1.25,1.13-.44.21-.88.28-1.34.2-.46-.08-.93-.29-1.4-.64Z"/>
      <path class="cls-1" d="M854.62,238.65c-.06-.04-.1-.1-.1-.16s.01-.12.05-.18l4.02-5.48c.05-.06.1-.1.16-.11.06-.01.12,0,.18.05l1.91,1.4c.58.42.98.85,1.2,1.28.23.43.3.88.21,1.34-.09.46-.31.94-.66,1.43-.18.26-.34.48-.48.67-.14.19-.3.41-.49.65-.39.51-.79.87-1.2,1.09-.41.22-.84.29-1.31.2-.47-.09-.98-.34-1.55-.75l-1.95-1.43ZM855.77,238.39l1.28.94c.39.28.73.46,1.04.52.31.06.6.01.88-.15.28-.16.56-.43.85-.81.13-.16.25-.3.34-.43s.19-.25.28-.38.19-.27.3-.45c.39-.55.55-1.05.5-1.49-.05-.44-.37-.88-.96-1.3l-1.23-.91-3.27,4.45Z"/>
      <path class="cls-1" d="M862.29,244.41c-.5-.37-.85-.77-1.06-1.21-.21-.44-.28-.89-.22-1.36.06-.47.25-.94.56-1.41.18-.25.36-.51.57-.79.2-.28.4-.54.59-.79.35-.44.75-.75,1.17-.95.43-.2.88-.26,1.36-.19.48.07.97.29,1.46.65.39.29.69.59.9.92.21.33.34.64.41.95.06.31.07.59.03.84-.04.25-.11.45-.21.59-.03.05-.08.08-.13.09-.06,0-.11-.01-.17-.05l-.5-.36c-.06-.04-.09-.08-.1-.12,0-.04,0-.1.01-.17.06-.18.08-.39.07-.61s-.08-.45-.21-.69c-.13-.23-.34-.46-.63-.68-.45-.33-.9-.47-1.34-.43-.45.04-.89.33-1.32.87-.38.49-.75.98-1.1,1.5-.39.58-.53,1.09-.44,1.53.1.45.36.83.81,1.15.3.22.6.36.92.41.31.06.62.02.92-.1.3-.13.58-.37.84-.72l.26-.35-1.26-.92c-.06-.04-.09-.09-.1-.16,0-.06,0-.12.05-.19l.2-.27c.05-.06.1-.1.16-.11.06,0,.12,0,.18.05l1.9,1.39c.06.04.1.1.1.16,0,.06-.01.12-.06.18l-.59.81c-.34.46-.72.79-1.16.99-.44.2-.9.27-1.4.19s-.99-.29-1.48-.66Z"/>
      <path class="cls-1" d="M866.12,247.09c-.06-.04-.1-.1-.1-.16,0-.06.01-.12.05-.18l4.02-5.48c.05-.06.1-.1.16-.11.06-.01.12,0,.18.05l3.47,2.54c.06.05.1.1.1.16,0,.06-.01.12-.06.18l-.23.32c-.04.06-.1.1-.15.11-.06,0-.12,0-.18-.05l-2.86-2.09-1.35,1.84,2.67,1.96c.06.05.1.1.1.16,0,.06-.01.12-.06.18l-.23.31c-.04.06-.09.09-.15.1-.06.01-.12,0-.18-.05l-2.67-1.96-1.4,1.91,2.92,2.14c.06.04.1.1.11.16,0,.06,0,.12-.05.18l-.24.33c-.04.06-.09.09-.15.1-.06.01-.12,0-.18-.05l-3.54-2.59Z"/>
      <path class="cls-1" d="M872.5,251.77c-.06-.04-.09-.09-.1-.16,0-.06,0-.12.05-.18l3.62-4.94-1.61-1.18c-.06-.04-.09-.09-.1-.16-.01-.06,0-.12.05-.18l.26-.35c.05-.06.1-.1.16-.11.06,0,.12,0,.18.05l4.05,2.97c.06.04.1.1.11.16,0,.06,0,.13-.05.19l-.26.35c-.04.06-.09.09-.16.1-.06,0-.13,0-.19-.05l-1.6-1.18-3.62,4.94c-.04.06-.09.09-.16.1s-.13,0-.19-.05l-.44-.32Z"/>
    </g>
    <g>
      <path class="cls-1" d="M852.14,209.9c-.15-.11-.24-.25-.27-.44-.04-.18,0-.36.13-.52l8.03-10.95-4.97.12c-.21,0-.37-.06-.49-.19-.12-.13-.18-.3-.19-.51l-.05-2.24c0-.2.08-.36.21-.49.13-.13.29-.19.49-.18l7.87-.19c.13,0,.24.03.34.06.1.04.2.09.3.17l2.33,1.71c.15.11.23.25.26.43.03.18-.02.35-.14.51l-10.51,14.32c-.12.16-.27.26-.44.28-.18.03-.34-.01-.49-.12l-2.42-1.78Z"/>
      <path class="cls-1" d="M863.79,218.78c-1.06-.78-1.85-1.59-2.39-2.45-.54-.86-.85-1.73-.95-2.63-.1-.9,0-1.79.27-2.68.28-.89.69-1.75,1.24-2.59.28-.41.59-.86.94-1.36.35-.5.72-.99,1.09-1.49.37-.49.72-.94,1.04-1.34.62-.79,1.32-1.44,2.09-1.95.77-.52,1.6-.86,2.49-1.02.89-.16,1.82-.12,2.8.14.98.25,1.98.76,3.01,1.51,1.03.75,1.81,1.56,2.33,2.41.53.85.85,1.72.96,2.62.11.89.04,1.79-.22,2.68-.26.89-.67,1.76-1.21,2.6-.29.42-.61.88-.97,1.39-.36.5-.72,1-1.09,1.49-.37.49-.71.92-1.01,1.31-.64.78-1.34,1.43-2.11,1.96-.77.53-1.6.88-2.49,1.06-.89.17-1.82.14-2.79-.12-.98-.25-1.99-.76-3.03-1.53ZM865.89,215.92c.85.62,1.68.8,2.49.54.81-.27,1.57-.87,2.3-1.8.33-.41.66-.85,1-1.3.34-.45.68-.91,1-1.37s.63-.89.9-1.3c.64-.93.97-1.83.99-2.69.02-.86-.39-1.62-1.23-2.25-.88-.62-1.72-.79-2.53-.5-.81.29-1.56.87-2.26,1.76-.31.38-.63.8-.97,1.25s-.68.91-1,1.37c-.33.46-.64.91-.94,1.35-.67.98-1.01,1.89-1.03,2.74-.01.85.41,1.58,1.26,2.21Z"/>
      <path class="cls-1" d="M878.5,229.57c-1.06-.78-1.85-1.59-2.39-2.45s-.85-1.73-.95-2.63c-.1-.9,0-1.79.27-2.68.28-.89.69-1.75,1.24-2.59.28-.41.59-.86.94-1.36.35-.5.72-.99,1.09-1.49.37-.49.72-.94,1.04-1.34.62-.79,1.32-1.44,2.09-1.95.77-.52,1.6-.86,2.49-1.02.89-.16,1.82-.12,2.8.14.98.25,1.98.76,3.01,1.51,1.03.75,1.81,1.56,2.33,2.41.53.85.85,1.72.96,2.62.11.9.04,1.79-.22,2.68-.26.89-.66,1.76-1.21,2.6-.29.42-.61.89-.97,1.39-.36.5-.72,1-1.09,1.49-.37.49-.71.92-1.01,1.31-.64.78-1.34,1.43-2.11,1.96-.77.53-1.6.88-2.49,1.06-.89.18-1.82.14-2.79-.12s-1.99-.76-3.03-1.53ZM880.6,226.71c.85.62,1.68.8,2.49.54s1.57-.87,2.3-1.8c.33-.41.66-.85,1-1.3.34-.45.68-.9,1-1.37.33-.46.63-.89.9-1.3.64-.93.97-1.83.99-2.69.02-.86-.39-1.62-1.23-2.26-.88-.62-1.72-.79-2.53-.5-.81.29-1.56.88-2.26,1.76-.31.38-.63.8-.97,1.25s-.68.91-1,1.37c-.33.46-.64.91-.94,1.35-.67.98-1.01,1.89-1.03,2.74-.01.85.41,1.59,1.26,2.21Z"/>
      <path class="cls-1" d="M893.21,240.37c-1.06-.78-1.85-1.59-2.39-2.45-.54-.86-.85-1.73-.95-2.63-.1-.9,0-1.79.27-2.68.28-.89.69-1.75,1.24-2.59.28-.41.59-.86.95-1.36.35-.5.72-.99,1.09-1.49.37-.49.72-.94,1.03-1.34.62-.79,1.32-1.44,2.09-1.95.77-.52,1.6-.86,2.49-1.02.89-.16,1.82-.12,2.8.14.98.25,1.98.76,3.01,1.51,1.03.75,1.81,1.56,2.33,2.41.53.85.85,1.72.96,2.62.11.9.04,1.79-.22,2.68-.26.89-.66,1.76-1.21,2.6-.29.42-.61.88-.97,1.39-.36.5-.72,1-1.09,1.49-.37.49-.71.92-1.01,1.31-.64.78-1.34,1.43-2.11,1.96-.77.53-1.6.88-2.49,1.06-.89.17-1.82.13-2.79-.12s-1.99-.76-3.03-1.53ZM895.31,237.51c.85.62,1.68.8,2.49.54.81-.27,1.57-.87,2.3-1.8.33-.42.66-.85,1-1.3.34-.45.68-.91,1-1.37.33-.46.63-.9.9-1.3.64-.93.97-1.83.99-2.69.02-.86-.39-1.62-1.23-2.25-.88-.62-1.72-.79-2.53-.5-.81.29-1.56.88-2.26,1.76-.31.39-.63.8-.97,1.25-.34.45-.68.91-1,1.37-.33.46-.64.91-.94,1.35-.67.98-1.01,1.89-1.03,2.74-.01.85.41,1.59,1.26,2.21Z"/>
    </g>
  </g>
</svg>