<?xml version="1.0" encoding="UTF-8"?>
<svg id="New_Shape_copy_2" xmlns="http://www.w3.org/2000/svg" version="1.1" viewBox="0 0 2817.33 1452.37">
  <!-- Generator: Adobe Illustrator 29.1.0, SVG Export Plug-In . SVG Version: 2.1.0 Build 142)  -->
  <defs>
    <style>
      .st0 {
        fill: none;
        stroke: #1b75bb;
        stroke-miterlimit: 10;
        stroke-width: 3px;
      }
    </style>
  </defs>
  <path class="st0" d="M2025.91,150.43c-50.59-50.3-87.18-15.59-146.54,23.99-69.99,46.66-146.42,82.51-227.15,106.56-79.17,23.58-161.34,35.51-244.24,35.44-82.9-.07-165.06-12.12-244.19-35.83-80.71-24.18-157.09-60.17-227.01-106.96-59.64-39.9-96.76-74.41-147.35-23.52L233.79,708.66c-30.1,30.27-45.88,71.94-43.38,114.55,2.16,36.87,17.83,71.43,43.67,97.27,4.03,4.03,8.3,7.84,12.81,11.42,674.18,535.22,1652.27,534.5,2325.67-1.71,33.48-26.66,53.98-66.35,56.34-109.09,2.35-42.59-13.55-84.17-43.71-114.32-.1-.1-559.29-556.36-559.29-556.36Z"/>
</svg>