<?xml version="1.0" encoding="UTF-8"?>
<svg id="menu_stright_text" data-name="menu stright text" xmlns="http://www.w3.org/2000/svg" viewBox="0 0 1400 300">
  <defs>
    <style>
      .cls-1 {
        fill: aqua;
      }

      .cls-2 {
        fill: #ff9100;
      }

      .cls-3 {
        fill: #9cff00;
      }

      .cls-4 {
        fill: #fff;
      }

      .cls-5 {
        fill: #3386ff;
      }

      .cls-6 {
        fill: #f0f;
      }
    </style>
  </defs>
  <g>
    <path class="cls-4" d="M227.44,82.51c-.11,0-.19-.03-.25-.09-.06-.06-.09-.14-.09-.24v-9.45c0-.11.03-.19.09-.25.06-.06.14-.09.25-.09h5.97c.11,0,.19.03.25.09.06.06.09.15.09.25v.55c0,.11-.03.19-.09.25-.06.06-.14.09-.25.09h-4.92v3.17h4.6c.11,0,.19.03.25.09.06.06.09.15.09.25v.54c0,.1-.03.18-.09.24-.06.06-.14.09-.25.09h-4.6v3.28h5.03c.11,0,.19.03.25.09.06.06.09.14.09.25v.56c0,.1-.03.18-.09.24-.06.06-.14.09-.25.09h-6.09Z"/>
    <path class="cls-4" d="M236.2,82.51c-.11,0-.19-.03-.25-.09-.06-.06-.09-.14-.09-.24v-9.45c0-.11.03-.19.09-.25.06-.06.14-.09.25-.09h.67c.12,0,.2.03.26.08.06.05.09.09.1.12l4.8,7.38v-7.23c0-.11.03-.19.09-.25.06-.06.14-.09.25-.09h.69c.11,0,.19.03.25.09.06.06.09.15.09.25v9.43c0,.1-.03.18-.09.25-.06.07-.14.1-.24.1h-.69c-.11,0-.19-.03-.24-.09-.05-.06-.09-.1-.11-.12l-4.79-7.3v7.17c0,.1-.03.18-.09.24-.06.06-.15.09-.25.09h-.69Z"/>
    <path class="cls-4" d="M248.93,82.51c-.14,0-.26-.03-.34-.1s-.15-.16-.2-.27l-3.23-9.3c-.02-.06-.03-.11-.03-.16,0-.08.03-.14.09-.2.06-.06.13-.09.2-.09h.75c.12,0,.2.03.27.09.06.06.1.12.12.17l2.82,8.2,2.84-8.2s.06-.1.12-.17c.06-.06.14-.09.26-.09h.75c.08,0,.15.03.21.09.06.06.09.13.09.2,0,.05,0,.1-.03.16l-3.24,9.3c-.04.12-.1.21-.18.27s-.2.1-.34.1h-.94Z"/>
    <path class="cls-4" d="M255.73,82.51c-.11,0-.19-.03-.25-.09-.06-.06-.09-.14-.09-.24v-9.46c0-.1.03-.18.09-.24.06-.06.14-.09.25-.09h.77c.11,0,.19.03.25.09.06.06.09.14.09.24v9.46c0,.1-.03.18-.09.24-.06.06-.14.09-.25.09h-.77Z"/>
    <path class="cls-4" d="M259.68,82.51c-.11,0-.19-.03-.25-.09-.06-.06-.09-.14-.09-.24v-9.45c0-.11.03-.19.09-.25.06-.06.14-.09.25-.09h3.53c1.09,0,1.95.26,2.59.77s.95,1.27.95,2.27c0,.74-.19,1.35-.56,1.82s-.88.79-1.51.98l2.23,3.85c.03.06.04.11.04.16,0,.08-.03.15-.09.2-.06.06-.13.09-.21.09h-.69c-.16,0-.28-.04-.36-.13-.08-.09-.14-.17-.2-.26l-2.1-3.67h-2.53v3.73c0,.1-.03.18-.09.24-.06.06-.15.09-.25.09h-.74ZM260.76,77.21h2.39c.72,0,1.26-.15,1.62-.46.36-.3.54-.75.54-1.35s-.18-1.04-.53-1.35c-.35-.31-.89-.46-1.63-.46h-2.39v3.62Z"/>
    <path class="cls-4" d="M272.45,82.65c-.83,0-1.54-.14-2.13-.43-.59-.28-1.04-.72-1.36-1.32-.32-.59-.5-1.34-.54-2.23,0-.42-.01-.83-.01-1.22s0-.8.01-1.22c.04-.89.22-1.63.56-2.22.33-.59.8-1.04,1.39-1.33.59-.29,1.29-.44,2.08-.44s1.47.15,2.06.44c.59.29,1.06.74,1.4,1.33.34.59.52,1.33.55,2.22.02.42.03.83.03,1.22s0,.8-.03,1.22c-.03.9-.21,1.64-.53,2.23-.32.59-.78,1.03-1.37,1.32-.59.28-1.29.43-2.11.43ZM272.45,81.42c.73,0,1.33-.22,1.8-.67.47-.44.72-1.16.76-2.16.02-.43.03-.82.03-1.16s0-.73-.03-1.15c-.02-.67-.14-1.21-.37-1.62-.23-.41-.53-.72-.9-.91s-.81-.29-1.29-.29-.91.1-1.29.29-.68.5-.9.91c-.23.42-.35.95-.38,1.62,0,.42-.01.81-.01,1.15s0,.73.01,1.16c.04.99.29,1.71.77,2.16.47.44,1.08.67,1.81.67Z"/>
    <path class="cls-4" d="M278.93,82.51c-.11,0-.19-.03-.25-.09-.06-.06-.09-.14-.09-.24v-9.45c0-.11.03-.19.09-.25.06-.06.14-.09.25-.09h.67c.12,0,.2.03.26.08.06.05.09.09.1.12l4.8,7.38v-7.23c0-.11.03-.19.09-.25.06-.06.14-.09.25-.09h.69c.11,0,.19.03.25.09.06.06.09.15.09.25v9.43c0,.1-.03.18-.09.25-.06.07-.14.1-.24.1h-.69c-.11,0-.19-.03-.24-.09-.05-.06-.09-.1-.11-.12l-4.79-7.3v7.17c0,.1-.03.18-.09.24-.06.06-.15.09-.25.09h-.69Z"/>
    <path class="cls-4" d="M288.99,82.51c-.1,0-.18-.03-.24-.09-.06-.06-.09-.14-.09-.24v-9.45c0-.11.03-.19.09-.25s.14-.09.24-.09h.72c.12,0,.2.03.26.09s.1.11.12.14l3.05,5.84,3.08-5.84s.06-.09.11-.14c.05-.06.14-.09.25-.09h.71c.11,0,.19.03.25.09.06.06.09.15.09.25v9.45c0,.1-.03.18-.09.24-.06.06-.15.09-.25.09h-.71c-.1,0-.18-.03-.24-.09-.06-.06-.09-.14-.09-.24v-7.12l-2.42,4.72c-.04.1-.1.17-.17.22-.08.05-.17.08-.29.08h-.45c-.13,0-.22-.03-.29-.08-.07-.05-.13-.13-.17-.22l-2.43-4.72v7.12c0,.1-.03.18-.09.24-.06.06-.14.09-.24.09h-.71Z"/>
    <path class="cls-4" d="M300.47,82.51c-.11,0-.19-.03-.25-.09-.06-.06-.09-.14-.09-.24v-9.45c0-.11.03-.19.09-.25.06-.06.14-.09.25-.09h5.97c.11,0,.19.03.25.09.06.06.09.15.09.25v.55c0,.11-.03.19-.09.25s-.14.09-.25.09h-4.92v3.17h4.6c.11,0,.19.03.25.09.06.06.09.15.09.25v.54c0,.1-.03.18-.09.24-.06.06-.14.09-.25.09h-4.6v3.28h5.03c.11,0,.19.03.25.09s.09.14.09.25v.56c0,.1-.03.18-.09.24-.06.06-.14.09-.25.09h-6.09Z"/>
    <path class="cls-4" d="M309.24,82.51c-.11,0-.19-.03-.25-.09-.06-.06-.09-.14-.09-.24v-9.45c0-.11.03-.19.09-.25.06-.06.14-.09.25-.09h.67c.12,0,.2.03.26.08.06.05.09.09.1.12l4.8,7.38v-7.23c0-.11.03-.19.09-.25.06-.06.14-.09.25-.09h.69c.11,0,.19.03.25.09.06.06.09.15.09.25v9.43c0,.1-.03.18-.09.25-.06.07-.14.1-.24.1h-.69c-.11,0-.19-.03-.24-.09-.05-.06-.09-.1-.11-.12l-4.79-7.3v7.17c0,.1-.03.18-.09.24-.06.06-.15.09-.25.09h-.69Z"/>
    <path class="cls-4" d="M321.5,82.51c-.1,0-.18-.03-.24-.09-.06-.06-.09-.14-.09-.24v-8.51h-2.78c-.1,0-.18-.03-.24-.09-.06-.06-.09-.14-.09-.24v-.61c0-.11.03-.19.09-.25.06-.06.14-.09.24-.09h6.97c.11,0,.19.03.25.09.06.06.09.15.09.25v.61c0,.1-.03.18-.09.24s-.15.09-.25.09h-2.76v8.51c0,.1-.03.18-.09.24-.06.06-.15.09-.25.09h-.75Z"/>
  </g>
  <g>
    <path class="cls-3" d="M364.21,80.94c-.87,0-1.6-.14-2.18-.42-.59-.28-1.03-.65-1.34-1.1-.3-.45-.47-.94-.48-1.45,0-.09.03-.16.09-.22.06-.06.13-.09.22-.09h1.63c.12,0,.21.03.28.08.07.05.13.12.17.21.1.26.22.47.38.64s.34.28.56.36c.21.08.44.12.68.12.31,0,.59-.06.85-.2.26-.13.47-.32.62-.57.15-.25.23-.56.23-.93,0-.32-.07-.6-.22-.84-.14-.24-.35-.43-.61-.56-.26-.13-.55-.2-.88-.2-.25,0-.46.03-.61.09-.16.06-.29.13-.4.21-.11.08-.2.15-.29.22-.09.06-.18.09-.29.09h-1.61c-.09,0-.16-.03-.22-.09-.06-.06-.09-.14-.09-.22l.51-4.99c.02-.14.07-.24.15-.31.08-.07.18-.11.3-.11h5.61c.11,0,.19.03.26.1.07.07.1.15.1.26v1.16c0,.1-.03.18-.1.25-.07.07-.15.1-.26.1h-4.18l-.22,2.13c.19-.13.43-.24.72-.34.28-.1.68-.15,1.19-.15.46,0,.9.07,1.32.22s.79.37,1.12.66c.33.29.59.63.77,1.03.19.4.28.86.28,1.37,0,.69-.16,1.3-.49,1.83-.33.53-.8.94-1.4,1.23-.61.29-1.33.44-2.17.44Z"/>
    <path class="cls-3" d="M373.66,80.92c-.69,0-1.29-.1-1.79-.3s-.91-.47-1.23-.82c-.32-.35-.56-.76-.72-1.23s-.25-.97-.28-1.5c0-.26-.02-.55-.02-.88s0-.65,0-.98c0-.33.01-.63.02-.9.02-.53.11-1.03.28-1.49.17-.46.42-.87.75-1.22.33-.35.74-.62,1.24-.82.5-.2,1.08-.3,1.76-.3s1.26.1,1.75.3c.49.2.9.47,1.23.82.33.35.58.75.75,1.22s.27.96.3,1.49c0,.27.02.57.02.9,0,.33,0,.65,0,.98s-.01.61-.02.88c-.03.53-.13,1.03-.29,1.5-.16.47-.41.88-.73,1.23-.32.35-.73.63-1.23.82s-1.09.3-1.77.3ZM373.66,79.04c.56,0,.97-.18,1.23-.55.26-.37.4-.86.42-1.49,0-.28.02-.57.02-.87,0-.3,0-.6,0-.9,0-.3-.01-.58-.02-.84-.02-.6-.16-1.08-.42-1.46-.26-.38-.67-.57-1.23-.58-.57,0-.98.2-1.24.58s-.39.86-.41,1.46c0,.26-.02.54-.02.84s0,.6,0,.9c0,.3.01.59.02.87.02.63.16,1.12.42,1.49.26.37.67.55,1.23.55Z"/>
  </g>
  <g>
    <path class="cls-4" d="M418.69,82.51c-.11,0-.19-.03-.25-.09-.06-.06-.09-.14-.09-.24v-9.45c0-.11.03-.19.09-.25.06-.06.14-.09.25-.09h5.97c.11,0,.19.03.25.09.06.06.09.15.09.25v.55c0,.11-.03.19-.09.25-.06.06-.14.09-.25.09h-4.92v3.17h4.6c.11,0,.19.03.25.09.06.06.09.15.09.25v.54c0,.1-.03.18-.09.24-.06.06-.14.09-.25.09h-4.6v3.28h5.03c.11,0,.19.03.25.09.06.06.09.14.09.25v.56c0,.1-.03.18-.09.24-.06.06-.14.09-.25.09h-6.09Z"/>
    <path class="cls-4" d="M430.67,82.65c-.89,0-1.62-.16-2.21-.49-.58-.33-1.02-.79-1.32-1.37-.3-.59-.46-1.27-.49-2.05,0-.4-.01-.82-.01-1.27s0-.89.01-1.3c.03-.78.19-1.47.49-2.05.3-.59.74-1.05,1.32-1.37.58-.33,1.32-.49,2.21-.49.67,0,1.25.09,1.75.27.5.18.92.43,1.25.74s.59.65.76,1.03c.17.38.27.77.29,1.18,0,.09-.02.16-.08.22-.06.06-.14.09-.22.09h-.8c-.09,0-.16-.02-.22-.07s-.11-.14-.14-.26c-.16-.75-.47-1.27-.92-1.55-.45-.28-1.01-.42-1.67-.42-.78,0-1.4.22-1.85.66-.45.44-.69,1.14-.72,2.1-.03.79-.03,1.6,0,2.43.03.96.27,1.67.72,2.1.45.44,1.07.66,1.85.66.67,0,1.22-.14,1.67-.42.45-.28.75-.8.92-1.55.03-.12.07-.21.14-.26s.14-.07.22-.07h.8c.09,0,.16.03.22.08.06.05.09.12.08.21-.02.41-.12.8-.29,1.19-.17.39-.43.73-.76,1.04-.33.31-.75.55-1.25.74-.5.18-1.08.27-1.75.27Z"/>
    <path class="cls-4" d="M440.31,82.65c-.83,0-1.54-.14-2.13-.43-.59-.28-1.04-.72-1.36-1.32-.32-.59-.5-1.34-.54-2.23,0-.42-.01-.83-.01-1.22s0-.8.01-1.22c.04-.89.22-1.63.56-2.22.33-.59.8-1.04,1.39-1.33.59-.29,1.29-.44,2.08-.44s1.47.15,2.06.44c.59.29,1.06.74,1.4,1.33.34.59.52,1.33.55,2.22.02.42.03.83.03,1.22s0,.8-.03,1.22c-.03.9-.21,1.64-.53,2.23-.32.59-.78,1.03-1.37,1.32-.59.28-1.29.43-2.11.43ZM440.31,81.42c.73,0,1.33-.22,1.8-.67.47-.44.72-1.16.76-2.16.02-.43.03-.82.03-1.16s0-.73-.03-1.15c-.02-.67-.14-1.21-.37-1.62-.23-.41-.53-.72-.9-.91-.38-.19-.8-.29-1.29-.29s-.91.1-1.29.29c-.38.19-.68.5-.9.91-.23.42-.35.95-.38,1.62,0,.42-.01.81-.01,1.15s0,.73.01,1.16c.04.99.29,1.71.77,2.16.47.44,1.08.67,1.81.67Z"/>
    <path class="cls-4" d="M446.79,82.51c-.11,0-.19-.03-.25-.09-.06-.06-.09-.14-.09-.24v-9.45c0-.11.03-.19.09-.25.06-.06.14-.09.25-.09h.67c.12,0,.2.03.26.08.06.05.09.09.1.12l4.8,7.38v-7.23c0-.11.03-.19.09-.25.06-.06.14-.09.25-.09h.69c.11,0,.19.03.25.09.06.06.09.15.09.25v9.43c0,.1-.03.18-.09.25s-.14.1-.24.1h-.69c-.11,0-.19-.03-.24-.09-.05-.06-.09-.1-.11-.12l-4.79-7.3v7.17c0,.1-.03.18-.09.24s-.15.09-.25.09h-.69Z"/>
    <path class="cls-4" d="M460.15,82.65c-.83,0-1.54-.14-2.13-.43-.59-.28-1.04-.72-1.36-1.32-.32-.59-.5-1.34-.54-2.23,0-.42-.01-.83-.01-1.22s0-.8.01-1.22c.04-.89.22-1.63.56-2.22.33-.59.8-1.04,1.39-1.33.59-.29,1.29-.44,2.08-.44s1.47.15,2.06.44c.59.29,1.06.74,1.4,1.33.34.59.52,1.33.55,2.22.02.42.03.83.03,1.22s0,.8-.03,1.22c-.03.9-.21,1.64-.53,2.23-.32.59-.78,1.03-1.37,1.32-.59.28-1.29.43-2.11.43ZM460.15,81.42c.73,0,1.33-.22,1.8-.67.47-.44.72-1.16.76-2.16.02-.43.03-.82.03-1.16s0-.73-.03-1.15c-.02-.67-.14-1.21-.37-1.62-.23-.41-.53-.72-.9-.91s-.81-.29-1.29-.29-.91.1-1.29.29-.68.5-.9.91c-.23.42-.35.95-.38,1.62,0,.42-.01.81-.01,1.15s0,.73.01,1.16c.04.99.29,1.71.77,2.16.47.44,1.08.67,1.81.67Z"/>
    <path class="cls-4" d="M466.63,82.51c-.1,0-.18-.03-.24-.09-.06-.06-.09-.14-.09-.24v-9.45c0-.11.03-.19.09-.25s.14-.09.24-.09h.72c.12,0,.2.03.26.09.06.06.1.11.12.14l3.05,5.84,3.08-5.84s.06-.09.11-.14c.05-.06.14-.09.25-.09h.71c.11,0,.19.03.25.09.06.06.09.15.09.25v9.45c0,.1-.03.18-.09.24s-.15.09-.25.09h-.71c-.1,0-.18-.03-.24-.09s-.09-.14-.09-.24v-7.12l-2.42,4.72c-.04.1-.1.17-.17.22-.08.05-.17.08-.29.08h-.45c-.12,0-.22-.03-.29-.08-.07-.05-.13-.13-.17-.22l-2.43-4.72v7.12c0,.1-.03.18-.09.24-.06.06-.14.09-.24.09h-.71Z"/>
    <path class="cls-4" d="M480.82,82.51c-.1,0-.18-.03-.24-.09-.06-.06-.09-.14-.09-.24v-3.41l-3.49-5.9s-.02-.06-.03-.09c0-.03-.01-.06-.01-.1,0-.08.03-.14.09-.2.06-.06.12-.09.2-.09h.75c.09,0,.16.02.23.07.07.04.12.1.14.18l2.82,4.69,2.82-4.69c.05-.08.1-.14.17-.18s.14-.07.22-.07h.74c.09,0,.16.03.22.09s.09.13.09.2c0,.04,0,.07-.01.1,0,.03-.02.06-.04.09l-3.47,5.9v3.41c0,.1-.03.18-.09.24-.06.06-.15.09-.25.09h-.75Z"/>
  </g>
  <g>
    <path class="cls-2" d="M555.54,80.92c-.71,0-1.33-.09-1.84-.26s-.93-.4-1.26-.67c-.33-.27-.57-.57-.74-.89-.16-.32-.25-.63-.26-.93,0-.09.03-.16.09-.22.06-.06.13-.09.22-.09h1.59c.11,0,.19.02.26.07.07.04.13.12.19.22.08.22.2.4.38.54.17.14.38.23.61.28.24.05.49.08.76.08.54,0,.96-.13,1.27-.38.31-.25.46-.6.46-1.06s-.14-.8-.43-1c-.29-.2-.7-.3-1.23-.3h-1.55c-.1,0-.18-.03-.25-.1s-.1-.15-.1-.25v-.71c0-.12.02-.21.07-.29.04-.08.09-.13.14-.17l2.49-2.29h-4.08c-.11,0-.19-.03-.26-.1-.07-.07-.1-.15-.1-.25v-1.16c0-.11.03-.19.1-.26.07-.07.15-.1.26-.1h6.42c.11,0,.19.03.26.1.07.07.1.15.1.26v1.04c0,.11-.02.2-.06.27s-.09.13-.14.17l-2.36,2.33h.15c.57.07,1.08.21,1.52.43.44.22.79.54,1.05.95.26.41.38.93.38,1.55s-.18,1.22-.54,1.69c-.36.47-.84.84-1.46,1.09s-1.32.38-2.11.38Z"/>
    <path class="cls-2" d="M565.09,80.92c-.69,0-1.29-.1-1.79-.3s-.91-.47-1.23-.82c-.32-.35-.56-.76-.72-1.23s-.25-.97-.28-1.5c0-.26-.02-.55-.02-.88s0-.65,0-.98c0-.33.01-.63.02-.9.02-.53.11-1.03.28-1.49.17-.46.42-.87.75-1.22.33-.35.74-.62,1.24-.82.5-.2,1.08-.3,1.76-.3s1.26.1,1.75.3c.49.2.9.47,1.23.82.33.35.58.75.75,1.22s.27.96.3,1.49c0,.27.02.57.02.9,0,.33,0,.65,0,.98s-.01.61-.02.88c-.03.53-.13,1.03-.29,1.5-.16.47-.41.88-.73,1.23-.32.35-.73.63-1.23.82s-1.09.3-1.77.3ZM565.09,79.04c.56,0,.97-.18,1.23-.55.26-.37.4-.86.42-1.49,0-.28.02-.57.02-.87,0-.3,0-.6,0-.9,0-.3-.01-.58-.02-.84-.02-.6-.16-1.08-.42-1.46-.26-.38-.67-.57-1.23-.58-.57,0-.98.2-1.24.58s-.39.86-.41,1.46c0,.26-.02.54-.02.84s0,.6,0,.9c0,.3.01.59.02.87.02.63.16,1.12.42,1.49.26.37.67.55,1.23.55Z"/>
  </g>
  <g>
    <path class="cls-4" d="M615.21,82.07c-.84,0-1.54-.13-2.11-.39-.57-.26-1.01-.6-1.31-1.01-.3-.41-.47-.84-.48-1.29,0-.08.03-.15.09-.21.06-.06.14-.09.22-.09h.74c.12,0,.2.03.26.09s.1.13.12.2c.06.23.18.46.36.69.18.23.45.41.79.56.34.15.78.22,1.32.22.83,0,1.44-.15,1.83-.44.39-.29.59-.69.59-1.18,0-.34-.1-.61-.31-.82-.21-.21-.52-.39-.95-.56-.42-.16-.97-.34-1.65-.54-.7-.2-1.29-.42-1.75-.67s-.81-.54-1.03-.9c-.23-.36-.34-.81-.34-1.36,0-.52.14-.99.42-1.4.28-.41.68-.73,1.21-.98s1.17-.36,1.91-.36c.6,0,1.12.08,1.57.24.45.16.82.37,1.12.64.3.27.53.55.68.85s.24.6.25.89c0,.07-.02.13-.07.2-.05.06-.12.09-.23.09h-.77c-.07,0-.14-.02-.21-.06-.07-.04-.13-.11-.17-.22-.06-.4-.28-.73-.67-1-.39-.27-.89-.41-1.5-.41s-1.14.12-1.53.36-.59.62-.59,1.13c0,.33.09.6.27.82.18.22.47.41.87.57.4.16.91.34,1.55.52.77.21,1.4.44,1.89.67.49.24.86.53,1.09.88.24.35.35.8.35,1.35,0,.61-.16,1.13-.48,1.56-.32.43-.76.76-1.34.98s-1.25.34-2.03.34Z"/>
    <path class="cls-4" d="M620.13,81.92c-.08,0-.14-.03-.2-.09s-.09-.12-.09-.2c0-.05,0-.1.01-.16l3.59-9.36c.04-.1.09-.17.16-.23.07-.06.17-.09.3-.09h.98c.13,0,.24.03.3.09.07.06.12.14.16.23l3.57,9.36c.02.06.03.11.03.16,0,.08-.03.15-.09.2-.06.06-.12.09-.2.09h-.74c-.12,0-.2-.03-.25-.09-.05-.06-.09-.11-.11-.16l-.8-2.05h-4.74l-.8,2.05s-.04.1-.1.16c-.06.06-.14.09-.26.09h-.74ZM622.44,78.38h3.91l-1.95-5.14-1.95,5.14Z"/>
    <path class="cls-4" d="M630.83,81.92c-.11,0-.19-.03-.25-.09-.06-.06-.09-.14-.09-.24v-9.45c0-.11.03-.19.09-.25.06-.06.14-.09.25-.09h5.9c.11,0,.19.03.25.09.06.06.09.15.09.25v.58c0,.11-.03.19-.09.25-.06.06-.15.09-.25.09h-4.83v3.37h4.54c.11,0,.19.03.25.09.06.06.09.15.09.25v.58c0,.1-.03.18-.09.24s-.15.09-.25.09h-4.54v3.91c0,.1-.03.18-.09.24s-.15.09-.25.09h-.72Z"/>
    <path class="cls-4" d="M639.28,81.92c-.11,0-.19-.03-.25-.09-.06-.06-.09-.14-.09-.24v-9.45c0-.11.03-.19.09-.25.06-.06.14-.09.25-.09h5.97c.11,0,.19.03.25.09.06.06.09.15.09.25v.55c0,.11-.03.19-.09.25-.06.06-.14.09-.25.09h-4.92v3.17h4.6c.11,0,.19.03.25.09.06.06.09.15.09.25v.54c0,.1-.03.18-.09.24-.06.06-.14.09-.25.09h-4.6v3.28h5.03c.11,0,.19.03.25.09.06.06.09.14.09.25v.56c0,.1-.03.18-.09.24-.06.06-.14.09-.25.09h-6.09Z"/>
    <path class="cls-4" d="M650.26,81.92c-.1,0-.18-.03-.24-.09-.06-.06-.09-.14-.09-.24v-8.51h-2.78c-.1,0-.18-.03-.24-.09-.06-.06-.09-.14-.09-.24v-.61c0-.11.03-.19.09-.25s.14-.09.24-.09h6.97c.11,0,.19.03.25.09.06.06.09.15.09.25v.61c0,.1-.03.18-.09.24-.06.06-.15.09-.25.09h-2.76v8.51c0,.1-.03.18-.09.24s-.15.09-.25.09h-.75Z"/>
    <path class="cls-4" d="M659.13,81.92c-.1,0-.18-.03-.24-.09-.06-.06-.09-.14-.09-.24v-3.41l-3.49-5.9s-.02-.06-.03-.09c0-.03-.01-.06-.01-.1,0-.08.03-.14.09-.2s.12-.09.2-.09h.75c.09,0,.16.02.23.07.07.04.12.1.14.18l2.82,4.69,2.82-4.69c.05-.08.1-.14.17-.18.06-.04.14-.07.22-.07h.74c.09,0,.16.03.22.09.06.06.09.13.09.2,0,.04,0,.07-.01.1,0,.03-.02.06-.04.09l-3.47,5.9v3.41c0,.1-.03.18-.09.24-.06.06-.15.09-.25.09h-.75Z"/>
  </g>
  <g>
    <path class="cls-5" d="M747.19,80.78c-.09,0-.16-.03-.22-.09-.06-.06-.09-.14-.09-.22,0-.04,0-.08.03-.13l3.41-7.74h-4.44c-.1,0-.18-.03-.25-.1-.07-.07-.11-.15-.11-.25v-1.23c0-.11.04-.19.11-.26.07-.07.16-.1.25-.1h6.55c.12,0,.2.03.27.1.06.07.09.15.09.26v1.08c0,.14-.01.26-.04.35-.02.09-.06.19-.11.28l-3.4,7.7c-.03.06-.08.13-.15.22-.07.09-.19.13-.34.13h-1.58Z"/>
    <path class="cls-5" d="M758.03,80.92c-.69,0-1.29-.1-1.79-.3-.5-.2-.91-.47-1.23-.82-.32-.35-.56-.76-.72-1.23-.16-.47-.25-.97-.28-1.5,0-.26-.02-.55-.02-.88s0-.65,0-.98c0-.33.01-.63.02-.9.02-.53.11-1.03.28-1.49s.42-.87.75-1.22c.33-.35.74-.62,1.24-.82.5-.2,1.08-.3,1.76-.3s1.26.1,1.75.3c.49.2.9.47,1.23.82s.58.75.75,1.22c.17.46.27.96.3,1.49,0,.27.02.57.02.9,0,.33,0,.65,0,.98,0,.32-.01.61-.02.88-.03.53-.13,1.03-.29,1.5s-.41.88-.73,1.23c-.32.35-.73.63-1.23.82-.5.2-1.09.3-1.77.3ZM758.03,79.04c.56,0,.97-.18,1.23-.55.26-.37.4-.86.42-1.49,0-.28.02-.57.02-.87,0-.3,0-.6,0-.9,0-.3-.01-.58-.02-.84-.02-.6-.16-1.08-.42-1.46-.26-.38-.67-.57-1.23-.58-.57,0-.98.2-1.24.58-.26.38-.39.86-.41,1.46,0,.26-.02.54-.02.84s0,.6,0,.9c0,.3.01.59.02.87.02.63.16,1.12.42,1.49.26.37.67.55,1.23.55Z"/>
  </g>
  <g>
    <path class="cls-4" d="M810.81,82.07c-.89,0-1.62-.16-2.21-.49-.58-.33-1.02-.79-1.32-1.37s-.46-1.27-.49-2.05c0-.4-.01-.82-.01-1.27s0-.89.01-1.3c.03-.78.19-1.47.49-2.05s.74-1.05,1.32-1.37c.58-.33,1.32-.49,2.21-.49.67,0,1.25.09,1.75.27s.92.43,1.25.74c.33.31.59.65.76,1.03.17.38.27.77.29,1.18,0,.09-.02.16-.08.22-.06.06-.14.09-.22.09h-.8c-.09,0-.16-.02-.22-.07-.06-.05-.11-.14-.14-.26-.16-.75-.47-1.27-.92-1.55-.45-.28-1.01-.42-1.67-.42-.78,0-1.4.22-1.85.66-.45.44-.69,1.14-.72,2.1-.03.79-.03,1.6,0,2.43.03.96.27,1.67.72,2.1.45.44,1.07.66,1.85.66.67,0,1.22-.14,1.67-.42s.75-.8.92-1.55c.03-.12.07-.21.14-.26.06-.05.14-.07.22-.07h.8c.09,0,.16.03.22.08.06.05.09.12.08.21-.02.41-.12.8-.29,1.19-.17.39-.43.73-.76,1.04-.33.31-.75.55-1.25.74s-1.08.27-1.75.27Z"/>
    <path class="cls-4" d="M820.61,82.07c-.81,0-1.51-.14-2.09-.43-.58-.29-1.03-.73-1.35-1.32-.31-.59-.47-1.36-.47-2.29v-5.87c0-.11.03-.19.09-.25.06-.06.14-.09.25-.09h.74c.11,0,.19.03.25.09.06.06.09.15.09.25v5.9c0,.95.22,1.64.67,2.1.44.45,1.05.68,1.82.68s1.37-.23,1.82-.68c.45-.45.67-1.15.67-2.1v-5.9c0-.11.03-.19.09-.25.06-.06.14-.09.24-.09h.75c.1,0,.18.03.24.09.06.06.09.15.09.25v5.87c0,.94-.16,1.7-.47,2.29-.31.59-.76,1.03-1.34,1.32s-1.28.43-2.1.43Z"/>
    <path class="cls-4" d="M827.27,81.92c-.11,0-.19-.03-.25-.09-.06-.06-.09-.14-.09-.24v-9.46c0-.1.03-.18.09-.24.06-.06.14-.09.25-.09h.77c.1,0,.18.03.24.09.06.06.09.14.09.24v8.53h4.8c.11,0,.19.03.25.09.06.06.09.15.09.25v.58c0,.1-.03.18-.09.24s-.15.09-.25.09h-5.9Z"/>
    <path class="cls-4" d="M835.9,81.92c-.1,0-.18-.03-.24-.09s-.09-.14-.09-.24v-8.51h-2.78c-.1,0-.18-.03-.24-.09-.06-.06-.09-.14-.09-.24v-.61c0-.11.03-.19.09-.25.06-.06.14-.09.24-.09h6.97c.11,0,.19.03.25.09.06.06.09.15.09.25v.61c0,.1-.03.18-.09.24s-.15.09-.25.09h-2.76v8.51c0,.1-.03.18-.09.24-.06.06-.15.09-.25.09h-.75Z"/>
    <path class="cls-4" d="M845.55,82.07c-.81,0-1.51-.14-2.09-.43-.58-.29-1.03-.73-1.35-1.32-.31-.59-.47-1.36-.47-2.29v-5.87c0-.11.03-.19.09-.25.06-.06.14-.09.25-.09h.74c.11,0,.19.03.25.09.06.06.09.15.09.25v5.9c0,.95.22,1.64.67,2.1.44.45,1.05.68,1.82.68s1.37-.23,1.82-.68c.45-.45.67-1.15.67-2.1v-5.9c0-.11.03-.19.09-.25s.14-.09.24-.09h.75c.1,0,.18.03.24.09.06.06.09.15.09.25v5.87c0,.94-.16,1.7-.47,2.29-.31.59-.76,1.03-1.34,1.32-.58.29-1.28.43-2.1.43Z"/>
    <path class="cls-4" d="M852.21,81.92c-.11,0-.19-.03-.25-.09-.06-.06-.09-.14-.09-.24v-9.45c0-.11.03-.19.09-.25.06-.06.14-.09.25-.09h3.53c1.09,0,1.95.26,2.59.77.64.51.95,1.27.95,2.27,0,.74-.19,1.35-.56,1.82s-.88.79-1.51.98l2.23,3.85c.03.06.04.11.04.16,0,.08-.03.15-.09.2-.06.06-.13.09-.21.09h-.69c-.16,0-.28-.04-.36-.13-.08-.09-.15-.17-.2-.26l-2.1-3.67h-2.53v3.73c0,.1-.03.18-.09.24s-.15.09-.25.09h-.74ZM853.29,76.63h2.39c.72,0,1.26-.15,1.62-.46.36-.3.54-.75.54-1.35s-.18-1.04-.53-1.35-.89-.46-1.63-.46h-2.39v3.62Z"/>
    <path class="cls-4" d="M861.68,81.92c-.11,0-.19-.03-.25-.09-.06-.06-.09-.14-.09-.24v-9.45c0-.11.03-.19.09-.25.06-.06.14-.09.25-.09h5.97c.11,0,.19.03.25.09.06.06.09.15.09.25v.55c0,.11-.03.19-.09.25-.06.06-.14.09-.25.09h-4.92v3.17h4.6c.11,0,.19.03.25.09.06.06.09.15.09.25v.54c0,.1-.03.18-.09.24-.06.06-.14.09-.25.09h-4.6v3.28h5.03c.11,0,.19.03.25.09.06.06.09.14.09.25v.56c0,.1-.03.18-.09.24-.06.06-.14.09-.25.09h-6.09Z"/>
  </g>
  <g>
    <path class="cls-6" d="M941.31,80.78c-.11,0-.19-.03-.26-.1s-.1-.15-.1-.26v-.87c0-.08.02-.18.07-.31.04-.13.14-.26.3-.38l1.91-1.9c.7-.54,1.27-1,1.71-1.37.44-.38.76-.72.98-1.03.21-.31.32-.61.32-.9,0-.38-.1-.69-.31-.93-.21-.25-.54-.37-1-.37-.31,0-.57.06-.77.2-.21.13-.37.3-.48.51-.12.21-.19.44-.23.69-.03.13-.09.21-.18.26s-.19.07-.28.07h-1.53c-.1,0-.17-.03-.23-.09-.06-.06-.09-.13-.09-.21,0-.44.1-.86.28-1.26.18-.4.43-.75.76-1.06.33-.31.72-.55,1.19-.73.46-.18.99-.27,1.58-.27.81,0,1.49.13,2.04.4.55.27.96.63,1.24,1.09.28.46.42,1,.42,1.61,0,.46-.09.89-.28,1.29-.19.4-.46.77-.82,1.14s-.78.74-1.27,1.12l-1.71,1.71h3.93c.11,0,.19.03.26.1s.1.15.1.26v1.23c0,.11-.03.19-.1.26s-.15.1-.26.1h-7.16Z"/>
    <path class="cls-6" d="M954.33,80.92c-.69,0-1.29-.1-1.79-.3-.5-.2-.91-.47-1.23-.82-.32-.35-.56-.76-.72-1.23-.16-.47-.25-.97-.28-1.5,0-.26-.02-.55-.02-.88s0-.65,0-.98c0-.33.01-.63.02-.9.02-.53.11-1.03.28-1.49s.42-.87.75-1.22c.33-.35.74-.62,1.24-.82.5-.2,1.08-.3,1.76-.3s1.26.1,1.75.3c.49.2.9.47,1.23.82s.58.75.75,1.22c.17.46.27.96.3,1.49,0,.27.02.57.02.9,0,.33,0,.65,0,.98,0,.32-.01.61-.02.88-.03.53-.13,1.03-.29,1.5s-.41.88-.73,1.23c-.32.35-.73.63-1.23.82-.5.2-1.09.3-1.77.3ZM954.33,79.04c.56,0,.97-.18,1.23-.55.26-.37.4-.86.42-1.49,0-.28.02-.57.02-.87,0-.3,0-.6,0-.9,0-.3-.01-.58-.02-.84-.02-.6-.16-1.08-.42-1.46-.26-.38-.67-.57-1.23-.58-.57,0-.98.2-1.24.58-.26.38-.39.86-.41,1.46,0,.26-.02.54-.02.84s0,.6,0,.9c0,.3.01.59.02.87.02.63.16,1.12.42,1.49.26.37.67.55,1.23.55Z"/>
  </g>
  <g>
    <path class="cls-4" d="M1000.17,81.92c-.08,0-.14-.03-.2-.09-.06-.06-.09-.12-.09-.2,0-.05,0-.1.01-.16l3.59-9.36c.04-.1.09-.17.16-.23.07-.06.17-.09.3-.09h.98c.13,0,.24.03.3.09.07.06.12.14.16.23l3.57,9.36c.02.06.03.11.03.16,0,.08-.03.15-.09.2-.06.06-.13.09-.2.09h-.74c-.12,0-.2-.03-.25-.09-.05-.06-.09-.11-.11-.16l-.8-2.05h-4.75l-.8,2.05s-.04.1-.1.16-.14.09-.26.09h-.74ZM1002.49,78.38h3.91l-1.95-5.14-1.95,5.14Z"/>
    <path class="cls-4" d="M1014,82.07c-.89,0-1.62-.16-2.21-.49-.58-.33-1.02-.79-1.32-1.37-.3-.59-.46-1.27-.49-2.05,0-.4-.01-.82-.01-1.27s0-.89.01-1.3c.03-.78.19-1.47.49-2.05.3-.59.74-1.05,1.32-1.37.58-.33,1.32-.49,2.21-.49.67,0,1.25.09,1.75.27s.92.43,1.25.74c.33.31.59.65.76,1.03.17.38.27.77.29,1.18,0,.09-.02.16-.08.22-.06.06-.14.09-.22.09h-.8c-.09,0-.16-.02-.22-.07-.06-.05-.11-.14-.14-.26-.16-.75-.47-1.27-.92-1.55-.45-.28-1.01-.42-1.67-.42-.78,0-1.4.22-1.85.66-.45.44-.69,1.14-.72,2.1-.03.79-.03,1.6,0,2.43.03.96.27,1.67.72,2.1.45.44,1.07.66,1.85.66.67,0,1.22-.14,1.67-.42s.75-.8.92-1.55c.03-.12.07-.21.14-.26.06-.05.14-.07.22-.07h.8c.09,0,.16.03.22.08.06.05.09.12.08.21-.02.41-.12.8-.29,1.19-.17.39-.43.73-.76,1.04-.33.31-.75.55-1.25.74s-1.08.27-1.75.27Z"/>
    <path class="cls-4" d="M1023.64,82.07c-.89,0-1.62-.16-2.21-.49-.58-.33-1.02-.79-1.32-1.37-.3-.59-.46-1.27-.49-2.05,0-.4-.01-.82-.01-1.27s0-.89.01-1.3c.03-.78.19-1.47.49-2.05.3-.59.74-1.05,1.32-1.37.58-.33,1.32-.49,2.21-.49.67,0,1.25.09,1.75.27s.92.43,1.25.74c.33.31.59.65.76,1.03.17.38.27.77.29,1.18,0,.09-.02.16-.08.22-.06.06-.14.09-.22.09h-.8c-.09,0-.16-.02-.22-.07-.06-.05-.11-.14-.14-.26-.16-.75-.47-1.27-.92-1.55-.45-.28-1.01-.42-1.67-.42-.78,0-1.4.22-1.85.66-.45.44-.69,1.14-.72,2.1-.03.79-.03,1.6,0,2.43.03.96.27,1.67.72,2.1.45.44,1.07.66,1.85.66.67,0,1.22-.14,1.67-.42s.75-.8.92-1.55c.03-.12.07-.21.14-.26.06-.05.14-.07.22-.07h.8c.09,0,.16.03.22.08.06.05.09.12.08.21-.02.41-.12.8-.29,1.19-.17.39-.43.73-.76,1.04-.33.31-.75.55-1.25.74s-1.08.27-1.75.27Z"/>
    <path class="cls-4" d="M1029.96,81.92c-.11,0-.19-.03-.25-.09-.06-.06-.09-.14-.09-.24v-9.45c0-.11.03-.19.09-.25.06-.06.14-.09.25-.09h5.97c.11,0,.19.03.25.09.06.06.09.15.09.25v.55c0,.11-.03.19-.09.25-.06.06-.14.09-.25.09h-4.92v3.17h4.6c.11,0,.19.03.25.09.06.06.09.15.09.25v.54c0,.1-.03.18-.09.24-.06.06-.14.09-.25.09h-4.6v3.28h5.03c.11,0,.19.03.25.09.06.06.09.14.09.25v.56c0,.1-.03.18-.09.24-.06.06-.14.09-.25.09h-6.09Z"/>
    <path class="cls-4" d="M1041.65,82.07c-.84,0-1.54-.13-2.11-.39-.57-.26-1-.6-1.31-1.01-.3-.41-.47-.84-.48-1.29,0-.08.03-.15.09-.21.06-.06.14-.09.22-.09h.74c.12,0,.2.03.26.09.06.06.1.13.12.2.06.23.18.46.36.69s.45.41.79.56.78.22,1.32.22c.83,0,1.44-.15,1.83-.44.39-.29.59-.69.59-1.18,0-.34-.1-.61-.31-.82-.21-.21-.52-.39-.95-.56-.42-.16-.97-.34-1.65-.54-.7-.2-1.29-.42-1.75-.67s-.81-.54-1.03-.9c-.23-.36-.34-.81-.34-1.36,0-.52.14-.99.42-1.4.28-.41.68-.73,1.22-.98.53-.24,1.17-.36,1.91-.36.6,0,1.12.08,1.57.24s.82.37,1.12.64c.3.27.53.55.68.85s.24.6.25.89c0,.07-.02.13-.07.2-.05.06-.13.09-.23.09h-.77c-.07,0-.14-.02-.21-.06-.07-.04-.13-.11-.17-.22-.06-.4-.28-.73-.67-1s-.89-.41-1.5-.41-1.14.12-1.53.36-.59.62-.59,1.13c0,.33.09.6.27.82.18.22.47.41.87.57s.91.34,1.55.52c.77.21,1.4.44,1.9.67.49.24.86.53,1.09.88s.35.8.35,1.35c0,.61-.16,1.13-.48,1.56s-.76.76-1.34.98c-.57.23-1.25.34-2.03.34Z"/>
    <path class="cls-4" d="M1050.64,82.07c-.84,0-1.54-.13-2.11-.39-.57-.26-1.01-.6-1.31-1.01-.3-.41-.47-.84-.48-1.29,0-.08.03-.15.09-.21.06-.06.14-.09.22-.09h.74c.12,0,.2.03.26.09s.1.13.12.2c.06.23.18.46.36.69.18.23.45.41.79.56.34.15.78.22,1.32.22.83,0,1.44-.15,1.83-.44.39-.29.59-.69.59-1.18,0-.34-.1-.61-.31-.82-.21-.21-.52-.39-.95-.56-.42-.16-.97-.34-1.65-.54-.7-.2-1.29-.42-1.75-.67s-.81-.54-1.03-.9c-.23-.36-.34-.81-.34-1.36,0-.52.14-.99.42-1.4.28-.41.68-.73,1.21-.98s1.17-.36,1.91-.36c.6,0,1.12.08,1.57.24.45.16.82.37,1.12.64.3.27.53.55.68.85s.24.6.25.89c0,.07-.02.13-.07.2-.05.06-.12.09-.23.09h-.77c-.07,0-.14-.02-.21-.06-.07-.04-.13-.11-.17-.22-.06-.4-.28-.73-.67-1-.39-.27-.89-.41-1.5-.41s-1.14.12-1.53.36-.59.62-.59,1.13c0,.33.09.6.27.82.18.22.47.41.87.57.4.16.91.34,1.55.52.77.21,1.4.44,1.89.67.49.24.86.53,1.09.88.24.35.35.8.35,1.35,0,.61-.16,1.13-.48,1.56-.32.43-.76.76-1.34.98s-1.25.34-2.03.34Z"/>
  </g>
  <g>
    <path class="cls-1" d="M1132.87,80.78c-.11,0-.19-.03-.26-.1s-.1-.15-.1-.26v-.87c0-.08.02-.18.07-.31.04-.13.14-.26.3-.38l1.91-1.9c.7-.54,1.27-1,1.71-1.37.44-.38.76-.72.98-1.03.21-.31.32-.61.32-.9,0-.38-.1-.69-.31-.93-.21-.25-.54-.37-1-.37-.31,0-.57.06-.77.2-.21.13-.37.3-.48.51-.12.21-.19.44-.23.69-.03.13-.09.21-.18.26s-.19.07-.28.07h-1.53c-.1,0-.17-.03-.23-.09-.06-.06-.09-.13-.09-.21,0-.44.1-.86.28-1.26.18-.4.43-.75.76-1.06.33-.31.72-.55,1.19-.73.46-.18.99-.27,1.58-.27.81,0,1.49.13,2.04.4.55.27.96.63,1.24,1.09.28.46.42,1,.42,1.61,0,.46-.09.89-.28,1.29-.19.4-.46.77-.82,1.14s-.78.74-1.27,1.12l-1.71,1.71h3.93c.11,0,.19.03.26.1s.1.15.1.26v1.23c0,.11-.03.19-.1.26s-.15.1-.26.1h-7.16Z"/>
    <path class="cls-1" d="M1145.88,80.92c-.69,0-1.29-.1-1.79-.3-.5-.2-.91-.47-1.23-.82-.32-.35-.56-.76-.72-1.23s-.25-.97-.28-1.5c0-.26-.02-.55-.02-.88,0-.32,0-.65,0-.98,0-.33.01-.63.02-.9.02-.53.11-1.03.28-1.49.17-.46.42-.87.74-1.22.33-.35.74-.62,1.24-.82.5-.2,1.08-.3,1.76-.3s1.26.1,1.75.3c.49.2.9.47,1.23.82s.58.75.75,1.22.27.96.3,1.49c0,.27.02.57.02.9,0,.33,0,.65,0,.98s-.01.61-.02.88c-.03.53-.13,1.03-.29,1.5s-.41.88-.73,1.23c-.32.35-.73.63-1.23.82s-1.09.3-1.77.3ZM1145.88,79.04c.56,0,.97-.18,1.23-.55.26-.37.4-.86.42-1.49,0-.28.02-.57.02-.87,0-.3,0-.6,0-.9s-.01-.58-.02-.84c-.02-.6-.16-1.08-.42-1.46-.26-.38-.67-.57-1.23-.58-.57,0-.98.2-1.24.58s-.39.86-.41,1.46c0,.26-.02.54-.02.84s0,.6,0,.9c0,.3.01.59.02.87.02.63.16,1.12.42,1.49.26.37.67.55,1.23.55Z"/>
  </g>
  <g>
    <path class="cls-4" d="M128.94,115.33c-.08,0-.14-.02-.18-.07-.04-.04-.06-.1-.06-.17v-6.8c0-.08.02-.14.06-.18.04-.04.1-.07.18-.07h2.85c.52,0,.95.09,1.28.26.33.17.57.4.73.69.16.29.23.62.23.98,0,.28-.05.53-.14.73-.09.21-.21.37-.35.5-.14.13-.27.23-.41.3.27.13.51.35.72.65s.32.66.32,1.08c0,.38-.09.73-.26,1.05-.17.32-.43.57-.78.77-.34.19-.77.29-1.27.29h-2.94ZM129.72,111.12h1.92c.44,0,.78-.1,1.01-.31.23-.21.34-.48.34-.84s-.11-.62-.34-.81-.57-.28-1.01-.28h-1.92v2.24ZM129.72,114.48h2.02c.44,0,.79-.12,1.03-.36.24-.24.36-.54.36-.9s-.12-.67-.36-.91-.59-.36-1.03-.36h-2.02v2.53Z"/>
    <path class="cls-4" d="M138.41,115.43c-.58,0-1.08-.1-1.5-.31-.42-.21-.74-.53-.97-.95-.23-.43-.34-.98-.34-1.65v-4.23c0-.08.02-.14.06-.18.04-.04.1-.07.18-.07h.53c.08,0,.14.02.18.07s.07.11.07.18v4.25c0,.68.16,1.18.48,1.51.32.33.76.49,1.31.49s.98-.16,1.31-.49c.32-.33.48-.83.48-1.51v-4.25c0-.08.02-.14.07-.18s.1-.07.17-.07h.54c.07,0,.13.02.17.07.04.05.07.11.07.18v4.23c0,.67-.11,1.22-.34,1.65-.23.43-.55.75-.96.95-.42.21-.92.31-1.51.31Z"/>
    <path class="cls-4" d="M143.2,115.33c-.08,0-.14-.02-.18-.07-.04-.04-.06-.1-.06-.17v-6.8c0-.08.02-.14.06-.18.04-.04.1-.07.18-.07h2.36c.72,0,1.29.11,1.73.32s.76.53.96.95c.2.42.31.94.31,1.55,0,.31.01.59.01.82s0,.51-.01.81c-.01.64-.12,1.17-.32,1.59-.2.42-.51.73-.94.94-.43.2-.99.31-1.69.31h-2.42ZM143.98,114.44h1.58c.48,0,.86-.07,1.15-.2.28-.13.49-.34.62-.64s.2-.68.2-1.16c.01-.21.02-.39.02-.55v-.47c0-.16,0-.33-.02-.54-.01-.67-.17-1.17-.48-1.49-.31-.32-.82-.48-1.54-.48h-1.53v5.52Z"/>
    <path class="cls-4" d="M152.79,115.43c-.62,0-1.14-.11-1.57-.34-.43-.23-.75-.55-.98-.97-.23-.42-.35-.91-.38-1.47,0-.31-.01-.63-.01-.97s0-.67.01-.98c.03-.56.15-1.05.38-1.46s.55-.73.98-.96c.43-.23.95-.34,1.56-.34.49,0,.91.07,1.27.21.36.14.66.31.89.53.23.21.41.43.52.66.11.23.18.43.18.6,0,.06-.01.11-.05.15-.04.04-.1.06-.17.06h-.61c-.07,0-.12-.01-.15-.04-.03-.03-.06-.08-.09-.15-.06-.18-.17-.36-.31-.53-.14-.17-.33-.32-.57-.43-.24-.11-.54-.17-.91-.17-.56,0-1,.15-1.34.45-.34.3-.52.79-.55,1.48-.02.62-.02,1.24,0,1.85.03.69.21,1.19.55,1.49.34.3.78.45,1.33.45.37,0,.7-.07.98-.21.29-.14.52-.35.68-.63.17-.28.25-.64.25-1.08v-.44h-1.56c-.07,0-.13-.02-.17-.07-.04-.05-.07-.11-.07-.18v-.33c0-.08.02-.14.07-.18.04-.04.1-.07.17-.07h2.35c.08,0,.14.02.18.07.04.05.06.11.06.18v1c0,.57-.12,1.07-.35,1.49-.23.42-.57.75-1.02.98-.44.23-.97.35-1.58.35Z"/>
    <path class="cls-4" d="M157.47,115.33c-.08,0-.14-.02-.18-.07-.04-.04-.06-.1-.06-.17v-6.8c0-.08.02-.14.06-.18.04-.04.1-.07.18-.07h4.3c.08,0,.14.02.18.07.04.05.06.11.06.18v.4c0,.08-.02.14-.06.18-.04.04-.1.06-.18.06h-3.54v2.28h3.31c.08,0,.14.02.18.07.04.05.06.11.06.18v.39c0,.07-.02.13-.06.17-.04.05-.1.07-.18.07h-3.31v2.36h3.63c.08,0,.14.02.18.06s.06.1.06.18v.41c0,.07-.02.13-.06.17-.04.05-.1.07-.18.07h-4.39Z"/>
    <path class="cls-4" d="M165.38,115.33c-.07,0-.13-.02-.17-.07-.05-.04-.07-.1-.07-.17v-6.12h-2c-.07,0-.13-.02-.17-.07s-.07-.1-.07-.17v-.44c0-.08.02-.14.07-.18.05-.04.1-.07.17-.07h5.02c.08,0,.14.02.18.07.04.05.07.11.07.18v.44c0,.07-.02.13-.07.17s-.11.07-.18.07h-1.99v6.12c0,.07-.02.13-.07.17-.04.05-.11.07-.18.07h-.54Z"/>
  </g>
  <g>
    <path class="cls-4" d="M124.2,93.61c-.18,0-.34-.06-.48-.19-.14-.13-.21-.29-.21-.49v-13.58l-3.93,3.03c-.16.13-.33.17-.51.14s-.32-.14-.45-.3l-1.37-1.78c-.11-.16-.15-.34-.12-.52s.12-.33.29-.44l6.23-4.81c.11-.07.21-.12.31-.15.1-.03.21-.04.34-.04h2.9c.18,0,.34.06.46.19.13.13.19.29.19.49v17.76c0,.2-.06.36-.19.49-.13.13-.28.19-.46.19h-3Z"/>
    <path class="cls-4" d="M138.84,93.89c-1.31,0-2.44-.19-3.37-.56-.94-.37-1.71-.89-2.32-1.56-.61-.66-1.07-1.44-1.37-2.32s-.48-1.83-.53-2.83c-.02-.49-.03-1.04-.04-1.65,0-.61,0-1.22,0-1.84s.02-1.18.04-1.69c.04-1,.21-1.94.53-2.81.32-.87.79-1.64,1.41-2.29.62-.66,1.4-1.17,2.34-1.54.94-.37,2.04-.56,3.32-.56s2.38.19,3.31.56c.93.37,1.7.89,2.32,1.54.62.66,1.09,1.42,1.41,2.29.32.87.51,1.81.56,2.81.02.51.03,1.07.04,1.69,0,.62,0,1.23,0,1.84,0,.61-.02,1.16-.04,1.65-.05,1-.24,1.94-.55,2.83-.31.88-.77,1.66-1.38,2.32-.61.67-1.38,1.18-2.32,1.56-.94.37-2.05.56-3.35.56ZM138.84,90.33c1.06,0,1.83-.35,2.32-1.04.49-.69.76-1.63.79-2.81.02-.53.03-1.07.04-1.64,0-.56,0-1.13,0-1.69s-.02-1.09-.04-1.58c-.04-1.13-.3-2.05-.79-2.76-.49-.71-1.27-1.07-2.32-1.09-1.07.02-1.85.38-2.34,1.09-.48.71-.74,1.63-.78,2.76-.02.49-.03,1.02-.04,1.58,0,.56,0,1.13,0,1.69,0,.56.02,1.11.04,1.64.04,1.18.3,2.12.79,2.81.49.69,1.27,1.04,2.32,1.04Z"/>
    <path class="cls-4" d="M157.09,93.89c-1.31,0-2.44-.19-3.37-.56-.94-.37-1.71-.89-2.32-1.56-.61-.66-1.07-1.44-1.37-2.32-.3-.88-.48-1.83-.53-2.83-.02-.49-.03-1.04-.04-1.65,0-.61,0-1.22,0-1.84,0-.62.02-1.18.04-1.69.04-1,.21-1.94.53-2.81.32-.87.79-1.64,1.41-2.29.62-.66,1.4-1.17,2.34-1.54.94-.37,2.04-.56,3.32-.56s2.38.19,3.31.56c.93.37,1.7.89,2.32,1.54.62.66,1.09,1.42,1.41,2.29.32.87.5,1.81.56,2.81.02.51.03,1.07.04,1.69,0,.62,0,1.23,0,1.84,0,.61-.02,1.16-.04,1.65-.05,1-.24,1.94-.55,2.83-.31.88-.77,1.66-1.38,2.32-.61.67-1.38,1.18-2.32,1.56-.94.37-2.05.56-3.35.56ZM157.09,90.33c1.06,0,1.83-.35,2.32-1.04.49-.69.76-1.63.79-2.81.02-.53.03-1.07.04-1.64,0-.56,0-1.13,0-1.69,0-.56-.02-1.09-.04-1.58-.04-1.13-.3-2.05-.79-2.76-.49-.71-1.27-1.07-2.32-1.09-1.07.02-1.85.38-2.34,1.09-.48.71-.74,1.63-.78,2.76-.02.49-.03,1.02-.04,1.58,0,.56,0,1.13,0,1.69,0,.56.02,1.11.04,1.64.04,1.18.3,2.12.79,2.81.49.69,1.27,1.04,2.32,1.04Z"/>
    <path class="cls-4" d="M175.34,93.89c-1.31,0-2.44-.19-3.37-.56-.94-.37-1.71-.89-2.32-1.56-.61-.66-1.07-1.44-1.37-2.32-.3-.88-.48-1.83-.53-2.83-.02-.49-.03-1.04-.04-1.65,0-.61,0-1.22,0-1.84,0-.62.02-1.18.04-1.69.04-1,.21-1.94.53-2.81.32-.87.79-1.64,1.41-2.29.62-.66,1.4-1.17,2.34-1.54.94-.37,2.04-.56,3.32-.56s2.38.19,3.31.56c.93.37,1.7.89,2.32,1.54.62.66,1.09,1.42,1.41,2.29.32.87.5,1.81.56,2.81.02.51.03,1.07.04,1.69,0,.62,0,1.23,0,1.84,0,.61-.02,1.16-.04,1.65-.05,1-.24,1.94-.55,2.83-.31.88-.77,1.66-1.38,2.32-.61.67-1.38,1.18-2.32,1.56-.94.37-2.05.56-3.35.56ZM175.34,90.33c1.06,0,1.83-.35,2.32-1.04.49-.69.76-1.63.79-2.81.02-.53.03-1.07.04-1.64,0-.56,0-1.13,0-1.69,0-.56-.02-1.09-.04-1.58-.04-1.13-.3-2.05-.79-2.76-.49-.71-1.27-1.07-2.32-1.09-1.07.02-1.85.38-2.34,1.09-.48.71-.74,1.63-.78,2.76-.02.49-.03,1.02-.04,1.58,0,.56,0,1.13,0,1.69,0,.56.02,1.11.04,1.64.04,1.18.3,2.12.79,2.81.49.69,1.27,1.04,2.32,1.04Z"/>
  </g>
  <g>
    <path class="cls-4" d="M1241.69,93.71c-1.29,0-2.39-.19-3.31-.57-.91-.38-1.66-.91-2.24-1.58-.58-.67-1.02-1.45-1.31-2.34-.29-.88-.46-1.83-.52-2.83-.02-.49-.03-1.03-.04-1.63,0-.59,0-1.19,0-1.79,0-.6.02-1.16.04-1.67.04-1,.21-1.94.52-2.83.31-.88.76-1.65,1.35-2.31.59-.66,1.34-1.17,2.25-1.56s1.99-.57,3.25-.57,2.37.19,3.28.57c.91.38,1.66.9,2.25,1.56.59.66,1.04,1.43,1.34,2.31.3.88.47,1.83.51,2.83.04.51.05,1.07.05,1.67v1.79c0,.59-.02,1.13-.05,1.63-.04,1-.2,1.94-.49,2.83-.29.88-.73,1.66-1.31,2.34s-1.33,1.2-2.25,1.58c-.92.38-2.03.57-3.32.57ZM1241.69,90.57c1.18,0,2.05-.39,2.61-1.16.56-.77.84-1.83.86-3.16.04-.53.05-1.06.05-1.6v-1.63c0-.55-.02-1.07-.05-1.56-.02-1.29-.31-2.34-.86-3.13-.56-.79-1.43-1.19-2.61-1.19s-2.03.4-2.58,1.19c-.56.79-.85,1.83-.89,3.13,0,.49,0,1.01-.01,1.56,0,.55,0,1.09,0,1.63,0,.54.01,1.07.01,1.6.04,1.33.34,2.38.9,3.16.56.77,1.42,1.16,2.57,1.16Z"/>
    <path class="cls-4" d="M1259.64,93.71c-1.29,0-2.4-.19-3.31-.57-.91-.38-1.66-.91-2.24-1.58-.58-.67-1.02-1.45-1.31-2.34-.29-.88-.46-1.83-.52-2.83-.02-.49-.03-1.03-.04-1.63,0-.59,0-1.19,0-1.79,0-.6.02-1.16.04-1.67.04-1,.21-1.94.52-2.83.31-.88.76-1.65,1.35-2.31.59-.66,1.34-1.17,2.25-1.56.91-.38,1.99-.57,3.25-.57s2.37.19,3.28.57,1.66.9,2.25,1.56c.59.66,1.04,1.43,1.34,2.31.3.88.47,1.83.51,2.83.04.51.05,1.07.05,1.67v1.79c0,.59-.02,1.13-.05,1.63-.04,1-.2,1.94-.49,2.83s-.73,1.66-1.31,2.34c-.58.67-1.33,1.2-2.25,1.58-.92.38-2.03.57-3.32.57ZM1259.64,90.57c1.18,0,2.05-.39,2.61-1.16s.84-1.83.86-3.16c.04-.53.05-1.06.05-1.6v-1.63c0-.55-.02-1.07-.05-1.56-.02-1.29-.31-2.34-.86-3.13-.56-.79-1.42-1.19-2.61-1.19s-2.03.4-2.58,1.19c-.56.79-.85,1.83-.89,3.13,0,.49,0,1.01-.01,1.56,0,.55,0,1.09,0,1.63,0,.54.01,1.07.01,1.6.04,1.33.34,2.38.9,3.16s1.42,1.16,2.57,1.16Z"/>
    <path class="cls-4" d="M1271.01,83.87c-.18,0-.34-.06-.46-.19-.13-.13-.19-.28-.19-.46v-2.6c0-.2.06-.36.19-.49s.28-.19.46-.19h2.7c.2,0,.36.06.49.19.13.13.19.29.19.49v2.6c0,.18-.06.34-.19.46s-.29.19-.49.19h-2.7ZM1271.01,93.43c-.18,0-.34-.06-.46-.19-.13-.13-.19-.28-.19-.46v-2.6c0-.2.06-.36.19-.49s.28-.19.46-.19h2.7c.2,0,.36.06.49.19.13.13.19.29.19.49v2.6c0,.18-.06.34-.19.46s-.29.19-.49.19h-2.7Z"/>
    <path class="cls-4" d="M1284.47,93.73c-1.57,0-2.89-.26-3.96-.78-1.08-.52-1.89-1.2-2.45-2.04-.56-.84-.85-1.73-.89-2.68-.02-.16.03-.3.15-.4.12-.1.26-.15.42-.15h2.54c.2,0,.37.04.5.12.14.08.24.22.31.42.18.55.44.99.78,1.34.34.35.73.6,1.17.77.45.16.92.25,1.41.25.66,0,1.25-.13,1.79-.4.54-.26.97-.66,1.3-1.19.33-.53.49-1.17.49-1.94,0-.67-.15-1.26-.46-1.75s-.73-.88-1.27-1.16c-.54-.28-1.15-.42-1.84-.42-.51,0-.93.06-1.26.19-.33.13-.61.27-.83.44-.23.16-.43.31-.6.44-.17.13-.37.19-.59.19h-2.51c-.16,0-.3-.06-.42-.18-.12-.12-.18-.26-.18-.42l.96-9.34c.02-.24.1-.42.25-.55.15-.13.32-.19.52-.19h10.27c.18,0,.34.06.46.19.13.13.19.28.19.46v1.83c0,.18-.06.34-.19.46-.13.13-.28.19-.46.19h-7.9l-.44,4.45c.33-.22.77-.43,1.31-.63.55-.2,1.3-.3,2.27-.3.87,0,1.71.14,2.5.42.79.28,1.5.69,2.12,1.23.62.54,1.11,1.18,1.46,1.94s.53,1.62.53,2.58c0,1.33-.31,2.49-.93,3.47-.62.98-1.48,1.75-2.6,2.29s-2.42.82-3.93.82Z"/>
    <path class="cls-4" d="M1301.55,93.71c-1.28,0-2.38-.15-3.31-.46-.93-.31-1.7-.71-2.31-1.22s-1.07-1.05-1.38-1.64-.47-1.18-.49-1.76c0-.16.06-.3.18-.4.12-.1.26-.15.42-.15h2.46c.18,0,.34.04.46.11s.24.22.33.44c.16.49.43.88.81,1.17.37.29.81.5,1.3.61.49.12,1.01.18,1.56.18,1.09,0,1.96-.26,2.61-.78s.97-1.26.97-2.23-.3-1.66-.9-2.09c-.6-.43-1.44-.64-2.51-.64h-2.81c-.2,0-.36-.06-.49-.18-.13-.12-.19-.28-.19-.48v-1.15c0-.18.04-.34.12-.48.08-.14.17-.25.26-.34l4.89-4.78h-7.81c-.2,0-.36-.06-.48-.19-.12-.13-.18-.28-.18-.46v-1.8c0-.2.06-.36.18-.49.12-.13.28-.19.48-.19h11.72c.2,0,.36.06.49.19.13.13.19.29.19.49v1.64c0,.16-.04.31-.11.44-.07.13-.16.24-.25.33l-4.73,4.86.33.03c1.11.09,2.1.34,2.96.75.87.41,1.54,1.01,2.02,1.79.48.78.72,1.77.72,2.95s-.32,2.3-.97,3.18c-.65.88-1.54,1.56-2.66,2.04-1.13.47-2.42.71-3.88.71Z"/>
  </g>
  <g>
    <path class="cls-4" d="M1260.65,115.15c-.07,0-.13-.02-.17-.07-.04-.04-.07-.1-.07-.17v-6.12h-2c-.07,0-.13-.02-.17-.07-.05-.04-.07-.1-.07-.17v-.44c0-.08.02-.14.07-.18s.1-.07.17-.07h5.02c.08,0,.14.02.18.07.04.05.07.11.07.18v.44c0,.07-.02.13-.07.17s-.11.07-.18.07h-1.99v6.12c0,.07-.02.13-.07.17-.05.05-.11.07-.18.07h-.54Z"/>
    <path class="cls-4" d="M1265.08,115.15c-.08,0-.14-.02-.18-.07-.04-.04-.06-.1-.06-.17v-6.81c0-.07.02-.13.06-.17.04-.04.1-.07.18-.07h.55c.08,0,.14.02.18.07.04.05.06.1.06.17v6.81c0,.07-.02.13-.06.17-.04.05-.1.07-.18.07h-.55Z"/>
    <path class="cls-4" d="M1267.93,115.15c-.07,0-.13-.02-.17-.07s-.07-.1-.07-.17v-6.8c0-.08.02-.14.07-.18.05-.04.1-.07.17-.07h.52c.08,0,.15.02.19.06.04.04.07.08.08.1l2.2,4.21,2.22-4.21s.04-.06.08-.1c.04-.04.1-.06.18-.06h.51c.08,0,.14.02.18.07.04.05.07.11.07.18v6.8c0,.07-.02.13-.07.17s-.11.07-.18.07h-.51c-.07,0-.13-.02-.17-.07-.05-.04-.07-.1-.07-.17v-5.12l-1.74,3.4c-.03.07-.07.12-.12.16-.06.04-.12.06-.21.06h-.32c-.09,0-.16-.02-.21-.06-.05-.04-.09-.09-.12-.16l-1.75-3.4v5.12c0,.07-.02.13-.07.17-.04.05-.1.07-.17.07h-.51Z"/>
    <path class="cls-4" d="M1276.2,115.15c-.08,0-.14-.02-.18-.07-.04-.04-.06-.1-.06-.17v-6.8c0-.08.02-.14.06-.18.04-.04.1-.07.18-.07h4.3c.08,0,.14.02.18.07.04.05.06.11.06.18v.4c0,.08-.02.14-.06.18-.04.04-.1.06-.18.06h-3.54v2.28h3.31c.08,0,.14.02.18.07.04.05.06.11.06.18v.39c0,.07-.02.13-.06.17-.04.05-.1.07-.18.07h-3.31v2.36h3.63c.08,0,.14.02.18.06s.06.1.06.18v.41c0,.07-.02.13-.06.17-.04.05-.1.07-.18.07h-4.39Z"/>
  </g>
  <g>
    <path class="cls-4" d="M688.28,192.2c-1.48,0-2.78-.17-3.91-.52-1.13-.35-2.07-.83-2.83-1.46-.76-.62-1.33-1.35-1.71-2.18-.38-.83-.57-1.75-.57-2.74,0-1.2.29-2.25.89-3.13.59-.89,1.34-1.57,2.25-2.06-.74-.48-1.31-1.1-1.72-1.85-.41-.75-.62-1.62-.62-2.61,0-1.2.31-2.27.92-3.2.61-.93,1.52-1.67,2.74-2.22,1.21-.55,2.74-.82,4.57-.82s3.32.27,4.52.81,2.11,1.27,2.72,2.2.92,1.99.92,3.2c0,.99-.2,1.87-.6,2.63-.4.76-.97,1.38-1.71,1.87.97.46,1.74,1.15,2.31,2.06.57.91.85,1.96.85,3.16,0,1.31-.34,2.48-1.01,3.51-.68,1.03-1.69,1.85-3.04,2.45s-3.01.9-4.97.9ZM688.28,188.56c.74,0,1.41-.13,2.02-.4s1.09-.64,1.44-1.12c.35-.48.52-1.05.52-1.71s-.17-1.25-.52-1.72-.83-.84-1.44-1.11-1.29-.4-2.02-.4-1.44.13-2.04.4-1.08.63-1.44,1.11c-.36.47-.54,1.05-.54,1.72s.18,1.22.54,1.71c.36.49.84.86,1.44,1.12s1.28.4,2.04.4ZM688.28,178.66c.65-.02,1.24-.15,1.77-.38.53-.23.95-.55,1.27-.96s.47-.89.47-1.44-.15-1.06-.46-1.47-.72-.73-1.25-.96c-.53-.23-1.13-.35-1.8-.35s-1.28.12-1.82.35c-.54.23-.95.55-1.25.96s-.44.9-.44,1.47.15,1.06.44,1.47c.3.41.71.73,1.25.96.54.23,1.14.35,1.82.35Z"/>
    <path class="cls-4" d="M709.38,192.2c-1.52,0-2.82-.22-3.91-.65s-1.98-1.03-2.69-1.8-1.23-1.67-1.58-2.69c-.35-1.02-.55-2.11-.62-3.27-.02-.57-.04-1.21-.05-1.91-.01-.71-.01-1.42,0-2.14,0-.72.03-1.37.05-1.96.04-1.16.25-2.25.62-3.26s.91-1.9,1.63-2.66c.72-.76,1.62-1.35,2.71-1.79,1.09-.43,2.37-.65,3.84-.65s2.75.22,3.83.65c1.08.43,1.97,1.03,2.69,1.79.72.76,1.26,1.65,1.63,2.66.37,1.01.59,2.1.65,3.26.02.59.04,1.24.05,1.96.01.72.01,1.43,0,2.14-.01.71-.03,1.34-.05,1.91-.06,1.16-.27,2.25-.63,3.27-.36,1.02-.89,1.92-1.6,2.69s-1.6,1.37-2.69,1.8c-1.09.43-2.38.65-3.88.65ZM709.38,188.09c1.22,0,2.12-.4,2.69-1.2.57-.8.88-1.89.92-3.26.02-.61.04-1.24.05-1.9.01-.65.01-1.31,0-1.96-.01-.65-.03-1.27-.05-1.83-.04-1.31-.35-2.37-.92-3.2-.57-.82-1.47-1.24-2.69-1.27-1.25.02-2.15.44-2.71,1.27-.56.82-.86,1.89-.9,3.2-.02.57-.04,1.18-.05,1.83-.01.65-.01,1.31,0,1.96.01.65.03,1.29.05,1.9.04,1.37.35,2.46.92,3.26.57.8,1.47,1.2,2.69,1.2Z"/>
  </g>
  <g>
    <path class="cls-4" d="M647.75,248.36c-.13,0-.23-.04-.31-.13-.08-.08-.14-.16-.19-.22l-.61-.83c-.54.24-1.16.36-1.86.36-.84,0-1.57-.15-2.17-.44s-1.07-.74-1.41-1.35c-.33-.61-.51-1.38-.54-2.3,0-.44-.01-.85-.01-1.26s0-.82.01-1.26c.03-.91.22-1.67.57-2.28.35-.61.83-1.07,1.44-1.37.61-.3,1.32-.45,2.12-.45s1.52.15,2.13.45c.61.3,1.09.76,1.44,1.37s.53,1.37.55,2.28c.02.44.03.86.03,1.26s-.01.82-.03,1.26c-.05,1.36-.41,2.38-1.07,3.05l.98,1.4s.02.03.03.05c0,.02.02.06.02.11,0,.08-.02.15-.07.21s-.13.09-.22.09h-.8ZM644.78,246.28c.75,0,1.37-.23,1.86-.68.49-.46.75-1.2.79-2.22.02-.45.03-.85.03-1.2s-.01-.75-.03-1.18c-.02-.68-.15-1.24-.38-1.67-.23-.43-.54-.74-.93-.94-.39-.2-.83-.3-1.34-.3s-.92.1-1.32.3c-.39.2-.7.51-.93.94-.23.43-.36.98-.39,1.67,0,.44-.01.83-.01,1.18s0,.75.01,1.2c.04,1.02.3,1.76.79,2.22.49.46,1.1.68,1.84.68Z"/>
    <path class="cls-4" d="M655.04,247.55c-.83,0-1.55-.15-2.15-.45-.6-.3-1.06-.75-1.38-1.36-.32-.61-.48-1.4-.48-2.36v-6.04c0-.11.03-.2.09-.26.06-.06.14-.1.25-.1h.76c.11,0,.2.03.26.1.06.06.1.15.1.26v6.07c0,.97.23,1.69.68,2.16s1.08.7,1.87.7,1.41-.23,1.87-.7c.46-.47.69-1.19.69-2.16v-6.07c0-.11.03-.2.1-.26.06-.06.15-.1.25-.1h.77c.1,0,.18.03.25.1.06.06.1.15.1.26v6.04c0,.96-.16,1.75-.48,2.36s-.78,1.06-1.38,1.36c-.59.3-1.31.45-2.16.45Z"/>
    <path class="cls-4" d="M660.65,247.4c-.08,0-.15-.03-.21-.09s-.09-.13-.09-.21c0-.05,0-.1.01-.16l3.69-9.62c.04-.1.09-.18.16-.24s.17-.09.31-.09h1.01c.14,0,.24.03.31.09s.12.14.16.24l3.67,9.62c.02.06.03.11.03.16,0,.08-.03.15-.09.21s-.13.09-.21.09h-.76c-.12,0-.21-.03-.26-.09-.05-.06-.09-.11-.11-.16l-.82-2.11h-4.88l-.82,2.11s-.04.1-.1.16c-.06.06-.15.09-.27.09h-.76ZM663.03,243.75h4.02l-2.01-5.28-2.01,5.28Z"/>
    <path class="cls-4" d="M671.66,247.4c-.11,0-.19-.03-.25-.1s-.09-.15-.09-.25v-9.73c0-.1.03-.18.09-.25.06-.06.14-.1.25-.1h.79c.1,0,.18.03.25.1.06.06.1.15.1.25v8.78h4.94c.11,0,.2.03.26.1.06.06.1.15.1.26v.59c0,.1-.03.18-.1.25-.06.06-.15.1-.26.1h-6.07Z"/>
    <path class="cls-4" d="M680.04,247.4c-.11,0-.19-.03-.25-.1s-.09-.15-.09-.25v-9.73c0-.1.03-.18.09-.25.06-.06.14-.1.25-.1h.79c.11,0,.19.03.25.1.06.06.09.15.09.25v9.73c0,.1-.03.18-.09.25s-.14.1-.25.1h-.79Z"/>
    <path class="cls-4" d="M686.37,247.4c-.1,0-.18-.03-.25-.1s-.1-.15-.1-.25v-8.75h-2.86c-.1,0-.18-.03-.25-.1s-.1-.15-.1-.25v-.62c0-.11.03-.2.1-.26.06-.06.15-.1.25-.1h7.17c.11,0,.2.03.26.1.06.06.1.15.1.26v.62c0,.1-.03.18-.1.25-.06.06-.15.1-.26.1h-2.84v8.75c0,.1-.03.18-.1.25s-.15.1-.26.1h-.77Z"/>
    <path class="cls-4" d="M695.49,247.4c-.1,0-.18-.03-.25-.1s-.1-.15-.1-.25v-3.51l-3.58-6.07s-.02-.06-.03-.09c-.01-.03-.02-.06-.02-.1,0-.08.03-.15.09-.21.06-.06.13-.09.21-.09h.77c.09,0,.17.02.24.07.07.04.12.11.15.19l2.9,4.82,2.9-4.82c.05-.08.11-.14.17-.19.06-.04.14-.07.23-.07h.76c.09,0,.16.03.22.09s.09.13.09.21c0,.04,0,.07-.01.1s-.02.06-.04.09l-3.57,6.07v3.51c0,.1-.03.18-.1.25s-.15.1-.26.1h-.77Z"/>
    <path class="cls-4" d="M708.96,247.55c-.85,0-1.58-.15-2.19-.44-.6-.29-1.07-.74-1.4-1.35-.33-.61-.51-1.38-.55-2.3-.01-.44-.02-.85-.02-1.26s0-.82.02-1.26c.04-.91.23-1.67.57-2.28.34-.61.82-1.07,1.43-1.37.61-.3,1.32-.45,2.13-.45s1.51.15,2.12.45c.61.3,1.09.76,1.44,1.37s.54,1.37.57,2.28c.02.44.03.86.03,1.26s-.01.82-.03,1.26c-.03.92-.21,1.69-.54,2.3-.33.61-.8,1.06-1.41,1.35s-1.33.44-2.17.44ZM708.96,246.28c.75,0,1.37-.23,1.85-.68.48-.46.74-1.2.78-2.22.02-.45.03-.85.03-1.2s0-.75-.03-1.18c-.02-.68-.15-1.24-.38-1.67-.23-.43-.54-.74-.93-.94s-.83-.3-1.32-.3-.94.1-1.32.3c-.39.2-.7.51-.93.94-.23.43-.36.98-.39,1.67-.01.44-.02.83-.02,1.18s0,.75.02,1.2c.04,1.02.3,1.76.79,2.22.49.46,1.11.68,1.86.68Z"/>
    <path class="cls-4" d="M715.62,247.4c-.11,0-.19-.03-.25-.1s-.09-.15-.09-.25v-9.71c0-.11.03-.2.09-.26.06-.06.14-.1.25-.1h6.07c.11,0,.2.03.26.1.06.06.1.15.1.26v.59c0,.11-.03.19-.1.25-.06.06-.15.09-.26.09h-4.97v3.47h4.67c.11,0,.2.03.26.1.06.06.1.15.1.26v.6c0,.1-.03.18-.1.25s-.15.1-.26.1h-4.67v4.02c0,.1-.03.18-.1.25s-.15.1-.26.1h-.74Z"/>
    <path class="cls-4" d="M727.71,247.4c-.11,0-.19-.03-.25-.1s-.09-.15-.09-.25v-9.73c0-.1.03-.18.09-.25.06-.06.14-.1.25-.1h.79c.1,0,.18.03.25.1.06.06.1.15.1.25v8.78h4.94c.11,0,.2.03.26.1.06.06.1.15.1.26v.59c0,.1-.03.18-.1.25s-.15.1-.26.1h-6.07Z"/>
    <path class="cls-4" d="M736.09,247.4c-.11,0-.19-.03-.25-.1s-.09-.15-.09-.25v-9.73c0-.1.03-.18.09-.25.06-.06.14-.1.25-.1h.79c.11,0,.19.03.25.1.06.06.09.15.09.25v9.73c0,.1-.03.18-.09.25s-.14.1-.25.1h-.79Z"/>
    <path class="cls-4" d="M740.15,247.4c-.11,0-.19-.03-.25-.1s-.09-.15-.09-.25v-9.71c0-.11.03-.2.09-.26.06-.06.14-.1.25-.1h6.07c.11,0,.2.03.26.1.06.06.1.15.1.26v.59c0,.11-.03.19-.1.25s-.15.09-.26.09h-4.97v3.47h4.67c.11,0,.2.03.26.1s.1.15.1.26v.6c0,.1-.03.18-.1.25-.06.06-.15.1-.26.1h-4.67v4.02c0,.1-.03.18-.1.25-.06.06-.15.1-.26.1h-.74Z"/>
    <path class="cls-4" d="M748.84,247.4c-.11,0-.19-.03-.25-.1s-.09-.15-.09-.25v-9.71c0-.11.03-.2.09-.26.06-.06.14-.1.25-.1h6.14c.11,0,.19.03.25.1.06.06.09.15.09.26v.56c0,.11-.03.19-.09.25s-.14.09-.25.09h-5.06v3.26h4.73c.11,0,.19.03.25.1.06.06.09.15.09.26v.55c0,.1-.03.18-.09.25-.06.06-.14.1-.25.1h-4.73v3.38h5.18c.11,0,.19.03.25.09.06.06.09.14.09.25v.58c0,.1-.03.18-.09.25-.06.06-.14.1-.25.1h-6.26Z"/>
  </g>
</svg>