<?xml version="1.0" encoding="UTF-8"?>
<svg id="menu_straight_bg" data-name="menu straight bg" xmlns="http://www.w3.org/2000/svg" xmlns:xlink="http://www.w3.org/1999/xlink" viewBox="0 0 1400 300">
  <defs>
    <style>
      .cls-1 {
        fill: aqua;
      }

      .cls-2 {
        stroke-width: 8px;
      }

      .cls-2, .cls-3, .cls-4, .cls-5, .cls-6, .cls-7, .cls-8, .cls-9 {
        fill: none;
      }

      .cls-2, .cls-3, .cls-5, .cls-6, .cls-7, .cls-8, .cls-9 {
        stroke-linecap: round;
      }

      .cls-2, .cls-3, .cls-5, .cls-6, .cls-7, .cls-9 {
        stroke-miterlimit: 10;
      }

      .cls-2, .cls-7 {
        stroke: #4d4e4e;
      }

      .cls-3 {
        stroke: #ff9100;
      }

      .cls-3, .cls-5, .cls-6, .cls-7, .cls-9 {
        stroke-width: 5px;
      }

      .cls-10 {
        clip-path: url(#clippath-1);
      }

      .cls-11 {
        fill: #3386ff;
      }

      .cls-5 {
        stroke: #f0f;
      }

      .cls-6, .cls-8 {
        stroke: #3386ff;
      }

      .cls-8 {
        stroke-linejoin: round;
        stroke-width: 2px;
      }

      .cls-12 {
        fill: #f7931e;
      }

      .cls-13 {
        clip-path: url(#clippath);
      }

      .cls-9 {
        stroke: aqua;
      }
    </style>
    <clipPath id="clippath">
      <polygon class="cls-4" points="71.93 143.36 71.93 143.36 656.37 143.36 656.37 196.56 71.93 196.56 71.93 143.36"/>
    </clipPath>
    <clipPath id="clippath-1">
      <polygon class="cls-4" points="1324.75 143.36 1324.75 143.36 740.3 143.36 740.3 196.56 1324.75 196.56 1324.75 143.36"/>
    </clipPath>
  </defs>
  <line class="cls-7" x1="229.05" y1="105.47" x2="375.44" y2="105.47"/>
  <line class="cls-7" x1="420.31" y1="105.47" x2="566.69" y2="105.47"/>
  <line class="cls-7" x1="614.49" y1="105.47" x2="760.87" y2="105.47"/>
  <line class="cls-7" x1="809.69" y1="105.47" x2="956.08" y2="105.47"/>
  <line class="cls-9" x1="229.05" y1="105.47" x2="302.24" y2="105.47"/>
  <line class="cls-7" x1="420.31" y1="105.47" x2="566.69" y2="105.47"/>
  <line class="cls-3" x1="420.31" y1="105.47" x2="471.11" y2="105.47"/>
  <line class="cls-6" x1="614.49" y1="105.47" x2="715.47" y2="105.47"/>
  <line class="cls-5" x1="809.69" y1="105.47" x2="850.16" y2="105.47"/>
  <line class="cls-7" x1="229.05" y1="105.47" x2="375.44" y2="105.47"/>
  <line class="cls-7" x1="420.31" y1="105.47" x2="566.69" y2="105.47"/>
  <line class="cls-7" x1="614.49" y1="105.47" x2="760.87" y2="105.47"/>
  <line class="cls-7" x1="809.69" y1="105.47" x2="956.08" y2="105.47"/>
  <line class="cls-7" x1="420.31" y1="105.47" x2="566.69" y2="105.47"/>
  <line class="cls-7" x1="1001.25" y1="105.47" x2="1147.63" y2="105.47"/>
  <line class="cls-5" x1="1001.25" y1="105.47" x2="1041.72" y2="105.47"/>
  <line class="cls-7" x1="1001.25" y1="105.47" x2="1147.63" y2="105.47"/>
  <path class="cls-1" d="M95.25,96.35c-.18,0-.34-.06-.46-.19s-.19-.28-.19-.46v-1.91c-1.35-.13-2.49-.45-3.41-.97-.93-.52-1.63-1.15-2.1-1.89-.47-.74-.73-1.51-.77-2.31,0-.16.06-.3.18-.41s.26-.16.42-.16h2.43c.22,0,.39.05.52.15.13.1.23.22.3.37.13.35.34.69.64,1.02.3.34.72.61,1.27.83s1.23.33,2.05.33c1.31,0,2.29-.22,2.92-.66.64-.44.96-1.03.96-1.78,0-.53-.17-.95-.51-1.27-.34-.32-.87-.61-1.6-.87-.73-.26-1.68-.54-2.87-.83-1.35-.33-2.49-.72-3.42-1.19s-1.62-1.05-2.09-1.76c-.46-.71-.7-1.61-.7-2.7,0-1.4.51-2.6,1.53-3.58s2.43-1.58,4.23-1.8v-1.88c0-.18.06-.34.19-.46s.28-.19.46-.19h1.67c.18,0,.34.06.46.19.13.13.19.28.19.46v1.94c1.24.18,2.28.55,3.11,1.09.84.55,1.48,1.17,1.91,1.87.44.7.66,1.38.68,2.04,0,.15-.05.28-.15.4-.1.12-.24.18-.42.18h-2.54c-.16,0-.32-.04-.46-.11-.15-.07-.26-.21-.36-.41-.09-.56-.44-1.05-1.04-1.45-.6-.4-1.38-.6-2.35-.6s-1.77.18-2.36.55c-.59.36-.89.93-.89,1.69,0,.51.15.93.44,1.27.29.34.77.63,1.43.89.66.26,1.55.53,2.66.82,1.55.35,2.81.75,3.78,1.2.97.46,1.69,1.03,2.16,1.73.46.7.7,1.59.7,2.66s-.26,1.98-.78,2.77c-.52.79-1.25,1.43-2.2,1.91-.95.48-2.06.8-3.33.94v1.88c0,.18-.06.34-.19.46-.13.13-.28.19-.46.19h-1.67Z"/>
  <g id="layer1">
    <path id="path23303" class="cls-12" d="M1210.17,72.24c-6.6,0-11.98,5.38-11.98,11.98,0,6.6,5.38,11.97,11.98,11.97s11.97-5.37,11.97-11.97c0-.6-.48-1.09-1.08-1.09,0,0,0,0-.01,0-.6,0-1.09.49-1.08,1.09,0,0,0,0,0,0,0,5.42-4.37,9.79-9.79,9.79s-9.8-4.37-9.8-9.79,4.38-9.8,9.8-9.8c.6,0,1.08-.49,1.08-1.08,0-.6-.48-1.09-1.08-1.09h0ZM1214.3,73.06c-.42,0-.83.26-1,.68-.23.56.04,1.19.59,1.42.01,0,.02.01.03.02.56.24,1.2-.03,1.43-.59.23-.55-.03-1.19-.59-1.42-.02,0-.03-.02-.05-.02-.14-.06-.28-.08-.43-.08h0ZM1217.84,75.41c-.29,0-.56.12-.76.32-.43.43-.43,1.12,0,1.54,0,0,.01.01.02.02.42.43,1.12.43,1.54,0,.43-.43.43-1.12,0-1.54-.01-.01-.02-.02-.03-.03-.2-.21-.48-.32-.77-.32h0ZM1210.17,76.59c-.6,0-1.09.48-1.09,1.08,0,0,0,0,0,.01v6.53c0,.41.23.79.6.97l4.35,2.18c.54.27,1.19.05,1.46-.49,0,0,0,0,0,0,.27-.54.05-1.19-.49-1.46,0,0,0,0,0,0l-3.75-1.87v-5.86c0-.6-.48-1.09-1.08-1.09h0s0,0,0,0ZM1220.22,78.93c-.14,0-.29.03-.43.09-.56.23-.82.87-.59,1.43,0,.01.01.02.02.03.23.56.87.82,1.42.6.56-.23.82-.87.6-1.42,0-.01-.01-.03-.02-.04-.17-.42-.58-.68-1-.68h0Z"/>
  </g>
  <g>
    <g id="_Mirror_Repeat_" data-name="&amp;lt;Mirror Repeat&amp;gt;">
      <g class="cls-13">
        <g>
          <path class="cls-11" d="M647.92,157.62c2.13-5.04,4.98-9.72,8.45-13.88l-56.49.45,8.84,12.92,39.2.51Z"/>
          <path class="cls-11" d="M644.12,171.49l-25.69-.18,5.45,7.96,19.75.62c-.05-2.85.12-5.66.5-8.4Z"/>
          <path class="cls-11" d="M643.67,181.4l-18.75-.59,3.37,4.92,15.85.89c-.14-1.02-.26-2.05-.35-3.09-.06-.71-.09-1.42-.12-2.13Z"/>
          <path class="cls-11" d="M610.8,160.15l6.26,9.16,27.37.19c.53-3.05,1.32-6.02,2.34-8.88l-35.97-.46Z"/>
        </g>
        <path class="cls-8" d="M640.99,195.56l-14.59-.15c-3.89-.04-7.49-2.03-9.6-5.3l-23.3-36.13c-3.78-5.46-10.01-8.69-16.65-8.64-72.95.55-502.97-.97-503.92-.97"/>
      </g>
    </g>
    <g id="_Mirror_Repeat_-2" data-name="&amp;lt;Mirror Repeat&amp;gt;">
      <g class="cls-10">
        <g>
          <path class="cls-11" d="M748.76,157.62c-2.13-5.04-4.98-9.72-8.45-13.88l56.49.45-8.84,12.92-39.2.51Z"/>
          <path class="cls-11" d="M752.56,171.49l25.69-.18-5.45,7.96-19.75.62c.05-2.85-.12-5.66-.5-8.4Z"/>
          <path class="cls-11" d="M753.01,181.4l18.75-.59-3.37,4.92-15.85.89c.14-1.02.26-2.05.35-3.09.06-.71.09-1.42.12-2.13Z"/>
          <path class="cls-11" d="M785.88,160.15l-6.26,9.16-27.37.19c-.53-3.05-1.32-6.02-2.34-8.88l35.97-.46Z"/>
        </g>
        <path class="cls-8" d="M755.69,195.56l14.59-.15c3.89-.04,7.49-2.03,9.6-5.3l23.3-36.13c3.78-5.46,10.01-8.69,16.65-8.64,72.95.55,502.97-.97,503.92-.97"/>
      </g>
    </g>
  </g>
  <circle class="cls-2" cx="697.81" cy="180.18" r="38.52"/>
</svg>